<svg xmlns="http://www.w3.org/2000/svg" width="992" height="339" viewBox="0 0 992 339">
  <g id="Grupo_14243" data-name="Grupo 14243" transform="translate(-464 -371)">
    <g id="Rectángulo_3335" data-name="Rectángulo 3335" transform="translate(464 371)" fill="none" stroke="#707070" stroke-width="3">
      <rect width="992" height="339" stroke="none"/>
      <rect x="1.5" y="1.5" width="989" height="336" fill="none"/>
    </g>
    <g id="Grupo_14074" data-name="Grupo 14074" transform="translate(260 -1413)">
      <path id="Trazado_23009" data-name="Trazado 23009" d="M2.021-34.127a7.664,7.664,0,0,1,3.817-1.168c2.021,0,2.829,1.123,2.829,2.2,0,2.066-2.425,2.829-4.086,2.829H3.323V-28.2H4.535c2.38,0,4.76.9,4.76,3.143.045,1.392-1.168,3.009-3.952,3.009a8.578,8.578,0,0,1-4.176-1.168L.359-20.97a10.236,10.236,0,0,0,5.164,1.257c4.58,0,7.095-2.47,7.095-5.254a4.467,4.467,0,0,0-4.176-4.311v-.09c2.155-.763,3.458-2.245,3.458-4.041,0-2.155-1.617-4.221-5.478-4.221a10,10,0,0,0-5.164,1.392Zm37.63-3.009H36.687L28.379-2.694c-.269.988-.494,2.11-.629,2.874h-.045a24.689,24.689,0,0,0-.853-2.874L21.33-18.186l-6.2,2.56.853,2.11,3.323-1.392L26.494,4.266h2.829ZM59.588,0V-3.278H46.521v-.09l2.29-2.155c6.152-5.927,10.059-10.283,10.059-15.672,0-4.176-2.649-8.487-8.891-8.487a12.96,12.96,0,0,0-8.262,2.964l1.257,2.784a9.94,9.94,0,0,1,6.2-2.47c4.356,0,5.748,2.739,5.748,5.7,0,4.4-3.413,8.173-10.867,15.267l-3.1,3.009V0ZM79.149-1.482A14.837,14.837,0,0,0,86.738.494C93.7.494,97.38-3.592,97.38-8.262c0-4.086-2.919-6.781-6.511-7.454v-.09c3.547-1.3,5.389-3.862,5.389-6.915,0-3.547-2.6-6.96-8.352-6.96a14.165,14.165,0,0,0-7.679,2.245L81.3-24.563a10.721,10.721,0,0,1,5.838-1.931c3.637,0,5.119,2.066,5.119,4.4,0,3.458-3.637,4.939-6.511,4.939h-2.2v2.964h2.2c3.817,0,7.5,1.751,7.544,5.838.045,2.47-1.572,5.658-6.6,5.658a13.6,13.6,0,0,1-6.466-1.8Zm49.636-13.651v-2.694H105.615v2.694Zm0,8.8V-9.026H105.615v2.694Zm29.592-24.832A29.745,29.745,0,0,0,152.495-12.8a29.026,29.026,0,0,0,5.882,18.231h3.053a30.413,30.413,0,0,1-5.613-18.186c0-8.173,2.335-13.965,5.613-18.411ZM183.03,0V-3.278H169.963v-.09l2.29-2.155c6.152-5.927,10.059-10.283,10.059-15.672,0-4.176-2.649-8.487-8.891-8.487a12.96,12.96,0,0,0-8.262,2.964l1.257,2.784a9.94,9.94,0,0,1,6.2-2.47c4.356,0,5.748,2.739,5.748,5.7,0,4.4-3.413,8.173-10.867,15.267l-3.1,3.009V0Zm7.364.494a2.654,2.654,0,0,0,2.694-2.829,2.62,2.62,0,0,0-2.649-2.829,2.68,2.68,0,0,0-2.694,2.829,2.637,2.637,0,0,0,2.6,2.829Zm6.2-1.976A14.837,14.837,0,0,0,204.18.494c6.96,0,10.642-4.086,10.642-8.756,0-4.086-2.919-6.781-6.511-7.454v-.09c3.547-1.3,5.389-3.862,5.389-6.915,0-3.547-2.6-6.96-8.352-6.96a14.165,14.165,0,0,0-7.679,2.245l1.078,2.874a10.721,10.721,0,0,1,5.838-1.931c3.637,0,5.119,2.066,5.119,4.4,0,3.458-3.637,4.939-6.511,4.939h-2.2v2.964h2.2c3.817,0,7.5,1.751,7.544,5.838.045,2.47-1.572,5.658-6.6,5.658a13.6,13.6,0,0,1-6.466-1.8Zm25.1,6.915a29.7,29.7,0,0,0,5.882-18.321,28.966,28.966,0,0,0-5.882-18.276h-3.053a30.2,30.2,0,0,1,5.613,18.276,30.541,30.541,0,0,1-5.613,18.321ZM236.675-15H238.9V-32.025h-1.964l-3.719,1.991.445,1.755,2.96-1.6h.052Zm8.984,1.048,7.334-18.99h-1.807L243.9-13.952Zm8.355-1.912a8.654,8.654,0,0,0,4.427,1.152c4.06,0,6.208-2.384,6.208-5.108a4.388,4.388,0,0,0-3.8-4.348v-.052a4.266,4.266,0,0,0,3.143-4.034c0-2.069-1.519-4.06-4.872-4.06A8.262,8.262,0,0,0,254.643-31l.629,1.676a6.253,6.253,0,0,1,3.405-1.126c2.122,0,2.986,1.2,2.986,2.567,0,2.017-2.122,2.881-3.8,2.881h-1.283v1.729h1.283c2.226,0,4.374,1.022,4.4,3.405.026,1.441-.917,3.3-3.85,3.3a7.931,7.931,0,0,1-3.772-1.048Zm46.823.732v-2.694H277.667v2.694Zm0,8.8V-9.026H277.667v2.694ZM332.809,0V-3.278H319.742v-.09l2.29-2.155c6.152-5.927,10.059-10.283,10.059-15.672,0-4.176-2.649-8.487-8.891-8.487a12.96,12.96,0,0,0-8.262,2.964l1.257,2.784a9.94,9.94,0,0,1,6.2-2.47c4.356,0,5.748,2.739,5.748,5.7,0,4.4-3.413,8.173-10.867,15.267l-3.1,3.009V0Zm8.561-15H343.6V-32.025h-1.964l-3.719,1.991.445,1.755,2.96-1.6h.052Zm8.984,1.048,7.334-18.99h-1.807L348.6-13.952Zm8.355-1.912a8.654,8.654,0,0,0,4.427,1.152c4.06,0,6.208-2.384,6.208-5.108a4.388,4.388,0,0,0-3.8-4.348v-.052a4.266,4.266,0,0,0,3.143-4.034c0-2.069-1.519-4.06-4.872-4.06A8.262,8.262,0,0,0,359.339-31l.629,1.676a6.253,6.253,0,0,1,3.405-1.126c2.122,0,2.986,1.2,2.986,2.567,0,2.017-2.122,2.881-3.8,2.881h-1.283v1.729h1.283c2.226,0,4.374,1.022,4.4,3.405.026,1.441-.917,3.3-3.85,3.3a7.931,7.931,0,0,1-3.772-1.048ZM376.031.494a2.654,2.654,0,0,0,2.694-2.829,2.62,2.62,0,0,0-2.649-2.829,2.68,2.68,0,0,0-2.694,2.829,2.637,2.637,0,0,0,2.6,2.829Zm15.716-1.976A14.837,14.837,0,0,0,399.337.494c6.96,0,10.642-4.086,10.642-8.756,0-4.086-2.919-6.781-6.511-7.454v-.09c3.547-1.3,5.389-3.862,5.389-6.915,0-3.547-2.6-6.96-8.352-6.96a14.165,14.165,0,0,0-7.679,2.245l1.078,2.874a10.721,10.721,0,0,1,5.838-1.931c3.637,0,5.119,2.066,5.119,4.4,0,3.458-3.637,4.939-6.511,4.939h-2.2v2.964h2.2c3.817,0,7.5,1.751,7.544,5.838.045,2.47-1.572,5.658-6.6,5.658a13.6,13.6,0,0,1-6.466-1.8ZM419.079-15h2.226V-32.025h-1.964l-3.719,1.991.445,1.755,2.96-1.6h.052Zm8.984,1.048,7.334-18.99H433.59l-7.282,18.99Zm8.355-1.912a8.654,8.654,0,0,0,4.427,1.152c4.06,0,6.208-2.384,6.208-5.108a4.388,4.388,0,0,0-3.8-4.348v-.052a4.266,4.266,0,0,0,3.143-4.034c0-2.069-1.519-4.06-4.872-4.06A8.262,8.262,0,0,0,437.047-31l.629,1.676a6.253,6.253,0,0,1,3.405-1.126c2.122,0,2.986,1.2,2.986,2.567,0,2.017-2.122,2.881-3.8,2.881h-1.283v1.729h1.283c2.226,0,4.374,1.022,4.4,3.405.026,1.441-.917,3.3-3.85,3.3a7.931,7.931,0,0,1-3.772-1.048ZM2.021,73.643a7.664,7.664,0,0,1,3.817-1.168c2.021,0,2.829,1.123,2.829,2.2,0,2.066-2.425,2.829-4.086,2.829H3.323V79.57H4.535c2.38,0,4.76.9,4.76,3.143.045,1.392-1.168,3.009-3.952,3.009a8.578,8.578,0,0,1-4.176-1.168L.359,86.8a10.236,10.236,0,0,0,5.164,1.257c4.58,0,7.095-2.47,7.095-5.254a4.467,4.467,0,0,0-4.176-4.311V78.4c2.155-.763,3.458-2.245,3.458-4.041,0-2.155-1.617-4.221-5.478-4.221a10,10,0,0,0-5.164,1.392Zm37.63-3.009H36.687l-8.307,34.442c-.269.988-.494,2.11-.629,2.874h-.045a24.689,24.689,0,0,0-.853-2.874L21.33,89.584l-6.2,2.56.853,2.11,3.323-1.392,7.185,19.174h2.829ZM59.588,107.77v-3.278H46.521v-.09l2.29-2.155c6.152-5.927,10.059-10.283,10.059-15.672,0-4.176-2.649-8.487-8.891-8.487a12.96,12.96,0,0,0-8.262,2.964l1.257,2.784a9.94,9.94,0,0,1,6.2-2.47c4.356,0,5.748,2.739,5.748,5.7,0,4.4-3.413,8.173-10.867,15.267l-3.1,3.009v2.425Zm5.344,1.8L77.5,77.011h-3.1L61.923,109.566ZM96.814,78.582H82.848l-1.886,14.01a24.366,24.366,0,0,1,4.086-.314c5.793,0,8.352,2.694,8.352,6.421.045,3.952-3.188,6.376-6.87,6.376a13.12,13.12,0,0,1-6.287-1.617l-.988,3.009a14.421,14.421,0,0,0,7.274,1.8C92.862,108.264,97.4,104,97.4,98.3a8.267,8.267,0,0,0-4.176-7.5,12.222,12.222,0,0,0-6.287-1.572,15.606,15.606,0,0,0-2.38.18l1.123-7.5H96.814Zm38.079,14.055V89.943H111.722v2.694Zm0,8.8V98.744H111.722v2.694Zm20.072-24.832a29.745,29.745,0,0,0-5.882,18.366,29.026,29.026,0,0,0,5.882,18.231h3.053A30.413,30.413,0,0,1,152.4,95.017c0-8.173,2.335-13.965,5.613-18.411Zm24.652,31.164v-3.278H166.55v-.09l2.29-2.155C174.992,96.32,178.9,91.964,178.9,86.575c0-4.176-2.649-8.487-8.891-8.487a12.96,12.96,0,0,0-8.262,2.964L163,83.836a9.94,9.94,0,0,1,6.2-2.47c4.356,0,5.748,2.739,5.748,5.7,0,4.4-3.413,8.173-10.867,15.267l-3.1,3.009v2.425Zm5.344,1.8,12.573-32.556h-3.1l-12.483,32.556Zm31.882-30.984H202.877l-1.886,14.01a24.366,24.366,0,0,1,4.086-.314c5.793,0,8.352,2.694,8.352,6.421.045,3.952-3.188,6.376-6.87,6.376a13.12,13.12,0,0,1-6.287-1.617l-.988,3.009a14.421,14.421,0,0,0,7.274,1.8c6.331,0,10.867-4.266,10.867-9.969a8.267,8.267,0,0,0-4.176-7.5,12.222,12.222,0,0,0-6.287-1.572,15.606,15.606,0,0,0-2.38.18l1.123-7.5h11.136Zm7.544,34.621a29.7,29.7,0,0,0,5.882-18.321,28.966,28.966,0,0,0-5.882-18.276h-3.053a30.2,30.2,0,0,1,5.613,18.276,30.541,30.541,0,0,1-5.613,18.321ZM239.369,92.77H241.6V75.745h-1.964l-3.719,1.991.445,1.755,2.96-1.6h.052Zm8.984,1.048,7.334-18.99H253.88L246.6,93.818Zm8.355-1.912a8.654,8.654,0,0,0,4.427,1.152c4.06,0,6.208-2.384,6.208-5.108a4.388,4.388,0,0,0-3.8-4.348V83.55a4.266,4.266,0,0,0,3.143-4.034c0-2.069-1.519-4.06-4.872-4.06a8.262,8.262,0,0,0-4.479,1.31l.629,1.676a6.253,6.253,0,0,1,3.405-1.126c2.122,0,2.986,1.2,2.986,2.567,0,2.017-2.122,2.881-3.8,2.881h-1.283v1.729h1.283c2.226,0,4.374,1.022,4.4,3.405.026,1.441-.917,3.3-3.85,3.3a7.931,7.931,0,0,1-3.772-1.048Zm46.823.732V89.943H280.361v2.694Zm0,8.8V98.744H280.361v2.694ZM335.5,107.77v-3.278H322.437v-.09l2.29-2.155c6.152-5.927,10.059-10.283,10.059-15.672,0-4.176-2.649-8.487-8.891-8.487a12.96,12.96,0,0,0-8.262,2.964l1.257,2.784a9.94,9.94,0,0,1,6.2-2.47c4.356,0,5.748,2.739,5.748,5.7,0,4.4-3.413,8.173-10.867,15.267l-3.1,3.009v2.425Zm8.561-15h2.226V75.745h-1.964l-3.719,1.991.445,1.755,2.96-1.6h.052Zm8.984,1.048,7.334-18.99h-1.807l-7.282,18.99Zm8.355-1.912a8.654,8.654,0,0,0,4.427,1.152c4.06,0,6.208-2.384,6.208-5.108a4.388,4.388,0,0,0-3.8-4.348V83.55a4.266,4.266,0,0,0,3.143-4.034c0-2.069-1.519-4.06-4.872-4.06a8.262,8.262,0,0,0-4.479,1.31l.629,1.676a6.253,6.253,0,0,1,3.405-1.126c2.122,0,2.986,1.2,2.986,2.567,0,2.017-2.122,2.881-3.8,2.881h-1.283v1.729h1.283c2.226,0,4.374,1.022,4.4,3.405.026,1.441-.917,3.3-3.85,3.3a7.931,7.931,0,0,1-3.772-1.048Zm24.82,17.661L398.8,77.011h-3.1l-12.483,32.556Zm41.4-30.984H413.661l-1.886,14.01a24.366,24.366,0,0,1,4.086-.314c5.793,0,8.352,2.694,8.352,6.421.045,3.952-3.188,6.376-6.87,6.376a13.119,13.119,0,0,1-6.287-1.617l-.988,3.009a14.421,14.421,0,0,0,7.274,1.8c6.332,0,10.867-4.266,10.867-9.969a8.267,8.267,0,0,0-4.176-7.5,12.222,12.222,0,0,0-6.287-1.572,15.605,15.605,0,0,0-2.38.18l1.123-7.5h11.136ZM437.4,92.77h2.226V75.745h-1.964l-3.719,1.991.445,1.755,2.96-1.6h.052Zm8.984,1.048,7.334-18.99h-1.807l-7.282,18.99Zm8.355-1.912a8.654,8.654,0,0,0,4.427,1.152c4.06,0,6.208-2.384,6.208-5.108a4.388,4.388,0,0,0-3.8-4.348V83.55a4.266,4.266,0,0,0,3.143-4.034c0-2.069-1.519-4.06-4.872-4.06a8.262,8.262,0,0,0-4.479,1.31L456,78.443a6.253,6.253,0,0,1,3.405-1.126c2.122,0,2.986,1.2,2.986,2.567,0,2.017-2.122,2.881-3.8,2.881h-1.283v1.729h1.283c2.226,0,4.374,1.022,4.4,3.405.026,1.441-.917,3.3-3.85,3.3a7.931,7.931,0,0,1-3.772-1.048Zm46.823.732V89.943H478.392v2.694Zm0,8.8V98.744H478.392v2.694Zm13.337-27.8a7.664,7.664,0,0,1,3.817-1.168c2.021,0,2.829,1.123,2.829,2.2,0,2.066-2.425,2.829-4.086,2.829H516.2V79.57h1.212c2.38,0,4.76.9,4.76,3.143.045,1.392-1.167,3.009-3.952,3.009a8.578,8.578,0,0,1-4.176-1.168l-.808,2.245a10.236,10.236,0,0,0,5.164,1.257c4.58,0,7.095-2.47,7.095-5.254a4.467,4.467,0,0,0-4.176-4.311V78.4c2.155-.763,3.458-2.245,3.458-4.041,0-2.155-1.617-4.221-5.478-4.221a10,10,0,0,0-5.164,1.392Zm37.63-3.009h-2.964l-8.307,34.442c-.269.988-.494,2.11-.629,2.874h-.045a24.687,24.687,0,0,0-.853-2.874l-5.523-15.492-6.2,2.56.853,2.11,3.323-1.392,7.185,19.174H542.2Zm19.938,37.136v-3.278H559.4v-.09l2.29-2.155c6.152-5.927,10.059-10.283,10.059-15.672,0-4.176-2.649-8.487-8.891-8.487a12.96,12.96,0,0,0-8.262,2.964l1.257,2.784a9.94,9.94,0,0,1,6.2-2.47c4.356,0,5.748,2.739,5.748,5.7,0,4.4-3.413,8.173-10.867,15.267l-3.1,3.009v2.425Zm14.863,1.8L599.9,77.011h-3.1l-12.483,32.556Zm23.979-35.923a7.664,7.664,0,0,1,3.817-1.168c2.021,0,2.829,1.123,2.829,2.2,0,2.066-2.425,2.829-4.086,2.829h-1.257V79.57h1.212c2.38,0,4.76.9,4.76,3.143.045,1.392-1.167,3.009-3.952,3.009a8.578,8.578,0,0,1-4.176-1.168l-.808,2.245a10.236,10.236,0,0,0,5.164,1.257c4.58,0,7.095-2.47,7.095-5.254a4.467,4.467,0,0,0-4.176-4.311V78.4c2.155-.763,3.458-2.245,3.458-4.041,0-2.155-1.617-4.221-5.478-4.221a10,10,0,0,0-5.164,1.392Zm37.63-3.009h-2.964l-8.307,34.442c-.269.988-.494,2.11-.629,2.874h-.045a24.687,24.687,0,0,0-.853-2.874l-5.523-15.492-6.2,2.56.853,2.11,3.323-1.392,7.185,19.174h2.829Zm18.725,7.948H653.7l-1.886,14.01a24.366,24.366,0,0,1,4.086-.314c5.793,0,8.352,2.694,8.352,6.421.045,3.952-3.188,6.376-6.87,6.376a13.119,13.119,0,0,1-6.287-1.617l-.988,3.009a14.421,14.421,0,0,0,7.274,1.8c6.331,0,10.867-4.266,10.867-9.969a8.267,8.267,0,0,0-4.176-7.5,12.222,12.222,0,0,0-6.287-1.572,15.6,15.6,0,0,0-2.38.18l1.123-7.5h11.136ZM2.021,181.413a7.664,7.664,0,0,1,3.817-1.168c2.021,0,2.829,1.123,2.829,2.2,0,2.066-2.425,2.829-4.086,2.829H3.323v2.066H4.535c2.38,0,4.76.9,4.76,3.143.045,1.392-1.168,3.009-3.952,3.009a8.578,8.578,0,0,1-4.176-1.168L.359,194.57a10.236,10.236,0,0,0,5.164,1.257c4.58,0,7.095-2.47,7.095-5.254a4.467,4.467,0,0,0-4.176-4.311v-.09c2.155-.763,3.458-2.245,3.458-4.041,0-2.155-1.617-4.221-5.478-4.221A10,10,0,0,0,1.257,179.3Zm41.2-16.972H40.253l-11.874,48.4c-.269.988-.494,2.111-.629,2.874h-.045a24.69,24.69,0,0,0-.853-2.874L21.33,197.354l-6.2,2.56.853,2.111,3.323-1.392,7.185,19.174h2.829ZM48.991,195.6H61.115v-2.47H53.481v-.09l1.347-1.257c3.413-3.009,5.972-5.478,5.972-8.846,0-2.38-1.706-5.029-5.927-5.029a9.01,9.01,0,0,0-5.523,1.841l.943,2.066a6.539,6.539,0,0,1,3.772-1.392c2.335,0,3.413,1.392,3.413,3.1,0,2.29-1.931,4.4-5.658,7.813l-2.829,2.6Zm39.381-17.2H85.408L77.1,212.846c-.269.988-.494,2.111-.629,2.874h-.045a24.691,24.691,0,0,0-.853-2.874l-5.523-15.492-6.2,2.56.853,2.111,3.323-1.392,7.185,19.174h2.829Zm1.841,7.948v3.278h14.28v.09L91.874,215.54h4.041l12.708-26.583v-2.6ZM115,215.989a22.925,22.925,0,0,0,3.637-.225,14.873,14.873,0,0,0,8.487-3.907c2.874-2.784,5.029-7.274,5.029-13.7,0-7.5-3.682-12.3-9.654-12.3a10.033,10.033,0,0,0-10.014,10.328c0,5.029,3.368,8.981,8.622,8.981a8.593,8.593,0,0,0,6.915-3.143h.135a12.937,12.937,0,0,1-3.862,7.768,10.657,10.657,0,0,1-6.107,2.784,17.1,17.1,0,0,1-3.188.18Zm7.185-27.122c4.131,0,6.017,3.772,5.972,8.8a3.1,3.1,0,0,1-.314,1.437,6.667,6.667,0,0,1-5.793,3.053c-3.413,0-5.613-2.56-5.613-6.2,0-4.131,2.38-7.095,5.7-7.095Zm46.027,11.54v-2.694H145.041v2.694Zm0,8.8v-2.694H145.041v2.694Zm20.072-24.832a29.745,29.745,0,0,0-5.882,18.366,29.026,29.026,0,0,0,5.882,18.231h3.053a30.413,30.413,0,0,1-5.613-18.186c0-8.173,2.335-13.965,5.613-18.411Zm4.535,11.226h12.124v-2.47h-7.634v-.09l1.347-1.257c3.413-3.009,5.972-5.478,5.972-8.846,0-2.38-1.706-5.029-5.927-5.029a9.01,9.01,0,0,0-5.523,1.841l.943,2.066a6.539,6.539,0,0,1,3.772-1.392c2.335,0,3.413,1.392,3.413,3.1,0,2.29-1.931,4.4-5.658,7.813l-2.829,2.6ZM232.2,178.4h-2.964l-8.307,34.442c-.269.988-.494,2.111-.629,2.874h-.045a24.688,24.688,0,0,0-.853-2.874l-5.523-15.492-6.2,2.56.853,2.111,3.323-1.392,7.185,19.174h2.829Zm1.841,7.948v3.278h14.28v.09L235.7,215.54h4.041l12.708-26.583v-2.6Zm24.787,29.637a22.925,22.925,0,0,0,3.637-.225,14.873,14.873,0,0,0,8.487-3.907c2.874-2.784,5.029-7.274,5.029-13.7,0-7.5-3.682-12.3-9.654-12.3a10.033,10.033,0,0,0-10.014,10.328c0,5.029,3.368,8.981,8.622,8.981a8.593,8.593,0,0,0,6.915-3.143h.135a12.937,12.937,0,0,1-3.862,7.768,10.657,10.657,0,0,1-6.107,2.784,17.1,17.1,0,0,1-3.188.18Zm7.185-27.122c4.131,0,6.017,3.772,5.972,8.8a3.1,3.1,0,0,1-.314,1.437,6.667,6.667,0,0,1-5.793,3.053c-3.413,0-5.613-2.56-5.613-6.2,0-4.131,2.38-7.095,5.7-7.095ZM281.5,220.974a29.7,29.7,0,0,0,5.882-18.321,28.966,28.966,0,0,0-5.882-18.276h-3.053a30.2,30.2,0,0,1,5.613,18.276,30.541,30.541,0,0,1-5.613,18.321Zm14.983-20.433h2.226V183.515h-1.964l-3.719,1.991.445,1.755,2.96-1.6h.052Zm8.984,1.048,7.334-18.99H311l-7.282,18.99Zm8.355-1.912a8.654,8.654,0,0,0,4.427,1.152c4.06,0,6.208-2.384,6.208-5.108a4.388,4.388,0,0,0-3.8-4.348v-.052a4.266,4.266,0,0,0,3.143-4.034c0-2.069-1.519-4.06-4.872-4.06a8.262,8.262,0,0,0-4.479,1.31l.629,1.676a6.253,6.253,0,0,1,3.405-1.126c2.122,0,2.986,1.2,2.986,2.567,0,2.017-2.122,2.881-3.8,2.881h-1.283v1.729h1.283c2.226,0,4.374,1.022,4.4,3.405.026,1.441-.917,3.3-3.85,3.3a7.931,7.931,0,0,1-3.772-1.048Zm56.343.732v-2.694H347v2.694Zm0,8.8v-2.694H347v2.694Zm20.072-24.832a29.745,29.745,0,0,0-5.882,18.366,29.026,29.026,0,0,0,5.882,18.231H393.3a30.413,30.413,0,0,1-5.613-18.186c0-8.173,2.335-13.965,5.613-18.411Zm12.753,0a29.745,29.745,0,0,0-5.882,18.366,29.026,29.026,0,0,0,5.882,18.231h3.053a30.413,30.413,0,0,1-5.613-18.186c0-8.173,2.335-13.965,5.613-18.411Zm6.556,1.976v3.278h14.28v.09l-12.618,25.82h4.041l12.708-26.583v-2.6Zm24.787,29.637a22.925,22.925,0,0,0,3.637-.225,14.873,14.873,0,0,0,8.487-3.907c2.874-2.784,5.029-7.274,5.029-13.7,0-7.5-3.682-12.3-9.654-12.3a10.033,10.033,0,0,0-10.014,10.328c0,5.029,3.368,8.981,8.622,8.981a8.593,8.593,0,0,0,6.915-3.143h.135a12.937,12.937,0,0,1-3.862,7.768,10.657,10.657,0,0,1-6.107,2.784,17.1,17.1,0,0,1-3.188.18Zm7.185-27.122c4.131,0,6.017,3.772,5.972,8.8a3.1,3.1,0,0,1-.314,1.437,6.667,6.667,0,0,1-5.793,3.053c-3.413,0-5.613-2.56-5.613-6.2,0-4.131,2.38-7.095,5.7-7.095Zm15.492,32.107a29.7,29.7,0,0,0,5.882-18.321,28.966,28.966,0,0,0-5.882-18.276h-3.053a30.2,30.2,0,0,1,5.613,18.276,30.541,30.541,0,0,1-5.613,18.321ZM472,200.54h2.226V183.515h-1.964l-3.719,1.991.445,1.755,2.96-1.6H472Zm8.984,1.048,7.334-18.99h-1.807l-7.282,18.99Zm19.3-1.048v-1.912h-7.622v-.052L494,197.319c3.588-3.457,5.867-6,5.867-9.141a4.783,4.783,0,0,0-5.186-4.95,7.56,7.56,0,0,0-4.819,1.729l.733,1.624a5.8,5.8,0,0,1,3.615-1.441,3.017,3.017,0,0,1,3.353,3.326c0,2.567-1.991,4.767-6.339,8.906l-1.807,1.755v1.414Zm5.34,20.433a29.7,29.7,0,0,0,5.882-18.321,28.966,28.966,0,0,0-5.882-18.276h-3.053a30.2,30.2,0,0,1,5.613,18.276,30.541,30.541,0,0,1-5.613,18.321Zm14.983-20.433h2.226V183.515H520.87l-3.719,1.991.445,1.755,2.96-1.6h.052Zm8.984,1.048,7.334-18.99h-1.807l-7.282,18.99Zm8.355-1.912a8.654,8.654,0,0,0,4.427,1.152c4.06,0,6.208-2.384,6.208-5.108a4.388,4.388,0,0,0-3.8-4.348v-.052a4.266,4.266,0,0,0,3.143-4.034c0-2.069-1.519-4.06-4.872-4.06a8.262,8.262,0,0,0-4.479,1.31l.629,1.676a6.253,6.253,0,0,1,3.405-1.126c2.122,0,2.986,1.2,2.986,2.567,0,2.017-2.122,2.881-3.8,2.881h-1.283v1.729H541.8c2.226,0,4.374,1.022,4.4,3.405.026,1.441-.917,3.3-3.85,3.3a7.931,7.931,0,0,1-3.772-1.048Zm56.343.732v-2.694H571.12v2.694Zm0,8.8v-2.694H571.12v2.694Zm20.072-24.832a29.745,29.745,0,0,0-5.882,18.366,29.026,29.026,0,0,0,5.882,18.231h3.053a30.413,30.413,0,0,1-5.613-18.186c0-8.173,2.335-13.965,5.613-18.411Zm6.556,1.976v3.278H635.2v.09L622.58,215.54h4.041l12.708-26.583v-2.6Zm24.787,29.637a22.926,22.926,0,0,0,3.637-.225,14.872,14.872,0,0,0,8.487-3.907c2.874-2.784,5.029-7.274,5.029-13.7,0-7.5-3.682-12.3-9.654-12.3a10.033,10.033,0,0,0-10.014,10.328c0,5.029,3.368,8.981,8.622,8.981a8.593,8.593,0,0,0,6.915-3.143h.135A12.937,12.937,0,0,1,655,209.793a10.657,10.657,0,0,1-6.107,2.784,17.1,17.1,0,0,1-3.188.18Zm7.185-27.122c4.131,0,6.017,3.772,5.972,8.8a3.1,3.1,0,0,1-.314,1.437,6.667,6.667,0,0,1-5.793,3.053c-3.413,0-5.613-2.56-5.613-6.2,0-4.131,2.38-7.095,5.7-7.095Zm15.492,32.107a29.7,29.7,0,0,0,5.882-18.321,28.966,28.966,0,0,0-5.882-18.276h-3.054a30.2,30.2,0,0,1,5.613,18.276,30.541,30.541,0,0,1-5.613,18.321Zm14.983-20.433h2.226V183.515h-1.964l-3.719,1.991.445,1.755,2.96-1.6h.052Zm8.984,1.048,7.334-18.99h-1.807l-7.282,18.99Zm19.3-1.048v-1.912h-7.622v-.052l1.336-1.257c3.588-3.457,5.867-6,5.867-9.141a4.782,4.782,0,0,0-5.186-4.95,7.56,7.56,0,0,0-4.819,1.729l.733,1.624a5.8,5.8,0,0,1,3.615-1.441,3.017,3.017,0,0,1,3.353,3.326c0,2.567-1.991,4.767-6.339,8.906l-1.807,1.755v1.414Zm6.373,15.494a2.654,2.654,0,0,0,2.694-2.829,2.62,2.62,0,0,0-2.649-2.829,2.68,2.68,0,0,0-2.694,2.829,2.637,2.637,0,0,0,2.6,2.829Zm6.2-1.976a14.837,14.837,0,0,0,7.589,1.976c6.96,0,10.642-4.086,10.642-8.756,0-4.086-2.919-6.781-6.511-7.454v-.09c3.547-1.3,5.389-3.862,5.389-6.915,0-3.547-2.6-6.96-8.352-6.96A14.165,14.165,0,0,0,725.3,188.1l1.078,2.874a10.72,10.72,0,0,1,5.838-1.931c3.637,0,5.119,2.066,5.119,4.4,0,3.458-3.637,4.939-6.511,4.939h-2.2v2.964h2.2c3.817,0,7.5,1.751,7.544,5.838.045,2.47-1.572,5.658-6.6,5.658a13.6,13.6,0,0,1-6.466-1.8Zm65.156-13.651v-2.694H766.208v2.694Zm0,8.8v-2.694H766.208v2.694ZM801.233,195.6h12.124v-2.47h-7.634v-.09l1.347-1.257c3.413-3.009,5.972-5.478,5.972-8.846,0-2.38-1.706-5.029-5.927-5.029a9.01,9.01,0,0,0-5.523,1.841l.943,2.066a6.539,6.539,0,0,1,3.772-1.392c2.335,0,3.413,1.392,3.413,3.1,0,2.29-1.931,4.4-5.658,7.813l-2.829,2.6Zm16.334,5.226a1.548,1.548,0,0,0,1.572-1.65,1.529,1.529,0,0,0-1.545-1.65,1.563,1.563,0,0,0-1.572,1.65,1.538,1.538,0,0,0,1.519,1.65Zm4.535-19.415a7.664,7.664,0,0,1,3.817-1.168c2.021,0,2.829,1.123,2.829,2.2,0,2.066-2.425,2.829-4.086,2.829H823.4v2.066h1.212c2.38,0,4.76.9,4.76,3.143.045,1.392-1.167,3.009-3.952,3.009a8.578,8.578,0,0,1-4.176-1.168l-.808,2.245a10.236,10.236,0,0,0,5.164,1.257c4.58,0,7.095-2.47,7.095-5.254a4.467,4.467,0,0,0-4.176-4.311v-.09c2.155-.763,3.458-2.245,3.458-4.041,0-2.155-1.617-4.221-5.478-4.221a10,10,0,0,0-5.164,1.392Zm37.63-3.009h-2.964l-8.307,34.442c-.269.988-.494,2.111-.629,2.874h-.045a24.688,24.688,0,0,0-.853-2.874l-5.523-15.492-6.2,2.56.853,2.111,3.323-1.392,7.185,19.174H849.4Zm1.841,7.948v3.278h14.28v.09l-12.618,25.82h4.041l12.708-26.583v-2.6Zm24.787,29.637a22.926,22.926,0,0,0,3.637-.225,14.872,14.872,0,0,0,8.487-3.907c2.874-2.784,5.029-7.274,5.029-13.7,0-7.5-3.682-12.3-9.654-12.3a10.033,10.033,0,0,0-10.014,10.328c0,5.029,3.368,8.981,8.622,8.981a8.593,8.593,0,0,0,6.915-3.143h.135a12.937,12.937,0,0,1-3.862,7.768,10.657,10.657,0,0,1-6.107,2.784,17.1,17.1,0,0,1-3.188.18Zm7.185-27.122c4.131,0,6.017,3.772,5.972,8.8a3.1,3.1,0,0,1-.314,1.437,6.667,6.667,0,0,1-5.793,3.053c-3.413,0-5.613-2.56-5.613-6.2,0-4.131,2.38-7.095,5.7-7.095Z" transform="translate(248 1857.48)"/>
      <path id="Trazado_23004" data-name="Trazado 23004" d="M9729.994-4922.52h51.747" transform="translate(-9445 6743)" fill="none" stroke="#000" stroke-width="3"/>
      <path id="Trazado_23005" data-name="Trazado 23005" d="M9729.993-4922.52H9793.5" transform="translate(-9445 6851)" fill="none" stroke="#000" stroke-width="3"/>
      <path id="Trazado_23008" data-name="Trazado 23008" d="M9729.993-4922.52h92.442" transform="translate(-9441 6946)" fill="none" stroke="#000" stroke-width="3"/>
      <path id="Trazado_23010" data-name="Trazado 23010" d="M9729.993-4922.52h47.442" transform="translate(-9396 6959)" fill="none" stroke="#000" stroke-width="3"/>
      <path id="Trazado_23011" data-name="Trazado 23011" d="M9729.993-4922.52h47.442" transform="translate(-9252 6959)" fill="none" stroke="#000" stroke-width="3"/>
      <path id="Trazado_23012" data-name="Trazado 23012" d="M9729.993-4922.52h47.442" transform="translate(-8625 6959)" fill="none" stroke="#000" stroke-width="3"/>
      <path id="Trazado_23006" data-name="Trazado 23006" d="M9729.993-4922.52h29.413" transform="translate(-8932 6851)" fill="none" stroke="#000" stroke-width="3"/>
      <path id="Trazado_23007" data-name="Trazado 23007" d="M9729.993-4922.52h29.413" transform="translate(-8836 6851)" fill="none" stroke="#000" stroke-width="3"/>
    </g>
    <g id="Grupo_14077" data-name="Grupo 14077" transform="translate(260 -1890)">
      <path id="Trazado_23009-2" data-name="Trazado 23009" d="M64.932,109.566,77.5,77.011h-3.1L61.923,109.566Z" transform="translate(248 2226.48)"/>
    </g>
  </g>
</svg>
