<svg xmlns="http://www.w3.org/2000/svg" width="54.095" height="61.823" viewBox="0 0 54.095 61.823">
  <g id="Grupo_9188" data-name="Grupo 9188" transform="translate(5240.576 -7231.169)">
    <path id="Trazado_2725" data-name="Trazado 2725" d="M-5228.985,7231.169a3.875,3.875,0,0,0-3.863,3.864v54.095a3.875,3.875,0,0,0,3.863,3.864h38.64a3.876,3.876,0,0,0,3.864-3.864v-42.5l-15.456-15.456Z" fill="#fff"/>
    <path id="Trazado_2726" data-name="Trazado 2726" d="M-5198.073,7246.625h11.592l-15.456-15.456v11.592a3.875,3.875,0,0,0,3.864,3.864Z" fill="#e6e6e6"/>
    <path id="Trazado_2727" data-name="Trazado 2727" d="M-5194.209,7281.4a1.938,1.938,0,0,1-1.932,1.932h-42.5a1.937,1.937,0,0,1-1.932-1.932v-19.319a1.937,1.937,0,0,1,1.932-1.932h42.5a1.938,1.938,0,0,1,1.932,1.932V7281.4Z" fill="#e94b38"/>
    <path id="Trazado_2728" data-name="Trazado 2728" d="M-5230.117,7268.653v3.849h2.579a1.906,1.906,0,0,0,1.855-1.872,1.919,1.919,0,0,0-1.855-1.977Zm-2.038-.879a1.063,1.063,0,0,1,1.049-1.066h3.568a3.683,3.683,0,0,1,3.818,3.922,3.66,3.66,0,0,1-3.818,3.8h-2.579v2.04a.969.969,0,0,1-.989,1.064,1.04,1.04,0,0,1-1.049-1.064v-8.7Z" fill="#fff"/>
    <path id="Trazado_2729" data-name="Trazado 2729" d="M-5219.721,7268.732v6.921h2.564c4.171,0,4.357-6.921,0-6.921Zm-.973,8.8a.967.967,0,0,1-1.067-.956v-8.775a1.051,1.051,0,0,1,1.067-.958h3.537c7.059,0,6.905,10.689.139,10.689Z" fill="#fff"/>
    <path id="Trazado_2730" data-name="Trazado 2730" d="M-5207.748,7268.856v2.456h3.939a1.2,1.2,0,0,1,1.113,1.1,1.074,1.074,0,0,1-1.113.927h-3.939v3.244a.915.915,0,0,1-.926.956.981.981,0,0,1-1.1-.956V7267.8a.976.976,0,0,1,1.1-.958h5.423a.964.964,0,0,1,1.082.958,1.067,1.067,0,0,1-1.082,1.051h-4.5v0Z" fill="#fff"/>
    <path id="Trazado_2731" data-name="Trazado 2731" d="M-5196.141,7283.332h-36.707v1.932h36.707a1.938,1.938,0,0,0,1.932-1.932V7281.4a1.938,1.938,0,0,1-1.932,1.932Z" fill="#e6e6e6"/>
  </g>
</svg>
