<svg xmlns="http://www.w3.org/2000/svg" width="540.161" height="380.125" viewBox="0 0 540.161 380.125">
  <g id="Grupo_13998" data-name="Grupo 13998" transform="translate(-1040.127 -43.424)">
    <rect id="Rectángulo_3384" data-name="Rectángulo 3384" width="538.211" height="378.175" transform="translate(1041.102 44.399)" fill="#fff" stroke="#008600" stroke-miterlimit="10" stroke-width="1.95"/>
    <g id="Grupo_13979" data-name="Grupo 13979">
      <path id="Trazado_21701" data-name="Trazado 21701" d="M1147.756,232.952a36.55,36.55,0,0,0,.313,5.209h-3.547l-.359-2.739h-.135a8.03,8.03,0,0,1-6.646,3.233c-4.4,0-6.647-3.1-6.647-6.242,0-5.254,4.671-8.128,13.069-8.083v-.449c0-1.8-.494-5.074-4.94-5.029a10.48,10.48,0,0,0-5.7,1.616l-.9-2.65a14.067,14.067,0,0,1,7.184-1.886c6.692,0,8.309,4.536,8.309,8.892Zm-3.862-5.883c-4.312-.09-9.206.673-9.206,4.9a3.462,3.462,0,0,0,3.682,3.772,5.488,5.488,0,0,0,5.344-3.637,4.05,4.05,0,0,0,.18-1.257Z"/>
      <path id="Trazado_21702" data-name="Trazado 21702" d="M1152.719,204.617h2.3v7.934h.052a4.7,4.7,0,0,1,4.321-2.3c3.142,0,5.341,2.618,5.341,6.441,0,4.556-2.88,6.808-5.708,6.808a4.539,4.539,0,0,1-4.241-2.383h-.053l-.131,2.095h-1.99c.078-.864.1-2.147.1-3.272Zm2.3,13.512a4.38,4.38,0,0,0,.079.838,3.577,3.577,0,0,0,3.456,2.7c2.435,0,3.849-1.964,3.849-4.87,0-2.566-1.309-4.739-3.77-4.739a3.651,3.651,0,0,0-3.483,2.827,3.6,3.6,0,0,0-.131.969Z"/>
      <path id="Trazado_21703" data-name="Trazado 21703" d="M1177.019,223.027v-2.694h23.171v2.694Zm0,8.8v-2.694h23.171v2.694Z"/>
      <path id="Trazado_21704" data-name="Trazado 21704" d="M1230.274,237.354a15.291,15.291,0,0,1-6.241,1.256c-6.556,0-10.823-4.446-10.823-11.092,0-6.691,4.581-11.586,11.676-11.586a12.43,12.43,0,0,1,5.478,1.168l-.9,3.009a9.681,9.681,0,0,0-4.581-1.033c-4.985,0-7.679,3.727-7.679,8.218,0,5.029,3.233,8.128,7.544,8.128a11.318,11.318,0,0,0,4.851-1.033Z"/>
      <path id="Trazado_21705" data-name="Trazado 21705" d="M1311.054,206.277h3.951v31.884h-3.951Z"/>
      <path id="Trazado_21706" data-name="Trazado 21706" d="M1330.5,238.655c-5.838,0-10.419-4.311-10.419-11.182,0-7.275,4.806-11.541,10.778-11.541,6.242,0,10.463,4.536,10.463,11.137,0,8.083-5.613,11.586-10.777,11.586Zm.18-2.964c3.771,0,6.6-3.547,6.6-8.487,0-3.683-1.84-8.308-6.51-8.308-4.626,0-6.647,4.311-6.647,8.443,0,4.76,2.694,8.352,6.512,8.352Z"/>
      <path id="Trazado_21707" data-name="Trazado 21707" d="M1364.894,234.973c0,5.029-1.033,8.039-3.1,9.968a11.936,11.936,0,0,1-7.948,2.606,14.023,14.023,0,0,1-7.23-1.8l.987-3.053a11.837,11.837,0,0,0,6.377,1.751c4.042,0,7.006-2.11,7.006-7.634v-2.38h-.09a7.7,7.7,0,0,1-6.916,3.637c-5.388,0-9.251-4.581-9.251-10.643,0-7.364,4.806-11.5,9.835-11.5a7.2,7.2,0,0,1,6.782,3.773h.09l.134-3.279h3.5c-.135,1.527-.179,3.324-.179,5.928Zm-3.952-10.014a5.535,5.535,0,0,0-.224-1.752,5.642,5.642,0,0,0-5.524-4.221c-3.772,0-6.466,3.188-6.466,8.263,0,4.222,2.2,7.814,6.421,7.814a5.685,5.685,0,0,0,5.479-4.086,6.488,6.488,0,0,0,.314-2.112Z"/>
      <path id="Trazado_21708" data-name="Trazado 21708" d="M1388.485,250.077a21.24,21.24,0,0,0,.184,3.037H1386.6l-.21-1.6h-.078a4.685,4.685,0,0,1-3.875,1.884,3.61,3.61,0,0,1-3.876-3.639c0-3.064,2.723-4.74,7.62-4.713v-.263a2.6,2.6,0,0,0-2.88-2.932,6.1,6.1,0,0,0-3.326.943l-.524-1.545a8.2,8.2,0,0,1,4.19-1.1c3.9,0,4.843,2.645,4.843,5.185Zm-2.252-3.431c-2.513-.052-5.367.393-5.367,2.855a2.018,2.018,0,0,0,2.148,2.2,3.2,3.2,0,0,0,3.115-2.12,2.357,2.357,0,0,0,.1-.734Z"/>
      <path id="Trazado_21709" data-name="Trazado 21709" d="M1418.553,237.354a15.3,15.3,0,0,1-6.241,1.256c-6.557,0-10.824-4.446-10.824-11.092,0-6.691,4.581-11.586,11.676-11.586a12.438,12.438,0,0,1,5.479,1.168l-.9,3.009a9.678,9.678,0,0,0-4.581-1.033c-4.984,0-7.679,3.727-7.679,8.218,0,5.029,3.234,8.128,7.544,8.128a11.317,11.317,0,0,0,4.851-1.033Z"/>
      <path id="Trazado_21710" data-name="Trazado 21710" d="M1431.215,223.027v-2.694h23.172v2.694Zm0,8.8v-2.694h23.172v2.694Z"/>
      <path id="Trazado_21711" data-name="Trazado 21711" d="M1468.979,206.277h3.951v13.608h.09a8.063,8.063,0,0,1,7.41-3.953c5.388,0,9.161,4.491,9.161,11.047,0,7.814-4.941,11.676-9.79,11.676a7.787,7.787,0,0,1-7.275-4.087h-.089l-.225,3.593H1468.8c.135-1.481.18-3.682.18-5.613Zm3.951,23.172a7.508,7.508,0,0,0,.134,1.438,6.138,6.138,0,0,0,5.928,4.625c4.177,0,6.6-3.368,6.6-8.353,0-4.4-2.245-8.128-6.467-8.128a6.56,6.56,0,0,0-6.2,6.512Z"/>
    </g>
    <text id="Base_de_la_potencia_" data-name="Base de la
potencia " transform="translate(1140.165 376.998)" font-size="23.401" font-family="MyriadPro-Regular, Myriad Pro"><tspan x="-48.3" y="0">Base de la</tspan><tspan x="-45.339" y="23">potencia </tspan></text>
    <text id="Base_de_logaritmo" data-name="Base de
logaritmo" transform="translate(1384.393 376.998)" font-size="23.401" font-family="MyriadPro-Regular, Myriad Pro"><tspan x="-37.418" y="0">Base de</tspan><tspan x="-48.031" y="23">logaritmo</tspan></text>
    <text id="exponente" transform="translate(1097.802 83.828)" font-size="23.401" font-family="MyriadPro-Regular, Myriad Pro"><tspan x="0" y="0">exponente</tspan></text>
    <text id="logaritmo" transform="translate(1426.555 83.828)" font-size="23.401" font-family="MyriadPro-Regular, Myriad Pro"><tspan x="0" y="0">logaritmo</tspan></text>
    <text id="número" transform="translate(1369.52 140.242)" font-size="23.401" font-family="MyriadPro-Regular, Myriad Pro"><tspan x="0" y="0">número</tspan></text>
    <text id="potencia" transform="translate(1220.647 140.242)" font-size="23.401" font-family="MyriadPro-Regular, Myriad Pro"><tspan x="-42.859" y="0">potencia</tspan></text>
    <g id="Grupo_13985" data-name="Grupo 13985">
      <g id="Grupo_13980" data-name="Grupo 13980">
        <path id="Trazado_21712" data-name="Trazado 21712" d="M1481.064,183.846h-2V101.334H1158.173v82.512h-2V99.334h324.892Z" fill="#003b95"/>
      </g>
      <g id="Grupo_13982" data-name="Grupo 13982">
        <g id="Grupo_13981" data-name="Grupo 13981">
          <path id="Trazado_21713" data-name="Trazado 21713" d="M1165.352,177.219l-1.465-1.364-6.713,7.224-6.715-7.224-1.465,1.364,8.18,8.8Z" fill="#003b95"/>
        </g>
      </g>
      <g id="Grupo_13984" data-name="Grupo 13984">
        <g id="Grupo_13983" data-name="Grupo 13983">
          <path id="Trazado_21714" data-name="Trazado 21714" d="M1471.885,177.219l1.465-1.364,6.713,7.224,6.715-7.224,1.465,1.364-8.18,8.8Z" fill="#003b95"/>
        </g>
      </g>
    </g>
    <g id="Grupo_13991" data-name="Grupo 13991">
      <g id="Grupo_13986" data-name="Grupo 13986">
        <path id="Trazado_21715" data-name="Trazado 21715" d="M1385.393,346.06H1139.165V272.886h2V344.06h242.228V272.886h2Z" fill="#003b95"/>
      </g>
      <g id="Grupo_13988" data-name="Grupo 13988">
        <g id="Grupo_13987" data-name="Grupo 13987">
          <path id="Trazado_21716" data-name="Trazado 21716" d="M1376.213,279.513l1.465,1.364,6.713-7.224,6.715,7.224,1.465-1.364-8.18-8.8Z" fill="#003b95"/>
        </g>
      </g>
      <g id="Grupo_13990" data-name="Grupo 13990">
        <g id="Grupo_13989" data-name="Grupo 13989">
          <path id="Trazado_21717" data-name="Trazado 21717" d="M1148.345,279.513l-1.465,1.364-6.713-7.224-6.715,7.224-1.465-1.364,8.18-8.8Z" fill="#003b95"/>
        </g>
      </g>
    </g>
    <g id="Grupo_13997" data-name="Grupo 13997">
      <g id="Grupo_13992" data-name="Grupo 13992">
        <path id="Trazado_21718" data-name="Trazado 21718" d="M1411.151,183.846h-2V152.357h-187.5v31.488h-2V150.357h191.5Z" fill="#003b95"/>
      </g>
      <g id="Grupo_13994" data-name="Grupo 13994">
        <g id="Grupo_13993" data-name="Grupo 13993">
          <path id="Trazado_21719" data-name="Trazado 21719" d="M1228.827,177.219l-1.465-1.364-6.713,7.224-6.715-7.224-1.465,1.364,8.18,8.8Z" fill="#003b95"/>
        </g>
      </g>
      <g id="Grupo_13996" data-name="Grupo 13996">
        <g id="Grupo_13995" data-name="Grupo 13995">
          <path id="Trazado_21720" data-name="Trazado 21720" d="M1401.971,177.219l1.465-1.364,6.713,7.224,6.715-7.224,1.465,1.364-8.18,8.8Z" fill="#003b95"/>
        </g>
      </g>
    </g>
    <g id="Grupo_14076" data-name="Grupo 14076">
      <g id="Grupo_14075" data-name="Grupo 14075" transform="translate(1566.188 -1158.594) rotate(90)">
        <g id="Grupo_13987-2" data-name="Grupo 13987">
          <path id="Trazado_21716-2" data-name="Trazado 21716" d="M1376.213,279.513l1.465,1.364,6.713-7.224,6.715,7.224,1.465-1.364-8.18-8.8Z"/>
        </g>
      </g>
      <path id="Trazado_23013" data-name="Trazado 23013" d="M1292.678,225.8h-41.261" fill="#fff" stroke="#000" stroke-width="2"/>
    </g>
  </g>
</svg>
