<svg xmlns="http://www.w3.org/2000/svg" width="932.913" height="251.06" viewBox="0 0 932.913 251.06">
  <g id="Grupo_13944" data-name="Grupo 13944" transform="translate(-59.26 -364.666)">
    <rect id="Rectángulo_3367" data-name="Rectángulo 3367" width="391.789" height="200.848" transform="translate(59.26 414.878)" fill="#d5f4fc"/>
    <rect id="Rectángulo_3368" data-name="Rectángulo 3368" width="538.211" height="200.848" transform="translate(453.961 414.878)" fill="#d5f4fc"/>
    <rect id="Rectángulo_3369" data-name="Rectángulo 3369" width="391.789" height="50.212" transform="translate(59.26 364.666)" fill="#0d468f"/>
    <rect id="Rectángulo_3370" data-name="Rectángulo 3370" width="538.211" height="50.212" transform="translate(453.961 364.666)" fill="#0d468f"/>
    <g id="Grupo_13898" data-name="Grupo 13898">
      <path id="Trazado_21470" data-name="Trazado 21470" d="M212.218,390.545h-2.467v4.826h-2.5v-12.82h4.97a4,4,0,1,1,0,7.994Zm-.126-5.761h-2.341v3.51h2.341a1.758,1.758,0,1,0,0-3.51Z" fill="#fff"/>
      <path id="Trazado_21471" data-name="Trazado 21471" d="M224.225,394.326a3.925,3.925,0,0,1-2.918,1.153,3.876,3.876,0,0,1-2.9-1.153c-.845-.9-1.062-1.962-1.062-3.655s.217-2.736,1.062-3.637a4.248,4.248,0,0,1,5.817,0c.845.9,1.061,1.945,1.061,3.637S225.088,393.444,224.225,394.326ZM222.4,388.4a1.639,1.639,0,0,0-2.178,0,5.075,5.075,0,0,0,0,4.556,1.639,1.639,0,0,0,2.178,0,5.075,5.075,0,0,0,0-4.556Z" fill="#fff"/>
      <path id="Trazado_21472" data-name="Trazado 21472" d="M230,395.371a2.545,2.545,0,0,1-2.719-2.683v-4.646h-.99V386.26h.99v-2.773h2.341v2.773h1.656v1.782h-1.656v4.5c0,.54.252.846.811.846h.845v1.981Z" fill="#fff"/>
      <path id="Trazado_21473" data-name="Trazado 21473" d="M234.7,391.41a1.919,1.919,0,0,0,2.053,2.088,2.653,2.653,0,0,0,2.124-.882L240.3,394a4.411,4.411,0,0,1-3.566,1.477c-2.214,0-4.338-1.009-4.338-4.808,0-3.061,1.656-4.789,4.086-4.789,2.611,0,4.087,1.872,4.087,4.537v.991Zm3.349-2.611a1.747,1.747,0,0,0-3.133,0,2.3,2.3,0,0,0-.216,1.008h3.565A2.3,2.3,0,0,0,238.048,388.8Z" fill="#fff"/>
      <path id="Trazado_21474" data-name="Trazado 21474" d="M247.731,395.371V389.7a1.564,1.564,0,1,0-3.114,0v5.672h-2.342V385.99h2.288v.864a3.209,3.209,0,0,1,2.34-.972,3.042,3.042,0,0,1,2.214.828,3.475,3.475,0,0,1,.955,2.665v6Z" fill="#fff"/>
      <path id="Trazado_21475" data-name="Trazado 21475" d="M255.867,395.479c-1.873,0-4.2-1.009-4.2-4.808s2.322-4.789,4.2-4.789a4,4,0,0,1,3.1,1.26l-1.584,1.585a1.9,1.9,0,0,0-1.513-.739,1.624,1.624,0,0,0-1.332.613,3.178,3.178,0,0,0-.522,2.07,3.237,3.237,0,0,0,.522,2.089,1.623,1.623,0,0,0,1.332.612,1.9,1.9,0,0,0,1.513-.738l1.584,1.566A4.01,4.01,0,0,1,255.867,395.479Z" fill="#fff"/>
      <path id="Trazado_21476" data-name="Trazado 21476" d="M260.294,384.387v-1.908h2.394v1.908Zm.036,10.984V386.26h2.341v9.111Z" fill="#fff"/>
      <path id="Trazado_21477" data-name="Trazado 21477" d="M269.638,395.371v-.81a2.855,2.855,0,0,1-2.3.9,3.247,3.247,0,0,1-2.4-.828,3,3,0,0,1-.774-2.106c0-1.495,1.025-2.719,3.24-2.719h2.18v-.468c0-1.026-.505-1.477-1.747-1.477a2.076,2.076,0,0,0-1.8.81l-1.475-1.458a3.927,3.927,0,0,1,3.366-1.332c2.647,0,4,1.116,4,3.313v6.176Zm-.054-3.961H267.8c-.936,0-1.387.378-1.387,1.08,0,.648.451,1.062,1.423,1.062a1.782,1.782,0,0,0,1.386-.45,1.451,1.451,0,0,0,.361-1.188Z" fill="#fff"/>
      <path id="Trazado_21478" data-name="Trazado 21478" d="M277.719,395.479c-1.873,0-4.2-1.009-4.2-4.808s2.323-4.789,4.2-4.789a3.993,3.993,0,0,1,3.1,1.26l-1.584,1.585a1.9,1.9,0,0,0-1.512-.739,1.623,1.623,0,0,0-1.332.613,3.172,3.172,0,0,0-.523,2.07,3.23,3.23,0,0,0,.523,2.089,1.622,1.622,0,0,0,1.332.612,1.893,1.893,0,0,0,1.512-.738l1.584,1.566A4.008,4.008,0,0,1,277.719,395.479Z" fill="#fff"/>
      <path id="Trazado_21479" data-name="Trazado 21479" d="M282.146,384.387v-1.908h2.394v1.908Zm.036,10.984V386.26h2.34v9.111Z" fill="#fff"/>
      <path id="Trazado_21480" data-name="Trazado 21480" d="M293.164,394.326a3.923,3.923,0,0,1-2.918,1.153,3.872,3.872,0,0,1-2.9-1.153c-.846-.9-1.063-1.962-1.063-3.655s.217-2.736,1.063-3.637a4.246,4.246,0,0,1,5.816,0c.846.9,1.062,1.945,1.062,3.637S294.027,393.444,293.164,394.326Zm-1.819-5.924a1.641,1.641,0,0,0-2.179,0,5.075,5.075,0,0,0,0,4.556,1.641,1.641,0,0,0,2.179,0,5.075,5.075,0,0,0,0-4.556Zm-.5-3.906h-1.567l1.153-3.061h2.467Z" fill="#fff"/>
      <path id="Trazado_21481" data-name="Trazado 21481" d="M301.461,395.371V389.7a1.564,1.564,0,1,0-3.115,0v5.672h-2.34V385.99h2.286v.864a3.211,3.211,0,0,1,2.341-.972,3.051,3.051,0,0,1,2.215.828,3.477,3.477,0,0,1,.954,2.665v6Z" fill="#fff"/>
    </g>
    <g id="Grupo_13899" data-name="Grupo 13899">
      <path id="Trazado_21482" data-name="Trazado 21482" d="M689.572,395.371l-2.5-5.114h-1.8v5.114h-2.5v-12.82h5.023a3.876,3.876,0,0,1,4.16,3.925,3.453,3.453,0,0,1-2.342,3.367l2.864,5.528Zm-1.945-10.587h-2.358v3.384h2.358a1.7,1.7,0,1,0,0-3.384Z" fill="#fff"/>
      <path id="Trazado_21483" data-name="Trazado 21483" d="M698.535,395.371v-.81a2.853,2.853,0,0,1-2.3.9,3.243,3.243,0,0,1-2.394-.828,3,3,0,0,1-.773-2.106c0-1.495,1.025-2.719,3.24-2.719h2.178v-.468c0-1.026-.5-1.477-1.747-1.477a2.076,2.076,0,0,0-1.8.81l-1.476-1.458a3.928,3.928,0,0,1,3.366-1.332c2.648,0,4,1.116,4,3.313v6.176Zm-.054-3.961H696.7c-.936,0-1.386.378-1.386,1.08,0,.648.45,1.062,1.421,1.062a1.783,1.783,0,0,0,1.387-.45,1.451,1.451,0,0,0,.36-1.188Z" fill="#fff"/>
      <path id="Trazado_21484" data-name="Trazado 21484" d="M708.075,395.371v-.883a2.819,2.819,0,0,1-2.323.991,3.158,3.158,0,0,1-2.286-.847c-.9-.918-.972-2.376-.972-3.961,0-1.566.071-3.025.972-3.943a3.115,3.115,0,0,1,2.268-.846,2.811,2.811,0,0,1,2.287.936v-4.267h2.34v12.82Zm-1.657-7.383c-1.4,0-1.584,1.171-1.584,2.683s.18,2.7,1.584,2.7,1.6-1.188,1.6-2.7S707.823,387.988,706.418,387.988Z" fill="#fff"/>
      <path id="Trazado_21485" data-name="Trazado 21485" d="M712.5,384.387v-1.908H714.9v1.908Zm.035,10.984V386.26h2.342v9.111Z" fill="#fff"/>
      <path id="Trazado_21486" data-name="Trazado 21486" d="M720.765,395.479c-1.872,0-4.2-1.009-4.2-4.808s2.324-4.789,4.2-4.789a3.994,3.994,0,0,1,3.1,1.26l-1.584,1.585a1.894,1.894,0,0,0-1.512-.739,1.626,1.626,0,0,0-1.333.613,3.178,3.178,0,0,0-.522,2.07,3.237,3.237,0,0,0,.522,2.089,1.625,1.625,0,0,0,1.333.612,1.893,1.893,0,0,0,1.512-.738l1.584,1.566A4.009,4.009,0,0,1,720.765,395.479Z" fill="#fff"/>
      <path id="Trazado_21487" data-name="Trazado 21487" d="M729.945,395.371v-.81a2.854,2.854,0,0,1-2.3.9,3.243,3.243,0,0,1-2.4-.828,3.006,3.006,0,0,1-.775-2.106c0-1.495,1.027-2.719,3.242-2.719h2.178v-.468c0-1.026-.5-1.477-1.746-1.477a2.076,2.076,0,0,0-1.8.81l-1.477-1.458a3.93,3.93,0,0,1,3.367-1.332c2.647,0,4,1.116,4,3.313v6.176Zm-.054-3.961h-1.783c-.936,0-1.385.378-1.385,1.08,0,.648.449,1.062,1.422,1.062a1.782,1.782,0,0,0,1.386-.45,1.451,1.451,0,0,0,.36-1.188Z" fill="#fff"/>
      <path id="Trazado_21488" data-name="Trazado 21488" d="M738.027,395.479c-1.873,0-4.2-1.009-4.2-4.808s2.322-4.789,4.2-4.789a3.994,3.994,0,0,1,3.1,1.26l-1.584,1.585a1.9,1.9,0,0,0-1.512-.739,1.627,1.627,0,0,0-1.333.613,3.178,3.178,0,0,0-.522,2.07,3.237,3.237,0,0,0,.522,2.089,1.626,1.626,0,0,0,1.333.612,1.894,1.894,0,0,0,1.512-.738l1.584,1.566A4.009,4.009,0,0,1,738.027,395.479Z" fill="#fff"/>
      <path id="Trazado_21489" data-name="Trazado 21489" d="M742.453,384.387v-1.908h2.4v1.908Zm.036,10.984V386.26h2.341v9.111Z" fill="#fff"/>
      <path id="Trazado_21490" data-name="Trazado 21490" d="M753.471,394.326a3.919,3.919,0,0,1-2.916,1.153,3.879,3.879,0,0,1-2.9-1.153c-.846-.9-1.061-1.962-1.061-3.655s.215-2.736,1.061-3.637a4.246,4.246,0,0,1,5.816,0c.846.9,1.062,1.945,1.062,3.637S754.336,393.444,753.471,394.326Zm-1.819-5.924a1.477,1.477,0,0,0-1.1-.414,1.462,1.462,0,0,0-1.08.414,5.067,5.067,0,0,0,0,4.556,1.462,1.462,0,0,0,1.08.414,1.477,1.477,0,0,0,1.1-.414,5.066,5.066,0,0,0,0-4.556Zm-.5-3.906h-1.566l1.152-3.061H753.2Z" fill="#fff"/>
      <path id="Trazado_21491" data-name="Trazado 21491" d="M761.77,395.371V389.7a1.565,1.565,0,1,0-3.116,0v5.672h-2.341V385.99H758.6v.864a3.211,3.211,0,0,1,2.341-.972,3.045,3.045,0,0,1,2.214.828,3.474,3.474,0,0,1,.954,2.665v6Z" fill="#fff"/>
    </g>
    <g id="Grupo_13921" data-name="Grupo 13921">
      <g id="Grupo_13915" data-name="Grupo 13915">
        <g id="Grupo_13900" data-name="Grupo 13900">
          <path id="Trazado_21492" data-name="Trazado 21492" d="M115.61,519.578a32.892,32.892,0,0,0,.285,4.715h-3.211l-.326-2.48h-.122a7.267,7.267,0,0,1-6.016,2.927,5.6,5.6,0,0,1-6.016-5.65c0-4.756,4.228-7.358,11.829-7.317v-.406c0-1.626-.447-4.594-4.471-4.553a9.479,9.479,0,0,0-5.163,1.463l-.813-2.4a12.742,12.742,0,0,1,6.5-1.708c6.056,0,7.52,4.106,7.52,8.049Zm-3.5-5.326c-3.9-.081-8.333.61-8.333,4.431a3.134,3.134,0,0,0,3.333,3.415,4.964,4.964,0,0,0,4.837-3.293,3.67,3.67,0,0,0,.163-1.138Z"/>
          <path id="Trazado_21493" data-name="Trazado 21493" d="M120.106,493.93h2.086v7.18h.047a4.258,4.258,0,0,1,3.91-2.085c2.844,0,4.834,2.37,4.834,5.829,0,4.124-2.606,6.162-5.166,6.162a4.109,4.109,0,0,1-3.838-2.157h-.047l-.119,1.9h-1.8c.071-.782.094-1.943.094-2.962Zm2.086,12.228a3.876,3.876,0,0,0,.072.758,3.237,3.237,0,0,0,3.128,2.441c2.2,0,3.483-1.777,3.483-4.408,0-2.322-1.186-4.289-3.413-4.289a3.3,3.3,0,0,0-3.151,2.559,3.235,3.235,0,0,0-.119.877Z"/>
          <path id="Trazado_21494" data-name="Trazado 21494" d="M142.107,510.594v-2.439h20.975v2.439Zm0,7.968v-2.439h20.975v2.439Z"/>
          <path id="Trazado_21495" data-name="Trazado 21495" d="M190.322,523.561a13.825,13.825,0,0,1-5.65,1.139c-5.935,0-9.8-4.025-9.8-10.041,0-6.057,4.145-10.488,10.568-10.488a11.254,11.254,0,0,1,4.96,1.058l-.813,2.723a8.764,8.764,0,0,0-4.147-.935c-4.511,0-6.951,3.374-6.951,7.439,0,4.552,2.927,7.357,6.829,7.357a10.233,10.233,0,0,0,4.391-.935Z"/>
          <path id="Trazado_21496" data-name="Trazado 21496" d="M254.842,510.757c0-2.317-.041-4.309-.163-6.138h3.13l.163,3.861h.122a5.949,5.949,0,0,1,5.487-4.309,7.239,7.239,0,0,1,.976.082v3.373a10.35,10.35,0,0,0-1.22-.081c-2.521,0-4.309,1.911-4.8,4.553a11,11,0,0,0-.122,1.667v10.528h-3.577Z"/>
          <path id="Trazado_21497" data-name="Trazado 21497" d="M269.762,515.106c.081,4.8,3.13,6.789,6.707,6.789a12.784,12.784,0,0,0,5.447-1.017l.65,2.561a16.026,16.026,0,0,1-6.586,1.261c-6.015,0-9.673-4.025-9.673-9.919,0-5.935,3.536-10.61,9.267-10.61,6.423,0,8.09,5.651,8.09,9.268a8.743,8.743,0,0,1-.122,1.667Zm10.447-2.561c.04-2.276-.936-5.813-4.919-5.813-3.658,0-5.2,3.334-5.487,5.813Z"/>
          <path id="Trazado_21498" data-name="Trazado 21498" d="M287.609,520.634a10.1,10.1,0,0,0,4.756,1.383c2.562,0,3.781-1.261,3.781-2.927,0-1.708-1.016-2.6-3.618-3.577-3.577-1.3-5.244-3.252-5.244-5.569,0-3.171,2.6-5.773,6.788-5.773a9.13,9.13,0,0,1,4.8,1.22l-.853,2.561a8.061,8.061,0,0,0-4.025-1.138c-2.113,0-3.252,1.219-3.252,2.683,0,1.626,1.139,2.357,3.7,3.374,3.375,1.259,5.164,2.967,5.164,5.894,0,3.495-2.724,5.935-7.318,5.935a11.216,11.216,0,0,1-5.528-1.383Z"/>
          <path id="Trazado_21499" data-name="Trazado 21499" d="M320.66,518.887c0,2.072.04,3.862.162,5.406h-3.17l-.2-3.211h-.081a7.348,7.348,0,0,1-6.5,3.658c-3.089,0-6.788-1.748-6.788-8.617v-11.5h3.577v10.853c0,3.74,1.179,6.3,4.39,6.3a5.147,5.147,0,0,0,4.716-3.293,4.91,4.91,0,0,0,.325-1.829V504.619h3.577Z"/>
          <path id="Trazado_21500" data-name="Trazado 21500" d="M326.6,495.432h3.577v28.861H326.6Z"/>
          <path id="Trazado_21501" data-name="Trazado 21501" d="M340.5,499.9v4.716h5.122v2.723H340.5v10.569c0,2.439.69,3.821,2.683,3.821a6.665,6.665,0,0,0,2.073-.244l.163,2.723a9.719,9.719,0,0,1-3.171.489,5.1,5.1,0,0,1-3.862-1.505c-.976-1.1-1.382-2.845-1.382-5.162V507.342h-3.049v-2.723h3.049V501Z"/>
          <path id="Trazado_21502" data-name="Trazado 21502" d="M363.511,519.578a33.046,33.046,0,0,0,.284,4.715h-3.211l-.325-2.48h-.122a7.269,7.269,0,0,1-6.017,2.927,5.606,5.606,0,0,1-6.016-5.65c0-4.756,4.228-7.358,11.83-7.317v-.406c0-1.626-.448-4.594-4.472-4.553a9.478,9.478,0,0,0-5.162,1.463l-.814-2.4a12.744,12.744,0,0,1,6.5-1.708c6.057,0,7.521,4.106,7.521,8.049Zm-3.5-5.326c-3.9-.081-8.333.61-8.333,4.431a3.134,3.134,0,0,0,3.333,3.415,4.966,4.966,0,0,0,4.837-3.293,3.67,3.67,0,0,0,.163-1.138Z"/>
          <path id="Trazado_21503" data-name="Trazado 21503" d="M386.236,495.432v23.78c0,1.747.041,3.74.162,5.081h-3.21l-.163-3.415h-.082a7.21,7.21,0,0,1-6.666,3.862c-4.756,0-8.455-4.024-8.455-10-.041-6.585,4.065-10.569,8.821-10.569,3.048,0,5.082,1.423,5.935,2.968h.081V495.432Zm-3.577,17.194a6.65,6.65,0,0,0-.163-1.544,5.267,5.267,0,0,0-5.162-4.106c-3.7,0-5.9,3.252-5.9,7.561,0,4.025,1.993,7.317,5.814,7.317a5.415,5.415,0,0,0,5.243-4.309,5.683,5.683,0,0,0,.163-1.5Z"/>
          <path id="Trazado_21504" data-name="Trazado 21504" d="M400.183,524.74c-5.285,0-9.431-3.9-9.431-10.121,0-6.586,4.35-10.448,9.756-10.448,5.65,0,9.471,4.106,9.471,10.081,0,7.317-5.082,10.488-9.756,10.488Zm.162-2.683c3.415,0,5.975-3.211,5.975-7.682,0-3.333-1.666-7.521-5.894-7.521-4.187,0-6.016,3.9-6.016,7.643,0,4.308,2.44,7.56,5.895,7.56Z"/>
        </g>
        <g id="Grupo_13901" data-name="Grupo 13901">
          <path id="Trazado_21505" data-name="Trazado 21505" d="M119.066,568.55h2.06v7.092h.047a4.2,4.2,0,0,1,3.862-2.06c2.809,0,4.775,2.341,4.775,5.759,0,4.072-2.575,6.085-5.1,6.085a4.058,4.058,0,0,1-3.792-2.13h-.047l-.117,1.873h-1.778c.07-.773.093-1.92.093-2.926Zm2.06,12.078a3.863,3.863,0,0,0,.07.749,3.2,3.2,0,0,0,3.09,2.411c2.177,0,3.441-1.756,3.441-4.354,0-2.294-1.17-4.237-3.371-4.237a3.265,3.265,0,0,0-3.113,2.529,3.227,3.227,0,0,0-.117.866Z"/>
          <path id="Trazado_21506" data-name="Trazado 21506" d="M140.362,582.453a19.02,19.02,0,0,0,.164,2.716h-1.849l-.187-1.428h-.07a4.189,4.189,0,0,1-3.465,1.685,3.227,3.227,0,0,1-3.464-3.253c0-2.739,2.435-4.237,6.812-4.214v-.233a2.327,2.327,0,0,0-2.575-2.622,5.463,5.463,0,0,0-2.973.842l-.468-1.381a7.338,7.338,0,0,1,3.745-.983c3.488,0,4.33,2.364,4.33,4.635Zm-2.012-3.066c-2.247-.046-4.8.351-4.8,2.551a1.8,1.8,0,0,0,1.92,1.966,2.858,2.858,0,0,0,2.785-1.9,2.123,2.123,0,0,0,.094-.655Z"/>
          <path id="Trazado_21507" data-name="Trazado 21507" d="M143.379,583.063a5.825,5.825,0,0,0,2.738.794c1.475,0,2.178-.725,2.178-1.684,0-.984-.586-1.5-2.084-2.061-2.06-.749-3.02-1.872-3.02-3.206,0-1.826,1.5-3.324,3.91-3.324a5.261,5.261,0,0,1,2.761.7l-.491,1.475a4.64,4.64,0,0,0-2.317-.655c-1.217,0-1.872.7-1.872,1.544,0,.937.655,1.358,2.13,1.944,1.942.725,2.972,1.708,2.972,3.393,0,2.013-1.568,3.417-4.213,3.417a6.447,6.447,0,0,1-3.183-.8Z"/>
          <path id="Trazado_21508" data-name="Trazado 21508" d="M154.1,579.879a3.605,3.605,0,0,0,3.862,3.909,7.363,7.363,0,0,0,3.137-.586l.374,1.475a9.229,9.229,0,0,1-3.792.725c-3.464,0-5.571-2.316-5.571-5.711,0-3.417,2.037-6.109,5.337-6.109,3.7,0,4.658,3.254,4.658,5.337a5.008,5.008,0,0,1-.07.96Zm6.015-1.475c.024-1.31-.538-3.347-2.832-3.347-2.106,0-3,1.92-3.16,3.347Z"/>
        </g>
        <g id="Grupo_13902" data-name="Grupo 13902">
          <path id="Trazado_21509" data-name="Trazado 21509" d="M153.515,453.883a3.6,3.6,0,0,0,3.862,3.909,7.365,7.365,0,0,0,3.137-.585l.374,1.475a9.246,9.246,0,0,1-3.792.725c-3.464,0-5.571-2.317-5.571-5.711,0-3.417,2.037-6.109,5.337-6.109,3.7,0,4.658,3.253,4.658,5.337a5,5,0,0,1-.07.959Zm6.015-1.474c.024-1.311-.538-3.347-2.832-3.347-2.106,0-3,1.919-3.16,3.347Z"/>
          <path id="Trazado_21510" data-name="Trazado 21510" d="M165.027,447.844l1.616,2.435c.421.632.772,1.194,1.147,1.849h.07c.374-.679.749-1.264,1.147-1.873l1.568-2.411h2.247l-3.862,5.478,3.956,5.851h-2.341l-1.662-2.551c-.444-.655-.819-1.288-1.217-1.966h-.047c-.375.678-.772,1.287-1.193,1.966l-1.639,2.551h-2.27l4.025-5.781-3.839-5.548Z"/>
          <path id="Trazado_21511" data-name="Trazado 21511" d="M174.9,451.542c0-1.451-.023-2.621-.093-3.7h1.848l.117,1.943h.047a4.373,4.373,0,0,1,4-2.2c2.762,0,4.821,2.317,4.821,5.758,0,4.073-2.5,6.086-5.149,6.086a3.945,3.945,0,0,1-3.487-1.779h-.047v6.156H174.9Zm2.06,3.02a3.293,3.293,0,0,0,.094.843,3.151,3.151,0,0,0,3.066,2.411c2.177,0,3.44-1.779,3.44-4.378,0-2.27-1.169-4.212-3.346-4.212a3.285,3.285,0,0,0-3.137,2.551,4.9,4.9,0,0,0-.117.819Z"/>
          <path id="Trazado_21512" data-name="Trazado 21512" d="M192.829,459.431c-3.043,0-5.431-2.247-5.431-5.828,0-3.792,2.5-6.016,5.618-6.016,3.254,0,5.454,2.364,5.454,5.8,0,4.213-2.926,6.039-5.617,6.039Zm.093-1.545c1.967,0,3.441-1.849,3.441-4.424,0-1.92-.96-4.33-3.394-4.33-2.41,0-3.464,2.247-3.464,4.4,0,2.481,1.4,4.354,3.393,4.354Z"/>
          <path id="Trazado_21513" data-name="Trazado 21513" d="M201.064,450.911c0-1.194-.023-2.13-.093-3.067H202.8l.117,1.849h.047a4.2,4.2,0,0,1,3.745-2.106c1.568,0,4,.936,4,4.822v6.764h-2.06v-6.53c0-1.826-.678-3.371-2.622-3.371a2.971,2.971,0,0,0-2.761,2.107,3.049,3.049,0,0,0-.141.959v6.835h-2.06Z"/>
          <path id="Trazado_21514" data-name="Trazado 21514" d="M215.222,453.883a3.6,3.6,0,0,0,3.862,3.909,7.365,7.365,0,0,0,3.137-.585l.374,1.475a9.246,9.246,0,0,1-3.792.725c-3.464,0-5.571-2.317-5.571-5.711,0-3.417,2.037-6.109,5.337-6.109,3.7,0,4.658,3.253,4.658,5.337a5,5,0,0,1-.07.959Zm6.015-1.474c.024-1.311-.538-3.347-2.832-3.347-2.106,0-3,1.919-3.16,3.347Z"/>
          <path id="Trazado_21515" data-name="Trazado 21515" d="M225.776,450.911c0-1.194-.023-2.13-.093-3.067h1.825l.117,1.849h.047a4.2,4.2,0,0,1,3.745-2.106c1.568,0,4,.936,4,4.822v6.764h-2.06v-6.53c0-1.826-.679-3.371-2.622-3.371a2.971,2.971,0,0,0-2.761,2.107,3.049,3.049,0,0,0-.141.959v6.835h-2.06Z"/>
          <path id="Trazado_21516" data-name="Trazado 21516" d="M241.15,445.129v2.715h2.95v1.569h-2.95V455.5c0,1.4.4,2.2,1.545,2.2a3.839,3.839,0,0,0,1.195-.141l.093,1.568a5.6,5.6,0,0,1-1.826.281,2.936,2.936,0,0,1-2.223-.865,4.427,4.427,0,0,1-.8-2.973v-6.156h-1.756v-1.569h1.756v-2.083Z"/>
          <path id="Trazado_21517" data-name="Trazado 21517" d="M247.445,453.883a3.606,3.606,0,0,0,3.863,3.909,7.363,7.363,0,0,0,3.136-.585l.374,1.475a9.238,9.238,0,0,1-3.792.725c-3.463,0-5.57-2.317-5.57-5.711,0-3.417,2.036-6.109,5.337-6.109,3.7,0,4.657,3.253,4.657,5.337a5.1,5.1,0,0,1-.069.959Zm6.016-1.474c.023-1.311-.538-3.347-2.832-3.347-2.107,0-3,1.919-3.16,3.347Z"/>
        </g>
        <g id="Grupo_13908" data-name="Grupo 13908">
          <g id="Grupo_13904" data-name="Grupo 13904">
            <g id="Grupo_13903" data-name="Grupo 13903">
              <rect id="Rectángulo_3371" data-name="Rectángulo 3371" width="1.95" height="34.217" transform="translate(110.271 544.007) rotate(-45)" fill="#003b95"/>
            </g>
          </g>
          <g id="Grupo_13907" data-name="Grupo 13907">
            <g id="Grupo_13906" data-name="Grupo 13906">
              <g id="Grupo_13905" data-name="Grupo 13905">
                <path id="Trazado_21518" data-name="Trazado 21518" d="M124.947,568.582l.069-1.951,9.609.352-.351-9.61,1.951-.069.425,11.7Z" fill="#003b95"/>
              </g>
            </g>
          </g>
        </g>
        <g id="Grupo_13914" data-name="Grupo 13914">
          <g id="Grupo_13910" data-name="Grupo 13910">
            <g id="Grupo_13909" data-name="Grupo 13909">
              <rect id="Rectángulo_3372" data-name="Rectángulo 3372" width="34.217" height="1.95" transform="translate(135.958 490.556) rotate(-45)" fill="#003b95"/>
            </g>
          </g>
          <g id="Grupo_13913" data-name="Grupo 13913">
            <g id="Grupo_13912" data-name="Grupo 13912">
              <g id="Grupo_13911" data-name="Grupo 13911">
                <path id="Trazado_21519" data-name="Trazado 21519" d="M161.912,477.259l-1.951-.069.352-9.609-9.61.351-.069-1.951,11.7-.425Z" fill="#003b95"/>
              </g>
            </g>
          </g>
        </g>
      </g>
      <g id="Grupo_13920" data-name="Grupo 13920">
        <g id="Grupo_13916" data-name="Grupo 13916">
          <rect id="Rectángulo_3373" data-name="Rectángulo 3373" width="30.98" height="1.766" transform="translate(205.924 512.54)" fill="#003b95"/>
        </g>
        <g id="Grupo_13919" data-name="Grupo 13919">
          <g id="Grupo_13918" data-name="Grupo 13918">
            <g id="Grupo_13917" data-name="Grupo 13917">
              <path id="Trazado_21520" data-name="Trazado 21520" d="M231.054,520.643l-1.2-1.293,6.377-5.926-6.377-5.928,1.2-1.293,7.765,7.221Z" fill="#003b95"/>
            </g>
          </g>
        </g>
      </g>
    </g>
    <g id="Grupo_13943" data-name="Grupo 13943">
      <g id="Grupo_13922" data-name="Grupo 13922">
        <path id="Trazado_21521" data-name="Trazado 21521" d="M478.028,496.477h2.086v7.18h.047a4.255,4.255,0,0,1,3.91-2.085c2.844,0,4.834,2.369,4.834,5.829,0,4.123-2.606,6.162-5.166,6.162a4.112,4.112,0,0,1-3.839-2.157h-.046l-.119,1.9h-1.8c.071-.782.094-1.944.094-2.962Zm2.086,12.228a3.876,3.876,0,0,0,.072.758,3.237,3.237,0,0,0,3.127,2.441c2.2,0,3.484-1.778,3.484-4.408,0-2.322-1.186-4.289-3.413-4.289a3.46,3.46,0,0,0-3.27,3.436Z"/>
        <path id="Trazado_21522" data-name="Trazado 21522" d="M503.932,530.7H501.37l-6.5-17.358-3.008,1.26-.772-1.91,5.609-2.317,5,14.024a22.3,22.3,0,0,1,.773,2.6h.041c.122-.69.325-1.707.568-2.6l7.521-31.178h2.682Z"/>
        <path id="Trazado_21523" data-name="Trazado 21523" d="M529.624,526.108a13.829,13.829,0,0,1-5.65,1.139c-5.935,0-9.8-4.025-9.8-10.041,0-6.057,4.146-10.488,10.568-10.488a11.265,11.265,0,0,1,4.959,1.057l-.812,2.724a8.767,8.767,0,0,0-4.147-.935c-4.512,0-6.951,3.374-6.951,7.438,0,4.553,2.927,7.358,6.829,7.358a10.233,10.233,0,0,0,4.391-.935Z"/>
        <path id="Trazado_21524" data-name="Trazado 21524" d="M541.091,513.141V510.7h20.975v2.439Zm0,7.967v-2.439h20.975v2.439Z"/>
        <path id="Trazado_21525" data-name="Trazado 21525" d="M589.144,522.125a33.046,33.046,0,0,0,.284,4.715h-3.211l-.325-2.48h-.122a7.269,7.269,0,0,1-6.017,2.927,5.606,5.606,0,0,1-6.016-5.65c0-4.756,4.228-7.358,11.829-7.317v-.406c0-1.626-.447-4.594-4.471-4.553a9.476,9.476,0,0,0-5.162,1.463l-.814-2.4a12.744,12.744,0,0,1,6.5-1.708c6.057,0,7.521,4.106,7.521,8.049Zm-3.5-5.326c-3.9-.081-8.333.61-8.333,4.431a3.134,3.134,0,0,0,3.333,3.415,4.964,4.964,0,0,0,4.837-3.293,3.669,3.669,0,0,0,.163-1.138Z"/>
        <path id="Trazado_21526" data-name="Trazado 21526" d="M655.208,513.3c0-2.317-.041-4.309-.163-6.138h3.13l.163,3.861h.122a5.95,5.95,0,0,1,5.487-4.309,7.224,7.224,0,0,1,.976.082v3.373a10.334,10.334,0,0,0-1.22-.081c-2.519,0-4.308,1.911-4.8,4.553a11.131,11.131,0,0,0-.121,1.667V526.84h-3.577Z"/>
        <path id="Trazado_21527" data-name="Trazado 21527" d="M670.128,517.653c.081,4.8,3.13,6.788,6.707,6.788a12.782,12.782,0,0,0,5.447-1.016l.651,2.561a16.028,16.028,0,0,1-6.585,1.261c-6.017,0-9.675-4.025-9.675-9.919,0-5.935,3.536-10.61,9.267-10.61,6.423,0,8.09,5.651,8.09,9.268a8.743,8.743,0,0,1-.122,1.667Zm10.446-2.561c.041-2.276-.934-5.813-4.918-5.813-3.658,0-5.2,3.334-5.488,5.813Z"/>
        <path id="Trazado_21528" data-name="Trazado 21528" d="M687.976,523.181a10.094,10.094,0,0,0,4.755,1.382c2.562,0,3.781-1.26,3.781-2.926,0-1.708-1.016-2.6-3.617-3.577-3.578-1.3-5.245-3.252-5.245-5.569,0-3.171,2.6-5.773,6.789-5.773a9.126,9.126,0,0,1,4.8,1.22l-.853,2.561a8.058,8.058,0,0,0-4.025-1.138c-2.113,0-3.252,1.219-3.252,2.682,0,1.626,1.139,2.358,3.7,3.374,3.374,1.26,5.162,2.968,5.162,5.9,0,3.495-2.723,5.935-7.317,5.935a11.216,11.216,0,0,1-5.528-1.383Z"/>
        <path id="Trazado_21529" data-name="Trazado 21529" d="M721.025,521.434c0,2.072.04,3.861.163,5.406h-3.17l-.205-3.212h-.081a7.345,7.345,0,0,1-6.5,3.659c-3.089,0-6.789-1.748-6.789-8.618v-11.5h3.578v10.853c0,3.74,1.178,6.3,4.389,6.3a5.145,5.145,0,0,0,4.716-3.293,4.91,4.91,0,0,0,.325-1.829V507.166h3.577Z"/>
        <path id="Trazado_21530" data-name="Trazado 21530" d="M726.964,497.979h3.577V526.84h-3.577Z"/>
        <path id="Trazado_21531" data-name="Trazado 21531" d="M740.867,502.45v4.716h5.122v2.723h-5.122v10.569c0,2.439.692,3.821,2.683,3.821a6.665,6.665,0,0,0,2.073-.244l.162,2.723a9.734,9.734,0,0,1-3.17.489,5.1,5.1,0,0,1-3.862-1.505c-.976-1.1-1.382-2.845-1.382-5.162V509.889h-3.049v-2.723h3.049v-3.618Z"/>
        <path id="Trazado_21532" data-name="Trazado 21532" d="M763.876,522.125a33.046,33.046,0,0,0,.284,4.715h-3.211l-.325-2.48H760.5a7.269,7.269,0,0,1-6.017,2.927,5.6,5.6,0,0,1-6.015-5.65c0-4.756,4.227-7.358,11.829-7.317v-.406c0-1.626-.447-4.594-4.472-4.553a9.478,9.478,0,0,0-5.162,1.463l-.813-2.4a12.741,12.741,0,0,1,6.5-1.708c6.057,0,7.521,4.106,7.521,8.049Zm-3.5-5.326c-3.9-.081-8.333.61-8.333,4.431a3.134,3.134,0,0,0,3.333,3.415,4.966,4.966,0,0,0,4.837-3.293,3.67,3.67,0,0,0,.163-1.138Z"/>
        <path id="Trazado_21533" data-name="Trazado 21533" d="M786.6,497.979v23.78c0,1.747.041,3.74.162,5.081h-3.211l-.162-3.415h-.082a7.212,7.212,0,0,1-6.666,3.862c-4.756,0-8.455-4.024-8.455-10-.042-6.585,4.064-10.569,8.82-10.569,3.049,0,5.082,1.423,5.935,2.968h.081V497.979Zm-3.578,17.194a6.653,6.653,0,0,0-.163-1.544,5.267,5.267,0,0,0-5.162-4.106c-3.7,0-5.894,3.252-5.894,7.561,0,4.024,1.992,7.317,5.813,7.317a5.414,5.414,0,0,0,5.243-4.309,5.686,5.686,0,0,0,.163-1.5Z"/>
        <path id="Trazado_21534" data-name="Trazado 21534" d="M800.548,527.287c-5.284,0-9.431-3.9-9.431-10.121,0-6.586,4.35-10.448,9.756-10.448,5.65,0,9.471,4.106,9.471,10.081,0,7.317-5.081,10.488-9.756,10.488Zm.162-2.683c3.415,0,5.976-3.211,5.976-7.683,0-3.333-1.666-7.52-5.895-7.52-4.187,0-6.016,3.9-6.016,7.642,0,4.309,2.44,7.561,5.895,7.561Z"/>
        <path id="Trazado_21535" data-name="Trazado 21535" d="M840.47,497.979v23.78c0,1.747.04,3.74.162,5.081h-3.211l-.163-3.415h-.081a7.212,7.212,0,0,1-6.666,3.862c-4.756,0-8.455-4.024-8.455-10-.041-6.585,4.064-10.569,8.82-10.569,3.049,0,5.081,1.423,5.936,2.968h.081V497.979Zm-3.577,17.194a6.6,6.6,0,0,0-.164-1.544,5.267,5.267,0,0,0-5.162-4.106c-3.7,0-5.894,3.252-5.894,7.561,0,4.024,1.992,7.317,5.813,7.317a5.414,5.414,0,0,0,5.243-4.309,5.64,5.64,0,0,0,.164-1.5Z"/>
        <path id="Trazado_21536" data-name="Trazado 21536" d="M848.44,517.653c.081,4.8,3.13,6.788,6.707,6.788a12.788,12.788,0,0,0,5.448-1.016l.65,2.561a16.028,16.028,0,0,1-6.585,1.261c-6.016,0-9.675-4.025-9.675-9.919,0-5.935,3.536-10.61,9.268-10.61,6.423,0,8.09,5.651,8.09,9.268a8.743,8.743,0,0,1-.122,1.667Zm10.447-2.561c.041-2.276-.935-5.813-4.918-5.813-3.658,0-5.2,3.334-5.489,5.813Z"/>
        <path id="Trazado_21537" data-name="Trazado 21537" d="M875.4,497.979h3.577V526.84H875.4Z"/>
        <path id="Trazado_21538" data-name="Trazado 21538" d="M898.851,522.125a33.046,33.046,0,0,0,.284,4.715h-3.211l-.325-2.48h-.122a7.269,7.269,0,0,1-6.017,2.927,5.606,5.606,0,0,1-6.016-5.65c0-4.756,4.228-7.358,11.829-7.317v-.406c0-1.626-.447-4.594-4.471-4.553a9.475,9.475,0,0,0-5.162,1.463l-.814-2.4a12.745,12.745,0,0,1,6.5-1.708c6.057,0,7.521,4.106,7.521,8.049Zm-3.5-5.326c-3.9-.081-8.333.61-8.333,4.431a3.134,3.134,0,0,0,3.333,3.415,4.964,4.964,0,0,0,4.837-3.293,3.67,3.67,0,0,0,.163-1.138Z"/>
        <path id="Trazado_21539" data-name="Trazado 21539" d="M913.2,513.3c0-2.317-.041-4.309-.163-6.138h3.13l.163,3.861h.122a5.95,5.95,0,0,1,5.487-4.309,7.211,7.211,0,0,1,.976.082v3.373a10.321,10.321,0,0,0-1.22-.081c-2.52,0-4.308,1.911-4.8,4.553a11,11,0,0,0-.122,1.667V526.84H913.2Z"/>
        <path id="Trazado_21540" data-name="Trazado 21540" d="M940.156,522.125a33.046,33.046,0,0,0,.284,4.715h-3.211l-.325-2.48h-.122a7.268,7.268,0,0,1-6.016,2.927,5.6,5.6,0,0,1-6.016-5.65c0-4.756,4.228-7.358,11.829-7.317v-.406c0-1.626-.447-4.594-4.472-4.553a9.478,9.478,0,0,0-5.162,1.463l-.813-2.4a12.741,12.741,0,0,1,6.5-1.708c6.056,0,7.52,4.106,7.52,8.049Zm-3.5-5.326c-3.9-.081-8.333.61-8.333,4.431a3.134,3.134,0,0,0,3.333,3.415,4.967,4.967,0,0,0,4.838-3.293,3.7,3.7,0,0,0,.162-1.138Z"/>
        <path id="Trazado_21541" data-name="Trazado 21541" d="M953.126,498.67l-4.959,5.813h-2.521l3.578-5.813Zm-7.235,28.17V507.166h3.577V526.84Z"/>
        <path id="Trazado_21542" data-name="Trazado 21542" d="M953.167,524.767l8.9-11.585c.9-1.1,1.667-2.033,2.6-3.09v-.081H953.98v-2.845h15V509.4l-8.82,11.463c-.813,1.057-1.626,2.074-2.52,3.049v.082h11.5v2.845H953.167Z"/>
      </g>
      <g id="Grupo_13923" data-name="Grupo 13923">
        <path id="Trazado_21543" data-name="Trazado 21543" d="M537.289,571.013a7.215,7.215,0,0,1-2.943.592,4.87,4.87,0,0,1-5.1-5.231,5.225,5.225,0,0,1,5.507-5.464,5.872,5.872,0,0,1,2.584.551l-.424,1.419a4.547,4.547,0,0,0-2.16-.487,3.558,3.558,0,0,0-3.622,3.876,3.515,3.515,0,0,0,3.559,3.833,5.338,5.338,0,0,0,2.287-.487Z"/>
        <path id="Trazado_21544" data-name="Trazado 21544" d="M546.7,568.938a17.187,17.187,0,0,0,.148,2.456h-1.673L545,570.1h-.064a3.788,3.788,0,0,1-3.134,1.525,2.921,2.921,0,0,1-3.135-2.944c0-2.478,2.2-3.833,6.163-3.812v-.212a2.105,2.105,0,0,0-2.33-2.372,4.947,4.947,0,0,0-2.689.762l-.424-1.249a6.642,6.642,0,0,1,3.388-.89c3.157,0,3.919,2.139,3.919,4.194Zm-1.821-2.776c-2.033-.042-4.342.318-4.342,2.309a1.633,1.633,0,0,0,1.737,1.779,2.587,2.587,0,0,0,2.52-1.716,1.9,1.9,0,0,0,.085-.593Z"/>
        <path id="Trazado_21545" data-name="Trazado 21545" d="M549.686,563.918c0-1.08-.022-1.928-.085-2.774h1.652l.106,1.672h.042a3.8,3.8,0,0,1,3.389-1.906c1.419,0,3.621.847,3.621,4.363v6.121h-1.863v-5.91c0-1.651-.614-3.049-2.372-3.049a2.69,2.69,0,0,0-2.5,1.906,2.765,2.765,0,0,0-.127.869v6.184h-1.864Z"/>
        <path id="Trazado_21546" data-name="Trazado 21546" d="M563.6,558.687v2.457h2.669v1.419H563.6v5.505c0,1.272.361,1.992,1.4,1.992a3.461,3.461,0,0,0,1.08-.127l.085,1.419a5.082,5.082,0,0,1-1.651.253,2.655,2.655,0,0,1-2.013-.783,4.006,4.006,0,0,1-.72-2.69v-5.569h-1.589v-1.419h1.589v-1.886Z"/>
        <path id="Trazado_21547" data-name="Trazado 21547" d="M569.262,559.406a1.107,1.107,0,0,1-1.122-1.143,1.154,1.154,0,1,1,1.143,1.143Zm-.89,11.988v-10.25h1.864v10.25Z"/>
        <path id="Trazado_21548" data-name="Trazado 21548" d="M582.184,556.356v12.39c0,.911.02,1.949.084,2.648h-1.673l-.085-1.779h-.042a3.759,3.759,0,0,1-3.474,2.012c-2.477,0-4.405-2.1-4.405-5.21-.022-3.432,2.118-5.507,4.6-5.507a3.409,3.409,0,0,1,3.092,1.546h.042v-6.1Zm-1.865,8.959a3.443,3.443,0,0,0-.085-.8,2.745,2.745,0,0,0-2.689-2.14c-1.928,0-3.071,1.694-3.071,3.94,0,2.1,1.038,3.812,3.029,3.812a2.82,2.82,0,0,0,2.731-2.245,2.938,2.938,0,0,0,.085-.783Z"/>
        <path id="Trazado_21549" data-name="Trazado 21549" d="M592.5,568.938a17.351,17.351,0,0,0,.147,2.456h-1.672l-.169-1.292h-.064a3.792,3.792,0,0,1-3.135,1.525,2.92,2.92,0,0,1-3.134-2.944c0-2.478,2.2-3.833,6.163-3.812v-.212a2.105,2.105,0,0,0-2.329-2.372,4.953,4.953,0,0,0-2.691.762l-.424-1.249a6.646,6.646,0,0,1,3.389-.89c3.156,0,3.919,2.139,3.919,4.194Zm-1.822-2.776c-2.034-.042-4.341.318-4.341,2.309a1.633,1.633,0,0,0,1.736,1.779,2.588,2.588,0,0,0,2.521-1.716,1.924,1.924,0,0,0,.084-.593Z"/>
        <path id="Trazado_21550" data-name="Trazado 21550" d="M604.345,556.356v12.39c0,.911.02,1.949.084,2.648h-1.673l-.085-1.779h-.042a3.759,3.759,0,0,1-3.474,2.012c-2.477,0-4.405-2.1-4.405-5.21-.021-3.432,2.118-5.507,4.6-5.507a3.407,3.407,0,0,1,3.092,1.546h.042v-6.1Zm-1.865,8.959a3.5,3.5,0,0,0-.084-.8,2.746,2.746,0,0,0-2.69-2.14c-1.928,0-3.071,1.694-3.071,3.94,0,2.1,1.038,3.812,3.029,3.812a2.822,2.822,0,0,0,2.732-2.245,2.981,2.981,0,0,0,.084-.783Z"/>
        <path id="Trazado_21551" data-name="Trazado 21551" d="M611.678,569.487a5.263,5.263,0,0,0,2.477.721c1.335,0,1.97-.657,1.97-1.525,0-.89-.529-1.356-1.885-1.864-1.863-.677-2.732-1.694-2.732-2.9,0-1.652,1.355-3.008,3.537-3.008a4.754,4.754,0,0,1,2.5.636l-.444,1.334a4.188,4.188,0,0,0-2.1-.593c-1.1,0-1.694.635-1.694,1.4,0,.847.592,1.228,1.926,1.757,1.759.657,2.691,1.546,2.691,3.072,0,1.821-1.419,3.091-3.813,3.091a5.846,5.846,0,0,1-2.881-.719Z"/>
        <path id="Trazado_21552" data-name="Trazado 21552" d="M628.9,568.577c0,1.08.021,2.012.084,2.817h-1.651l-.106-1.673h-.042a3.83,3.83,0,0,1-3.389,1.906c-1.609,0-3.537-.911-3.537-4.49v-5.993h1.864V566.8c0,1.948.614,3.283,2.287,3.283a2.682,2.682,0,0,0,2.457-1.716,2.553,2.553,0,0,0,.169-.953v-6.268H628.9Z"/>
        <path id="Trazado_21553" data-name="Trazado 21553" d="M632,556.356h1.864v6.417h.042a3.8,3.8,0,0,1,3.494-1.863c2.542,0,4.322,2.118,4.322,5.21,0,3.686-2.33,5.507-4.617,5.507a3.671,3.671,0,0,1-3.431-1.928h-.043l-.106,1.7h-1.61c.064-.7.085-1.737.085-2.648Zm1.864,10.929a3.457,3.457,0,0,0,.064.678,2.893,2.893,0,0,0,2.795,2.182c1.969,0,3.114-1.589,3.114-3.94,0-2.076-1.06-3.834-3.05-3.834a2.954,2.954,0,0,0-2.817,2.288,2.9,2.9,0,0,0-.106.783Z"/>
        <path id="Trazado_21554" data-name="Trazado 21554" d="M644.051,564.341c0-1.207-.022-2.245-.085-3.2H645.6l.085,2.011h.063a3.1,3.1,0,0,1,2.859-2.245,4.011,4.011,0,0,1,.509.042v1.758a5.367,5.367,0,0,0-.635-.042,2.61,2.61,0,0,0-2.5,2.372,5.687,5.687,0,0,0-.064.868v5.486h-1.864Z"/>
        <path id="Trazado_21555" data-name="Trazado 21555" d="M658.1,568.938a17.351,17.351,0,0,0,.147,2.456H656.57L656.4,570.1h-.063a3.792,3.792,0,0,1-3.135,1.525,2.921,2.921,0,0,1-3.135-2.944c0-2.478,2.2-3.833,6.163-3.812v-.212a2.1,2.1,0,0,0-2.329-2.372,4.952,4.952,0,0,0-2.69.762l-.424-1.249a6.646,6.646,0,0,1,3.389-.89c3.156,0,3.919,2.139,3.919,4.194Zm-1.823-2.776c-2.033-.042-4.34.318-4.34,2.309a1.633,1.633,0,0,0,1.736,1.779,2.587,2.587,0,0,0,2.52-1.716,1.9,1.9,0,0,0,.084-.593Z"/>
        <path id="Trazado_21556" data-name="Trazado 21556" d="M669.938,556.356v12.39c0,.911.021,1.949.084,2.648H668.35l-.085-1.779h-.042a3.76,3.76,0,0,1-3.474,2.012c-2.478,0-4.405-2.1-4.405-5.21-.022-3.432,2.118-5.507,4.6-5.507a3.409,3.409,0,0,1,3.093,1.546h.042v-6.1Zm-1.864,8.959a3.443,3.443,0,0,0-.085-.8,2.745,2.745,0,0,0-2.689-2.14c-1.928,0-3.071,1.694-3.071,3.94,0,2.1,1.038,3.812,3.029,3.812a2.821,2.821,0,0,0,2.731-2.245,2.938,2.938,0,0,0,.085-.783Z"/>
        <path id="Trazado_21557" data-name="Trazado 21557" d="M673.924,559.406a1.107,1.107,0,0,1-1.122-1.143,1.154,1.154,0,1,1,1.143,1.143Zm-.89,11.988v-10.25H674.9v10.25Z"/>
        <path id="Trazado_21558" data-name="Trazado 21558" d="M685.3,571.013a7.225,7.225,0,0,1-2.944.592,4.87,4.87,0,0,1-5.1-5.231,5.225,5.225,0,0,1,5.507-5.464,5.876,5.876,0,0,1,2.584.551l-.424,1.419a4.55,4.55,0,0,0-2.16-.487,3.558,3.558,0,0,0-3.622,3.876,3.514,3.514,0,0,0,3.558,3.833,5.331,5.331,0,0,0,2.287-.487Z"/>
        <path id="Trazado_21559" data-name="Trazado 21559" d="M694.706,568.938a17.187,17.187,0,0,0,.148,2.456h-1.673l-.169-1.292h-.064a3.792,3.792,0,0,1-3.135,1.525,2.92,2.92,0,0,1-3.134-2.944c0-2.478,2.2-3.833,6.163-3.812v-.212a2.106,2.106,0,0,0-2.33-2.372,4.952,4.952,0,0,0-2.69.762L687.4,561.8a6.648,6.648,0,0,1,3.389-.89c3.156,0,3.919,2.139,3.919,4.194Zm-1.821-2.776c-2.033-.042-4.342.318-4.342,2.309a1.633,1.633,0,0,0,1.736,1.779,2.588,2.588,0,0,0,2.521-1.716,1.926,1.926,0,0,0,.085-.593Z"/>
        <path id="Trazado_21560" data-name="Trazado 21560" d="M697.7,556.356h1.865v15.038H697.7Z"/>
        <path id="Trazado_21561" data-name="Trazado 21561" d="M711.359,571.627c-2.754,0-4.914-2.033-4.914-5.273,0-3.432,2.267-5.444,5.083-5.444,2.945,0,4.935,2.139,4.935,5.252,0,3.813-2.648,5.465-5.083,5.465Zm.084-1.4c1.78,0,3.114-1.673,3.114-4,0-1.738-.869-3.919-3.071-3.919-2.181,0-3.134,2.033-3.134,3.982,0,2.244,1.27,3.939,3.071,3.939Z"/>
        <path id="Trazado_21562" data-name="Trazado 21562" d="M723.31,564.341c0-1.207-.021-2.245-.085-3.2h1.63l.085,2.011H725a3.1,3.1,0,0,1,2.859-2.245,3.978,3.978,0,0,1,.508.042v1.758a5.337,5.337,0,0,0-.635-.042,2.612,2.612,0,0,0-2.5,2.372,5.689,5.689,0,0,0-.063.868v5.486H723.31Z"/>
        <path id="Trazado_21563" data-name="Trazado 21563" d="M737.354,568.938a17.187,17.187,0,0,0,.148,2.456h-1.673l-.169-1.292H735.6a3.792,3.792,0,0,1-3.135,1.525,2.921,2.921,0,0,1-3.135-2.944c0-2.478,2.2-3.833,6.163-3.812v-.212a2.105,2.105,0,0,0-2.33-2.372,4.949,4.949,0,0,0-2.689.762l-.424-1.249a6.649,6.649,0,0,1,3.389-.89c3.156,0,3.918,2.139,3.918,4.194Zm-1.821-2.776c-2.033-.042-4.342.318-4.342,2.309a1.633,1.633,0,0,0,1.737,1.779,2.587,2.587,0,0,0,2.52-1.716,1.9,1.9,0,0,0,.085-.593Z"/>
        <path id="Trazado_21564" data-name="Trazado 21564" d="M749.2,556.356v12.39c0,.911.021,1.949.084,2.648h-1.673l-.085-1.779h-.042a3.757,3.757,0,0,1-3.473,2.012c-2.478,0-4.4-2.1-4.4-5.21-.022-3.432,2.118-5.507,4.595-5.507a3.409,3.409,0,0,1,3.093,1.546h.042v-6.1Zm-1.864,8.959a3.44,3.44,0,0,0-.085-.8,2.745,2.745,0,0,0-2.689-2.14c-1.928,0-3.072,1.694-3.072,3.94,0,2.1,1.038,3.812,3.03,3.812a2.821,2.821,0,0,0,2.731-2.245,2.935,2.935,0,0,0,.085-.783Z"/>
        <path id="Trazado_21565" data-name="Trazado 21565" d="M753.183,559.406a1.107,1.107,0,0,1-1.122-1.143,1.154,1.154,0,1,1,1.143,1.143Zm-.89,11.988v-10.25h1.864v10.25Z"/>
        <path id="Trazado_21566" data-name="Trazado 21566" d="M764.557,571.013a7.225,7.225,0,0,1-2.944.592,4.87,4.87,0,0,1-5.1-5.231,5.225,5.225,0,0,1,5.507-5.464,5.876,5.876,0,0,1,2.584.551l-.424,1.419a4.553,4.553,0,0,0-2.16-.487,3.558,3.558,0,0,0-3.622,3.876,3.514,3.514,0,0,0,3.558,3.833,5.331,5.331,0,0,0,2.287-.487Z"/>
        <path id="Trazado_21567" data-name="Trazado 21567" d="M773.965,568.938a17.351,17.351,0,0,0,.147,2.456h-1.673l-.168-1.292h-.064a3.791,3.791,0,0,1-3.135,1.525,2.92,2.92,0,0,1-3.134-2.944c0-2.478,2.2-3.833,6.163-3.812v-.212a2.106,2.106,0,0,0-2.33-2.372,4.952,4.952,0,0,0-2.69.762l-.424-1.249a6.646,6.646,0,0,1,3.389-.89c3.156,0,3.919,2.139,3.919,4.194Zm-1.822-2.776c-2.034-.042-4.341.318-4.341,2.309a1.633,1.633,0,0,0,1.736,1.779,2.588,2.588,0,0,0,2.521-1.716,1.924,1.924,0,0,0,.084-.593Z"/>
        <path id="Trazado_21568" data-name="Trazado 21568" d="M776.954,563.918c0-1.08-.02-1.928-.085-2.774h1.652l.106,1.672h.043a3.8,3.8,0,0,1,3.389-1.906c1.419,0,3.621.847,3.621,4.363v6.121h-1.864v-5.91c0-1.651-.614-3.049-2.372-3.049a2.69,2.69,0,0,0-2.5,1.906,2.765,2.765,0,0,0-.127.869v6.184h-1.864Z"/>
        <path id="Trazado_21569" data-name="Trazado 21569" d="M797.566,556.356v12.39c0,.911.021,1.949.084,2.648h-1.672l-.085-1.779h-.042a3.76,3.76,0,0,1-3.474,2.012c-2.478,0-4.405-2.1-4.405-5.21-.022-3.432,2.118-5.507,4.6-5.507a3.409,3.409,0,0,1,3.093,1.546h.042v-6.1Zm-1.864,8.959a3.44,3.44,0,0,0-.085-.8,2.745,2.745,0,0,0-2.689-2.14c-1.928,0-3.072,1.694-3.072,3.94,0,2.1,1.039,3.812,3.03,3.812a2.821,2.821,0,0,0,2.731-2.245,2.935,2.935,0,0,0,.085-.783Z"/>
        <path id="Trazado_21570" data-name="Trazado 21570" d="M804.835,571.627c-2.754,0-4.914-2.033-4.914-5.273,0-3.432,2.267-5.444,5.083-5.444,2.944,0,4.934,2.139,4.934,5.252,0,3.813-2.647,5.465-5.083,5.465Zm.084-1.4c1.779,0,3.113-1.673,3.113-4,0-1.738-.868-3.919-3.07-3.919-2.182,0-3.135,2.033-3.135,3.982,0,2.244,1.271,3.939,3.071,3.939Z"/>
      </g>
      <g id="Grupo_13924" data-name="Grupo 13924">
        <path id="Trazado_21571" data-name="Trazado 21571" d="M501.269,442.643l-2.584,3.028h-1.314l1.864-3.028ZM497.5,457.32V447.069h1.864V457.32Z"/>
        <path id="Trazado_21572" data-name="Trazado 21572" d="M502.456,449.844c0-1.081-.02-1.927-.085-2.775h1.652l.106,1.673h.043a3.8,3.8,0,0,1,3.389-1.906c1.418,0,3.621.847,3.621,4.363v6.121h-1.864v-5.909c0-1.652-.614-3.05-2.372-3.05a2.689,2.689,0,0,0-2.5,1.906,2.764,2.764,0,0,0-.127.868v6.185h-1.864Z"/>
        <path id="Trazado_21573" data-name="Trazado 21573" d="M523.067,442.283v12.389c0,.911.021,1.949.084,2.648h-1.672l-.085-1.779h-.042a3.76,3.76,0,0,1-3.474,2.012c-2.478,0-4.4-2.1-4.4-5.21-.022-3.431,2.118-5.507,4.595-5.507a3.411,3.411,0,0,1,3.093,1.546h.042v-6.1Zm-1.864,8.958a3.434,3.434,0,0,0-.085-.8,2.745,2.745,0,0,0-2.689-2.14c-1.928,0-3.072,1.7-3.072,3.94,0,2.1,1.039,3.812,3.03,3.812a2.821,2.821,0,0,0,2.731-2.245,2.94,2.94,0,0,0,.085-.783Z"/>
        <path id="Trazado_21574" data-name="Trazado 21574" d="M527.053,445.333a1.108,1.108,0,0,1-1.122-1.144,1.154,1.154,0,1,1,1.143,1.144Zm-.89,11.987V447.069h1.864V457.32Z"/>
        <path id="Trazado_21575" data-name="Trazado 21575" d="M538.428,456.938a7.2,7.2,0,0,1-2.944.594,4.87,4.87,0,0,1-5.1-5.232,5.225,5.225,0,0,1,5.507-5.464,5.863,5.863,0,0,1,2.584.551l-.424,1.419a4.562,4.562,0,0,0-2.16-.487,3.558,3.558,0,0,0-3.622,3.875,3.515,3.515,0,0,0,3.558,3.834,5.331,5.331,0,0,0,2.287-.487Z"/>
        <path id="Trazado_21576" data-name="Trazado 21576" d="M541.545,452.533a3.262,3.262,0,0,0,3.494,3.537,6.678,6.678,0,0,0,2.838-.529l.339,1.334a8.354,8.354,0,0,1-3.431.657c-3.135,0-5.041-2.1-5.041-5.168,0-3.092,1.843-5.528,4.829-5.528,3.347,0,4.215,2.944,4.215,4.829a4.568,4.568,0,0,1-.063.868Zm5.442-1.334c.022-1.186-.487-3.029-2.562-3.029-1.906,0-2.711,1.737-2.86,3.029Z"/>
      </g>
      <g id="Grupo_13930" data-name="Grupo 13930">
        <g id="Grupo_13926" data-name="Grupo 13926">
          <g id="Grupo_13925" data-name="Grupo 13925">
            <rect id="Rectángulo_3374" data-name="Rectángulo 3374" width="1.766" height="30.98" transform="translate(522.021 534.126) rotate(-45)" fill="#003b95"/>
          </g>
        </g>
        <g id="Grupo_13929" data-name="Grupo 13929">
          <g id="Grupo_13928" data-name="Grupo 13928">
            <g id="Grupo_13927" data-name="Grupo 13927">
              <path id="Trazado_21577" data-name="Trazado 21577" d="M535.308,556.377l.063-1.766,8.7.319-.318-8.7,1.766-.063.385,10.6Z" fill="#003b95"/>
            </g>
          </g>
        </g>
      </g>
      <g id="Grupo_13935" data-name="Grupo 13935">
        <g id="Grupo_13931" data-name="Grupo 13931">
          <rect id="Rectángulo_3375" data-name="Rectángulo 3375" width="30.98" height="1.766" transform="translate(608.555 512.54)" fill="#003b95"/>
        </g>
        <g id="Grupo_13934" data-name="Grupo 13934">
          <g id="Grupo_13933" data-name="Grupo 13933">
            <g id="Grupo_13932" data-name="Grupo 13932">
              <path id="Trazado_21578" data-name="Trazado 21578" d="M633.684,520.643l-1.2-1.293,6.377-5.926L632.48,507.5l1.2-1.293,7.765,7.221Z" fill="#003b95"/>
            </g>
          </g>
        </g>
      </g>
      <g id="Grupo_13941" data-name="Grupo 13941">
        <g id="Grupo_13937" data-name="Grupo 13937">
          <g id="Grupo_13936" data-name="Grupo 13936">
            <rect id="Rectángulo_3376" data-name="Rectángulo 3376" width="30.98" height="1.766" transform="translate(482.663 485.733) rotate(-45)" fill="#003b95"/>
          </g>
        </g>
        <g id="Grupo_13940" data-name="Grupo 13940">
          <g id="Grupo_13939" data-name="Grupo 13939">
            <g id="Grupo_13938" data-name="Grupo 13938">
              <path id="Trazado_21579" data-name="Trazado 21579" d="M506.162,473.694l-1.766-.063.319-8.7-8.7.318-.063-1.766,10.6-.385Z" fill="#003b95"/>
            </g>
          </g>
        </g>
      </g>
      <g id="Grupo_13942" data-name="Grupo 13942">
        <rect id="Rectángulo_3377" data-name="Rectángulo 3377" width="23.276" height="1.898" transform="translate(510.322 492.792)"/>
      </g>
    </g>
  </g>
</svg>
