<svg xmlns="http://www.w3.org/2000/svg" width="729.964" height="308.6" viewBox="0 0 729.964 308.6">
  <g id="Grupo_13978" data-name="Grupo 13978" transform="translate(-1062.402 -425.955)">
    <g id="Grupo_13954" data-name="Grupo 13954">
      <g id="Grupo_13949" data-name="Grupo 13949">
        <path id="Trazado_21581" data-name="Trazado 21581" d="M1062.83,450.244l1.982-7.152q.253-.908.294-1.1a1.92,1.92,0,0,0,.041-.412.719.719,0,0,0-.191-.53,1.068,1.068,0,0,0-.746-.192,2.2,2.2,0,0,0-.272.017l-.3.041v-.382q.747-.115,1.063-.174c.21-.038.439-.084.684-.138l2.057-.451a.23.23,0,0,1,.092.1l-1.534,4.976a27.475,27.475,0,0,1,2.377-3.217q1.679-1.863,3.007-1.863a1.874,1.874,0,0,1,.885.2,1.426,1.426,0,0,1,.71,1.377,3.043,3.043,0,0,1-.058.579c-.038.2-.089.416-.151.648l-1.522,5.544c-.031.115-.066.256-.105.422a1.775,1.775,0,0,0-.057.353.6.6,0,0,0,.081.313.277.277,0,0,0,.258.138,1.057,1.057,0,0,0,.666-.353,12.762,12.762,0,0,0,1.231-1.51l.336.3a14.266,14.266,0,0,1-1.475,1.805,2.642,2.642,0,0,1-1.782.915,1.248,1.248,0,0,1-.744-.261,1.092,1.092,0,0,1-.358-.943,3.249,3.249,0,0,1,.028-.417,2.886,2.886,0,0,1,.075-.381l1.478-5.625a7.454,7.454,0,0,0,.156-.758,3.77,3.77,0,0,0,.04-.423.853.853,0,0,0-.134-.48.522.522,0,0,0-.472-.2q-.881,0-2.216,1.572a19.743,19.743,0,0,0-1.594,2.232,11.346,11.346,0,0,0-.952,1.959q-.35.954-1.106,3.472Z"/>
        <path id="Trazado_21582" data-name="Trazado 21582" d="M1085.151,464.537l-6.908-16.358-3.851,2.3-.576-1.191,6.839-4.09,5.864,13.884,12.528-33.12h1.549l-14.591,38.572Z"/>
        <path id="Trazado_21583" data-name="Trazado 21583" d="M1111.47,446.592a2.935,2.935,0,0,1,.722,1.152l.1.278.445-1.5a1.5,1.5,0,0,1,.142-.344.379.379,0,0,1,.283-.108l2.287-.256q.183,0,.213.069a.451.451,0,0,1-.01.248c-.057.172-.1.308-.128.407s-.071.242-.129.427l-1.963,7.1q-.641,2.322-1.089,4.009a30.117,30.117,0,0,0-.735,3.481.5.5,0,0,0,.149.4.539.539,0,0,0,.367.129.849.849,0,0,0,.4-.119,4.569,4.569,0,0,0,.533-.357l.354-.279c.112-.092.237-.2.377-.327s.307-.281.5-.467l1.3-1.27.477.417a21.084,21.084,0,0,1-3.407,3.583,4.2,4.2,0,0,1-2.447.943,1.4,1.4,0,0,1-1.162-.515,2.006,2.006,0,0,1-.407-1.287,11.351,11.351,0,0,1,.268-2.05q.268-1.336.526-2.248-.357.6-1.2,1.739a13.925,13.925,0,0,1-2.071,2.215,9.81,9.81,0,0,1-2.774,1.828,6.06,6.06,0,0,1-1.983.358,4.022,4.022,0,0,1-2.914-1.321,5.1,5.1,0,0,1-1.308-3.747q0-4.173,3.772-8.7,3.894-4.71,8.067-4.71A3.429,3.429,0,0,1,1111.47,446.592Zm-.644.754a2.165,2.165,0,0,0-1.605-.676q-3.27,0-6.077,4.97a15.976,15.976,0,0,0-2.468,7.533,3.293,3.293,0,0,0,.683,2.315,2.231,2.231,0,0,0,1.694.726q2.99,0,5.763-4.83a15.625,15.625,0,0,0,2.671-7.931A2.916,2.916,0,0,0,1110.826,447.346Z"/>
        <path id="Trazado_21584" data-name="Trazado 21584" d="M1121.916,463.591a2.21,2.21,0,0,1-.655-1.605,2.157,2.157,0,0,1,.665-1.6,2.267,2.267,0,0,1,3.2,0,2.16,2.16,0,0,1,.665,1.6,2.214,2.214,0,0,1-.655,1.605,2.269,2.269,0,0,1-3.216,0Z"/>
        <path id="Trazado_21585" data-name="Trazado 21585" d="M1134.066,439.98a6.36,6.36,0,0,0,.168-.784,4.12,4.12,0,0,0,.05-.585,1.092,1.092,0,0,0-.129-.507.941.941,0,0,0-.6-.387,2.481,2.481,0,0,0-.467-.059q-.327-.02-1.419-.079v-.7q.639-.1,1.387-.179t2.026-.278q.14-.02,1.208-.258a8.077,8.077,0,0,1,1.527-.238.287.287,0,0,1,.189.079.3.3,0,0,1,.09.239l-.04.257L1134,451.514a23.766,23.766,0,0,1,3.02-3.692,6.588,6.588,0,0,1,4.48-2.005,4.488,4.488,0,0,1,3.483,1.439,5.1,5.1,0,0,1,1.313,3.563q0,4.944-4.309,9.251-4.188,4.189-8.673,4.189a7.832,7.832,0,0,1-3.752-.913q-1.709-.894-1.569-1.43Zm6.024,18.78a13.849,13.849,0,0,0,2.75-7.524,3.608,3.608,0,0,0-.812-2.471,2.6,2.6,0,0,0-2.037-.923q-3.144,0-6.012,5.637-2.493,4.9-2.492,8.14a1.623,1.623,0,0,0,.494,1.24,2.221,2.221,0,0,0,1.563.467Q1137.045,463.326,1140.09,458.76Z"/>
        <path id="Trazado_21586" data-name="Trazado 21586" d="M1152.408,463.591a2.214,2.214,0,0,1-.655-1.605,2.16,2.16,0,0,1,.665-1.6,2.267,2.267,0,0,1,3.2,0,2.157,2.157,0,0,1,.665,1.6,2.21,2.21,0,0,1-.655,1.605,2.269,2.269,0,0,1-3.216,0Z"/>
        <path id="Trazado_21587" data-name="Trazado 21587" d="M1173.748,446.944a3.106,3.106,0,0,1,1.072,2.116,1.832,1.832,0,0,1-1.866,1.958,1.746,1.746,0,0,1-1.23-.457,1.473,1.473,0,0,1-.5-1.131,2.331,2.331,0,0,1,.327-1.112,2.34,2.34,0,0,0,.328-.774.715.715,0,0,0-.407-.606,2.6,2.6,0,0,0-1.3-.248q-3.2,0-5.548,3.638a13.84,13.84,0,0,0-2.353,7.632,5.748,5.748,0,0,0,.954,3.518,3.34,3.34,0,0,0,2.858,1.272,5.605,5.605,0,0,0,2.968-.883,11.74,11.74,0,0,0,2.65-2.254l.139-.158.575.437a14.5,14.5,0,0,1-2.68,2.719,8.451,8.451,0,0,1-5.061,1.648,5.735,5.735,0,0,1-4.308-1.7,6.376,6.376,0,0,1-1.648-4.636,11.72,11.72,0,0,1,3.673-8.3q3.631-3.771,7.861-3.772A4.753,4.753,0,0,1,1173.748,446.944Z"/>
        <path id="Trazado_21588" data-name="Trazado 21588" d="M1209.043,456.4l-.5,2.4H1188.16l.5-2.4Zm1.708-8.039-.5,2.4h-20.387l.5-2.4Z"/>
        <path id="Trazado_21589" data-name="Trazado 21589" d="M1236.141,437.2a27.085,27.085,0,0,0-3,3.673,26.754,26.754,0,0,0-3.256,6.948,42.468,42.468,0,0,0-1.569,6.74,39.154,39.154,0,0,0-.457,5.33,33.366,33.366,0,0,0,.367,5.468,37.933,37.933,0,0,0,1.559,5.589l-.694.238a28.479,28.479,0,0,1-4.05-14.631,21.526,21.526,0,0,1,1.607-8.576q2.4-5.577,8.974-11.394Z"/>
        <path id="Trazado_21590" data-name="Trazado 21590" d="M1251.8,446.592a2.935,2.935,0,0,1,.722,1.152l.1.278.445-1.5a1.5,1.5,0,0,1,.142-.344.379.379,0,0,1,.283-.108l2.287-.256q.183,0,.213.069a.452.452,0,0,1-.01.248c-.057.172-.1.308-.128.407s-.071.242-.128.427l-1.964,7.1q-.641,2.322-1.089,4.009a30.117,30.117,0,0,0-.735,3.481.5.5,0,0,0,.149.4.543.543,0,0,0,.367.129.857.857,0,0,0,.4-.119,4.654,4.654,0,0,0,.532-.357l.354-.279c.113-.092.238-.2.377-.327s.307-.281.5-.467l1.3-1.27.477.417a21.046,21.046,0,0,1-3.407,3.583,4.192,4.192,0,0,1-2.447.943,1.4,1.4,0,0,1-1.162-.515,2.012,2.012,0,0,1-.407-1.287,11.348,11.348,0,0,1,.268-2.05q.268-1.336.526-2.248-.357.6-1.2,1.739a13.928,13.928,0,0,1-2.072,2.215,9.8,9.8,0,0,1-2.774,1.828,6.06,6.06,0,0,1-1.983.358,4.022,4.022,0,0,1-2.914-1.321,5.1,5.1,0,0,1-1.308-3.747q0-4.173,3.772-8.7,3.894-4.71,8.068-4.71A3.428,3.428,0,0,1,1251.8,446.592Zm-.644.754a2.165,2.165,0,0,0-1.6-.676q-3.27,0-6.077,4.97a15.976,15.976,0,0,0-2.468,7.533,3.294,3.294,0,0,0,.683,2.315,2.233,2.233,0,0,0,1.694.726q2.99,0,5.764-4.83a15.632,15.632,0,0,0,2.67-7.931A2.916,2.916,0,0,0,1251.155,447.346Z"/>
        <path id="Trazado_21591" data-name="Trazado 21591" d="M1262.245,463.591a2.214,2.214,0,0,1-.655-1.605,2.16,2.16,0,0,1,.665-1.6,2.267,2.267,0,0,1,3.2,0,2.157,2.157,0,0,1,.665,1.6,2.214,2.214,0,0,1-.655,1.605,2.269,2.269,0,0,1-3.216,0Z"/>
        <path id="Trazado_21592" data-name="Trazado 21592" d="M1274.4,439.98a6.527,6.527,0,0,0,.167-.784,4.1,4.1,0,0,0,.05-.585,1.092,1.092,0,0,0-.129-.507.941.941,0,0,0-.6-.387,2.481,2.481,0,0,0-.467-.059q-.327-.02-1.419-.079v-.7q.639-.1,1.387-.179t2.026-.278q.14-.02,1.208-.258a8.078,8.078,0,0,1,1.527-.238.285.285,0,0,1,.189.079.3.3,0,0,1,.09.239l-.04.257-4.053,15.008a23.815,23.815,0,0,1,3.02-3.692,6.588,6.588,0,0,1,4.48-2.005,4.49,4.49,0,0,1,3.484,1.439,5.1,5.1,0,0,1,1.312,3.563q0,4.944-4.309,9.251-4.188,4.189-8.673,4.189a7.832,7.832,0,0,1-3.752-.913q-1.709-.894-1.569-1.43Zm6.023,18.78a13.849,13.849,0,0,0,2.75-7.524,3.608,3.608,0,0,0-.812-2.471,2.6,2.6,0,0,0-2.037-.923q-3.144,0-6.012,5.637-2.493,4.9-2.492,8.14a1.619,1.619,0,0,0,.495,1.24,2.217,2.217,0,0,0,1.562.467Q1277.374,463.326,1280.419,458.76Z"/>
        <path id="Trazado_21593" data-name="Trazado 21593" d="M1292.737,463.591a2.214,2.214,0,0,1-.655-1.605,2.16,2.16,0,0,1,.665-1.6,2.267,2.267,0,0,1,3.2,0,2.157,2.157,0,0,1,.665,1.6,2.21,2.21,0,0,1-.655,1.605,2.269,2.269,0,0,1-3.216,0Z"/>
        <path id="Trazado_21594" data-name="Trazado 21594" d="M1314.076,446.944a3.106,3.106,0,0,1,1.072,2.116,1.832,1.832,0,0,1-1.866,1.958,1.746,1.746,0,0,1-1.23-.457,1.473,1.473,0,0,1-.5-1.131,2.331,2.331,0,0,1,.327-1.112,2.315,2.315,0,0,0,.328-.774.715.715,0,0,0-.407-.606,2.6,2.6,0,0,0-1.3-.248q-3.2,0-5.548,3.638a13.839,13.839,0,0,0-2.352,7.632,5.748,5.748,0,0,0,.953,3.518,3.341,3.341,0,0,0,2.858,1.272,5.6,5.6,0,0,0,2.968-.883,11.719,11.719,0,0,0,2.65-2.254l.139-.158.575.437a14.5,14.5,0,0,1-2.68,2.719,8.451,8.451,0,0,1-5.061,1.648,5.735,5.735,0,0,1-4.308-1.7,6.376,6.376,0,0,1-1.648-4.636,11.72,11.72,0,0,1,3.673-8.3q3.633-3.771,7.861-3.772A4.753,4.753,0,0,1,1314.076,446.944Z"/>
        <path id="Trazado_21595" data-name="Trazado 21595" d="M1316.578,470.472a32.78,32.78,0,0,0,3.156-3.851,26.862,26.862,0,0,0,3.078-6.769,44.76,44.76,0,0,0,1.547-6.492,38.862,38.862,0,0,0,.5-6.034,29.318,29.318,0,0,0-.584-6.194,20.6,20.6,0,0,0-1.4-4.387l.754-.239a27.119,27.119,0,0,1,2.968,6.879,28.27,28.27,0,0,1,1.082,7.732,21.669,21.669,0,0,1-1.33,7.861q-2.4,6.234-9.251,12.109Z"/>
        <path id="Trazado_21596" data-name="Trazado 21596" d="M1330.607,449.851l.788-.012a3.535,3.535,0,0,0,1.238-.341,1.339,1.339,0,0,0,.637-.863l3.23-11.665c.054-.193.095-.357.122-.492a1.96,1.96,0,0,0,.04-.365.556.556,0,0,0-.266-.544,1.928,1.928,0,0,0-.844-.139l-1.135.058v-.359l.3-.046q.324-.059,1.718-.335t1.983-.406l.359-.081.22-.034.139.081c0,.046,0,.092-.006.139a.625.625,0,0,1-.029.138l-3.855,14.178c-.016.062-.028.123-.04.185a.96.96,0,0,0-.018.185.563.563,0,0,0,.417.6,7.279,7.279,0,0,0,1.609.162v.347h-6.608Z"/>
        <path id="Trazado_21597" data-name="Trazado 21597" d="M1347.116,434.667h1.157l-5.971,15.971h-1.157Z"/>
        <path id="Trazado_21598" data-name="Trazado 21598" d="M1348.326,450.244l1.982-7.152c.17-.605.267-.971.3-1.1a1.993,1.993,0,0,0,.041-.412.719.719,0,0,0-.192-.53,1.067,1.067,0,0,0-.746-.192,2.2,2.2,0,0,0-.272.017l-.295.041v-.382q.747-.115,1.063-.174c.21-.038.439-.084.684-.138l2.057-.451a.225.225,0,0,1,.092.1l-1.534,4.976a27.459,27.459,0,0,1,2.377-3.217q1.678-1.863,3.007-1.863a1.877,1.877,0,0,1,.886.2,1.427,1.427,0,0,1,.709,1.377,3.033,3.033,0,0,1-.058.579c-.038.2-.089.416-.151.648l-1.522,5.544c-.031.115-.066.256-.1.422a1.716,1.716,0,0,0-.058.353.6.6,0,0,0,.081.313.277.277,0,0,0,.258.138,1.058,1.058,0,0,0,.666-.353,12.777,12.777,0,0,0,1.231-1.51l.336.3a14.275,14.275,0,0,1-1.475,1.805,2.642,2.642,0,0,1-1.782.915,1.251,1.251,0,0,1-.744-.261,1.092,1.092,0,0,1-.358-.943,3.459,3.459,0,0,1,.028-.417,2.906,2.906,0,0,1,.075-.381l1.478-5.625a7.454,7.454,0,0,0,.156-.758,3.77,3.77,0,0,0,.04-.423.853.853,0,0,0-.134-.48.522.522,0,0,0-.472-.2q-.88,0-2.216,1.572a19.743,19.743,0,0,0-1.594,2.232,11.355,11.355,0,0,0-.952,1.959q-.348.954-1.1,3.472Z"/>
        <path id="Trazado_21599" data-name="Trazado 21599" d="M1388.96,456.4l-.5,2.4h-20.387l.5-2.4Zm1.708-8.039-.5,2.4h-20.387l.5-2.4Z"/>
        <path id="Trazado_21600" data-name="Trazado 21600" d="M1418.177,446.592a2.936,2.936,0,0,1,.722,1.152l.1.278.445-1.5a1.5,1.5,0,0,1,.142-.344.379.379,0,0,1,.283-.108l2.287-.256q.183,0,.213.069a.452.452,0,0,1-.01.248c-.057.172-.1.308-.128.407s-.071.242-.128.427l-1.964,7.1q-.641,2.322-1.089,4.009a30.117,30.117,0,0,0-.735,3.481.5.5,0,0,0,.149.4.541.541,0,0,0,.367.129.849.849,0,0,0,.4-.119,4.559,4.559,0,0,0,.533-.357l.354-.279c.113-.092.238-.2.377-.327s.307-.281.5-.467l1.3-1.27.477.417a21.036,21.036,0,0,1-3.407,3.583,4.194,4.194,0,0,1-2.447.943,1.4,1.4,0,0,1-1.162-.515,2.006,2.006,0,0,1-.407-1.287,11.351,11.351,0,0,1,.268-2.05q.268-1.336.526-2.248-.357.6-1.2,1.739a13.874,13.874,0,0,1-2.071,2.215,9.8,9.8,0,0,1-2.774,1.828,6.06,6.06,0,0,1-1.983.358,4.022,4.022,0,0,1-2.914-1.321,5.1,5.1,0,0,1-1.308-3.747q0-4.173,3.772-8.7,3.894-4.71,8.068-4.71A3.428,3.428,0,0,1,1418.177,446.592Zm-.644.754a2.164,2.164,0,0,0-1.6-.676q-3.27,0-6.077,4.97a15.976,15.976,0,0,0-2.468,7.533,3.293,3.293,0,0,0,.683,2.315,2.231,2.231,0,0,0,1.694.726q2.99,0,5.763-4.83a15.623,15.623,0,0,0,2.671-7.931A2.915,2.915,0,0,0,1417.533,447.346Z"/>
        <path id="Trazado_21601" data-name="Trazado 21601" d="M1424.746,449.851l.787-.012a3.521,3.521,0,0,0,1.238-.341,1.332,1.332,0,0,0,.637-.863l3.231-11.665c.053-.193.094-.357.122-.492a1.96,1.96,0,0,0,.04-.365.556.556,0,0,0-.266-.544,1.936,1.936,0,0,0-.845-.139l-1.134.058v-.359l.3-.046q.324-.059,1.718-.335t1.984-.406l.359-.081.22-.034.138.081c0,.046,0,.092-.005.139a.571.571,0,0,1-.03.138l-3.854,14.178c-.016.062-.029.123-.04.185a.97.97,0,0,0-.018.185.563.563,0,0,0,.417.6,7.269,7.269,0,0,0,1.609.162v.347h-6.608Z"/>
        <path id="Trazado_21602" data-name="Trazado 21602" d="M1441.256,434.667h1.157l-5.972,15.971h-1.157Z"/>
        <path id="Trazado_21603" data-name="Trazado 21603" d="M1442.465,450.244l1.981-7.152q.255-.908.295-1.1a1.92,1.92,0,0,0,.041-.412.718.718,0,0,0-.191-.53,1.067,1.067,0,0,0-.746-.192,2.225,2.225,0,0,0-.273.017l-.3.041v-.382q.747-.115,1.064-.174t.683-.138l2.058-.451a.23.23,0,0,1,.092.1l-1.534,4.976a27.475,27.475,0,0,1,2.377-3.217q1.679-1.863,3.006-1.863a1.875,1.875,0,0,1,.886.2,1.426,1.426,0,0,1,.71,1.377,3.043,3.043,0,0,1-.058.579c-.039.2-.089.416-.151.648l-1.522,5.544c-.032.115-.067.256-.1.422a1.775,1.775,0,0,0-.057.353.6.6,0,0,0,.081.313.274.274,0,0,0,.257.138,1.053,1.053,0,0,0,.666-.353,12.75,12.75,0,0,0,1.232-1.51l.336.3a14.167,14.167,0,0,1-1.476,1.805,2.64,2.64,0,0,1-1.781.915,1.248,1.248,0,0,1-.744-.261,1.093,1.093,0,0,1-.359-.943,3.257,3.257,0,0,1,.029-.417,2.717,2.717,0,0,1,.075-.381l1.478-5.625c.077-.309.128-.561.156-.758a3.762,3.762,0,0,0,.04-.423.852.852,0,0,0-.134-.48.523.523,0,0,0-.473-.2q-.881,0-2.215,1.572a19.743,19.743,0,0,0-1.594,2.232,11.276,11.276,0,0,0-.952,1.959q-.35.954-1.106,3.472Z"/>
        <path id="Trazado_21604" data-name="Trazado 21604" d="M1458.91,463.591a2.214,2.214,0,0,1-.655-1.605,2.16,2.16,0,0,1,.665-1.6,2.267,2.267,0,0,1,3.2,0,2.156,2.156,0,0,1,.665,1.6,2.21,2.21,0,0,1-.655,1.605,2.269,2.269,0,0,1-3.216,0Z"/>
        <path id="Trazado_21605" data-name="Trazado 21605" d="M1471.061,439.98a6.769,6.769,0,0,0,.168-.784,4.247,4.247,0,0,0,.049-.585,1.091,1.091,0,0,0-.129-.507.941.941,0,0,0-.605-.387,2.478,2.478,0,0,0-.467-.059q-.327-.02-1.419-.079v-.7q.639-.1,1.387-.179t2.026-.278q.139-.02,1.208-.258a8.077,8.077,0,0,1,1.527-.238.285.285,0,0,1,.189.079.3.3,0,0,1,.09.239l-.04.257-4.053,15.008a23.829,23.829,0,0,1,3.02-3.692,6.588,6.588,0,0,1,4.48-2.005,4.49,4.49,0,0,1,3.484,1.439,5.1,5.1,0,0,1,1.312,3.563q0,4.944-4.309,9.251-4.187,4.189-8.673,4.189a7.832,7.832,0,0,1-3.752-.913q-1.708-.894-1.569-1.43Zm6.023,18.78a13.849,13.849,0,0,0,2.75-7.524,3.608,3.608,0,0,0-.812-2.471,2.6,2.6,0,0,0-2.037-.923q-3.144,0-6.012,5.637-2.492,4.9-2.492,8.14a1.623,1.623,0,0,0,.495,1.24,2.217,2.217,0,0,0,1.562.467Q1474.039,463.326,1477.084,458.76Z"/>
        <path id="Trazado_21606" data-name="Trazado 21606" d="M1485.525,449.851l.788-.012a3.535,3.535,0,0,0,1.238-.341,1.339,1.339,0,0,0,.637-.863l3.23-11.665q.081-.289.122-.492a1.959,1.959,0,0,0,.04-.365.556.556,0,0,0-.266-.544,1.931,1.931,0,0,0-.844-.139l-1.135.058v-.359l.3-.046q.324-.059,1.718-.335t1.983-.406l.359-.081.22-.034.139.081c0,.046,0,.092-.006.139a.611.611,0,0,1-.029.138l-3.855,14.178c-.016.062-.028.123-.04.185a.97.97,0,0,0-.018.185.563.563,0,0,0,.417.6,7.277,7.277,0,0,0,1.609.162v.347h-6.608Z"/>
        <path id="Trazado_21607" data-name="Trazado 21607" d="M1502.034,434.667h1.157l-5.971,15.971h-1.157Z"/>
        <path id="Trazado_21608" data-name="Trazado 21608" d="M1503.243,450.244l1.982-7.152c.17-.605.267-.971.3-1.1a1.993,1.993,0,0,0,.041-.412.719.719,0,0,0-.192-.53,1.067,1.067,0,0,0-.746-.192,2.2,2.2,0,0,0-.272.017l-.295.041v-.382q.747-.115,1.063-.174c.21-.038.439-.084.684-.138l2.057-.451a.225.225,0,0,1,.092.1l-1.534,4.976a27.459,27.459,0,0,1,2.377-3.217q1.678-1.863,3.007-1.863a1.877,1.877,0,0,1,.886.2,1.427,1.427,0,0,1,.709,1.377,3.033,3.033,0,0,1-.058.579c-.038.2-.089.416-.151.648l-1.522,5.544c-.031.115-.066.256-.1.422a1.716,1.716,0,0,0-.058.353.6.6,0,0,0,.081.313.277.277,0,0,0,.258.138,1.058,1.058,0,0,0,.666-.353,12.777,12.777,0,0,0,1.231-1.51l.336.3a14.264,14.264,0,0,1-1.475,1.805,2.642,2.642,0,0,1-1.782.915,1.251,1.251,0,0,1-.744-.261,1.093,1.093,0,0,1-.358-.943,3.459,3.459,0,0,1,.028-.417,2.906,2.906,0,0,1,.075-.381l1.478-5.625a7.454,7.454,0,0,0,.156-.758,3.77,3.77,0,0,0,.04-.423.853.853,0,0,0-.134-.48.522.522,0,0,0-.472-.2q-.88,0-2.216,1.572a19.743,19.743,0,0,0-1.594,2.232,11.364,11.364,0,0,0-.952,1.959q-.348.954-1.1,3.472Z"/>
        <path id="Trazado_21609" data-name="Trazado 21609" d="M1519.689,463.591a2.214,2.214,0,0,1-.655-1.605,2.16,2.16,0,0,1,.665-1.6,2.268,2.268,0,0,1,3.2,0,2.16,2.16,0,0,1,.665,1.6,2.211,2.211,0,0,1-.656,1.605,2.269,2.269,0,0,1-3.216,0Z"/>
        <path id="Trazado_21610" data-name="Trazado 21610" d="M1541.029,446.944a3.108,3.108,0,0,1,1.073,2.116,1.834,1.834,0,0,1-1.867,1.958,1.746,1.746,0,0,1-1.23-.457,1.473,1.473,0,0,1-.5-1.131,2.331,2.331,0,0,1,.327-1.112,2.314,2.314,0,0,0,.328-.774.715.715,0,0,0-.407-.606,2.6,2.6,0,0,0-1.3-.248q-3.2,0-5.548,3.638a13.839,13.839,0,0,0-2.352,7.632,5.748,5.748,0,0,0,.953,3.518,3.343,3.343,0,0,0,2.858,1.272,5.6,5.6,0,0,0,2.968-.883,11.719,11.719,0,0,0,2.65-2.254l.139-.158.575.437a14.526,14.526,0,0,1-2.679,2.719,8.454,8.454,0,0,1-5.062,1.648,5.736,5.736,0,0,1-4.308-1.7,6.376,6.376,0,0,1-1.648-4.636,11.725,11.725,0,0,1,3.673-8.3q3.633-3.771,7.861-3.772A4.754,4.754,0,0,1,1541.029,446.944Z"/>
        <path id="Trazado_21611" data-name="Trazado 21611" d="M1544.021,449.851l.788-.012a3.534,3.534,0,0,0,1.238-.341,1.339,1.339,0,0,0,.637-.863l3.23-11.665q.081-.289.122-.492a1.88,1.88,0,0,0,.04-.365.557.557,0,0,0-.265-.544,1.936,1.936,0,0,0-.845-.139l-1.135.058v-.359l.3-.046q.324-.059,1.718-.335t1.983-.406l.359-.081.22-.034.139.081c0,.046,0,.092-.006.139a.618.618,0,0,1-.029.138l-3.855,14.178c-.015.062-.028.123-.04.185a.968.968,0,0,0-.017.185.562.562,0,0,0,.417.6,7.258,7.258,0,0,0,1.608.162v.347h-6.608Z"/>
        <path id="Trazado_21612" data-name="Trazado 21612" d="M1560.53,434.667h1.158l-5.972,15.971h-1.157Z"/>
        <path id="Trazado_21613" data-name="Trazado 21613" d="M1561.739,450.244l1.982-7.152c.17-.605.267-.971.3-1.1a1.993,1.993,0,0,0,.041-.412.719.719,0,0,0-.192-.53,1.067,1.067,0,0,0-.746-.192,2.209,2.209,0,0,0-.272.017l-.3.041v-.382q.747-.115,1.063-.174c.21-.038.439-.084.684-.138l2.057-.451a.225.225,0,0,1,.092.1l-1.534,4.976a27.487,27.487,0,0,1,2.377-3.217q1.679-1.863,3.007-1.863a1.874,1.874,0,0,1,.886.2,1.427,1.427,0,0,1,.71,1.377,3.038,3.038,0,0,1-.059.579c-.038.2-.089.416-.15.648l-1.523,5.544c-.031.115-.066.256-.1.422a1.8,1.8,0,0,0-.058.353.6.6,0,0,0,.081.313.277.277,0,0,0,.258.138,1.057,1.057,0,0,0,.666-.353,12.777,12.777,0,0,0,1.231-1.51l.336.3a14.277,14.277,0,0,1-1.475,1.805,2.64,2.64,0,0,1-1.782.915,1.252,1.252,0,0,1-.744-.261,1.092,1.092,0,0,1-.358-.943,3.459,3.459,0,0,1,.028-.417,2.884,2.884,0,0,1,.075-.381l1.478-5.625a7.454,7.454,0,0,0,.156-.758,3.519,3.519,0,0,0,.04-.423.853.853,0,0,0-.134-.48.521.521,0,0,0-.472-.2q-.881,0-2.216,1.572a19.9,19.9,0,0,0-1.594,2.232,11.436,11.436,0,0,0-.952,1.959q-.348.954-1.1,3.472Z"/>
        <path id="Trazado_21614" data-name="Trazado 21614" d="M1596.448,456.4l-.5,2.4h-20.387l.5-2.4Zm1.708-8.039-.5,2.4h-20.387l.5-2.4Z"/>
        <path id="Trazado_21615" data-name="Trazado 21615" d="M1601.025,450.244l1.982-7.152c.17-.605.267-.971.3-1.1a1.993,1.993,0,0,0,.041-.412.719.719,0,0,0-.192-.53,1.067,1.067,0,0,0-.746-.192,2.221,2.221,0,0,0-.272.017l-.3.041v-.382q.747-.115,1.063-.174c.21-.038.439-.084.684-.138l2.058-.451a.228.228,0,0,1,.091.1l-1.534,4.976a27.459,27.459,0,0,1,2.377-3.217q1.679-1.863,3.007-1.863a1.874,1.874,0,0,1,.886.2,1.427,1.427,0,0,1,.71,1.377,3.038,3.038,0,0,1-.059.579c-.038.2-.089.416-.15.648l-1.523,5.544c-.031.115-.066.256-.1.422a1.8,1.8,0,0,0-.058.353.611.611,0,0,0,.081.313.277.277,0,0,0,.258.138,1.058,1.058,0,0,0,.666-.353,12.777,12.777,0,0,0,1.231-1.51l.336.3a14.277,14.277,0,0,1-1.475,1.805,2.64,2.64,0,0,1-1.781.915,1.253,1.253,0,0,1-.745-.261,1.092,1.092,0,0,1-.358-.943,3.459,3.459,0,0,1,.028-.417,2.723,2.723,0,0,1,.076-.381l1.477-5.625a7.454,7.454,0,0,0,.156-.758,3.545,3.545,0,0,0,.04-.423.86.86,0,0,0-.133-.48.524.524,0,0,0-.473-.2q-.881,0-2.216,1.572a19.9,19.9,0,0,0-1.594,2.232,11.436,11.436,0,0,0-.952,1.959q-.348.954-1.1,3.472Z"/>
        <path id="Trazado_21616" data-name="Trazado 21616" d="M1623.347,464.537l-6.909-16.358-3.851,2.3-.575-1.191,6.839-4.09,5.863,13.884,12.528-33.12h1.549L1624.2,464.537Z"/>
        <path id="Trazado_21617" data-name="Trazado 21617" d="M1649.665,446.592a2.936,2.936,0,0,1,.723,1.152l.1.278.446-1.5a1.474,1.474,0,0,1,.141-.344.379.379,0,0,1,.283-.108l2.288-.256c.122,0,.192.023.212.069a.459.459,0,0,1-.009.248c-.058.172-.1.308-.128.407s-.072.242-.129.427l-1.964,7.1q-.641,2.322-1.089,4.009a29.976,29.976,0,0,0-.734,3.481.506.506,0,0,0,.148.4.543.543,0,0,0,.367.129.856.856,0,0,0,.4-.119,4.644,4.644,0,0,0,.532-.357l.354-.279c.113-.092.238-.2.377-.327s.307-.281.5-.467l1.3-1.27.477.417a21.078,21.078,0,0,1-3.406,3.583,4.2,4.2,0,0,1-2.448.943,1.4,1.4,0,0,1-1.162-.515,2.012,2.012,0,0,1-.407-1.287,11.271,11.271,0,0,1,.269-2.05q.267-1.336.525-2.248-.355.6-1.2,1.739a13.928,13.928,0,0,1-2.072,2.215,9.783,9.783,0,0,1-2.774,1.828,6.055,6.055,0,0,1-1.982.358,4.021,4.021,0,0,1-2.914-1.321,5.1,5.1,0,0,1-1.309-3.747q0-4.173,3.772-8.7,3.894-4.71,8.068-4.71A3.429,3.429,0,0,1,1649.665,446.592Zm-.644.754a2.164,2.164,0,0,0-1.6-.676q-3.27,0-6.077,4.97a15.976,15.976,0,0,0-2.468,7.533,3.293,3.293,0,0,0,.684,2.315,2.229,2.229,0,0,0,1.693.726q2.989,0,5.764-4.83a15.634,15.634,0,0,0,2.671-7.931A2.915,2.915,0,0,0,1649.021,447.346Z"/>
        <path id="Trazado_21618" data-name="Trazado 21618" d="M1660.111,463.591a2.214,2.214,0,0,1-.655-1.605,2.16,2.16,0,0,1,.665-1.6,2.267,2.267,0,0,1,3.2,0,2.157,2.157,0,0,1,.665,1.6,2.21,2.21,0,0,1-.655,1.605,2.269,2.269,0,0,1-3.216,0Z"/>
        <path id="Trazado_21619" data-name="Trazado 21619" d="M1665.681,450.244l1.981-7.152q.255-.908.3-1.1a1.993,1.993,0,0,0,.041-.412.719.719,0,0,0-.191-.53,1.067,1.067,0,0,0-.746-.192,2.227,2.227,0,0,0-.273.017l-.295.041v-.382q.747-.115,1.064-.174t.683-.138l2.058-.451a.23.23,0,0,1,.092.1l-1.535,4.976a27.685,27.685,0,0,1,2.377-3.217q1.68-1.863,3.007-1.863a1.875,1.875,0,0,1,.886.2,1.426,1.426,0,0,1,.71,1.377,3.047,3.047,0,0,1-.059.579c-.038.2-.088.416-.15.648l-1.522,5.544c-.032.115-.067.256-.1.422a1.788,1.788,0,0,0-.058.353.611.611,0,0,0,.081.313.277.277,0,0,0,.258.138,1.055,1.055,0,0,0,.666-.353,12.855,12.855,0,0,0,1.232-1.51l.336.3a14.251,14.251,0,0,1-1.476,1.805,2.64,2.64,0,0,1-1.781.915,1.248,1.248,0,0,1-.744-.261,1.09,1.09,0,0,1-.359-.943,3.256,3.256,0,0,1,.029-.417,2.734,2.734,0,0,1,.075-.381l1.477-5.625a7.5,7.5,0,0,0,.157-.758,3.77,3.77,0,0,0,.04-.423.853.853,0,0,0-.134-.48.523.523,0,0,0-.473-.2q-.88,0-2.216,1.572a19.9,19.9,0,0,0-1.593,2.232,11.372,11.372,0,0,0-.953,1.959q-.348.954-1.1,3.472Z"/>
        <path id="Trazado_21620" data-name="Trazado 21620" d="M1688,464.537l-6.908-16.358-3.852,2.3-.575-1.191,6.839-4.09,5.863,13.884,12.528-33.12h1.549l-14.591,38.572Z"/>
        <path id="Trazado_21621" data-name="Trazado 21621" d="M1706.426,439.98a6.546,6.546,0,0,0,.168-.784,4.27,4.27,0,0,0,.05-.585,1.092,1.092,0,0,0-.129-.507.941.941,0,0,0-.606-.387,2.481,2.481,0,0,0-.467-.059c-.217-.013-.691-.04-1.419-.079v-.7q.639-.1,1.387-.179t2.027-.278q.138-.02,1.208-.258a8.059,8.059,0,0,1,1.526-.238.285.285,0,0,1,.189.079.3.3,0,0,1,.09.239l-.04.257-4.053,15.008a23.823,23.823,0,0,1,3.02-3.692,6.588,6.588,0,0,1,4.48-2.005,4.489,4.489,0,0,1,3.484,1.439,5.1,5.1,0,0,1,1.312,3.563q0,4.944-4.308,9.251-4.188,4.189-8.674,4.189a7.838,7.838,0,0,1-3.752-.913q-1.708-.894-1.568-1.43Zm6.023,18.78a13.849,13.849,0,0,0,2.75-7.524,3.607,3.607,0,0,0-.811-2.471,2.6,2.6,0,0,0-2.037-.923q-3.145,0-6.013,5.637-2.492,4.9-2.491,8.14a1.623,1.623,0,0,0,.494,1.24,2.217,2.217,0,0,0,1.562.467Q1709.4,463.326,1712.449,458.76Z"/>
        <path id="Trazado_21622" data-name="Trazado 21622" d="M1724.767,463.591a2.211,2.211,0,0,1-.656-1.605,2.16,2.16,0,0,1,.665-1.6,2.268,2.268,0,0,1,3.2,0,2.16,2.16,0,0,1,.665,1.6,2.211,2.211,0,0,1-.656,1.605,2.268,2.268,0,0,1-3.215,0Z"/>
        <path id="Trazado_21623" data-name="Trazado 21623" d="M1730.336,450.244l1.981-7.152q.255-.908.3-1.1a1.928,1.928,0,0,0,.041-.412.719.719,0,0,0-.191-.53,1.067,1.067,0,0,0-.746-.192,2.226,2.226,0,0,0-.273.017l-.3.041v-.382q.747-.115,1.064-.174t.684-.138l2.057-.451a.23.23,0,0,1,.092.1l-1.534,4.976a27.475,27.475,0,0,1,2.377-3.217q1.679-1.863,3.007-1.863a1.874,1.874,0,0,1,.885.2,1.426,1.426,0,0,1,.71,1.377,3.043,3.043,0,0,1-.058.579c-.038.2-.089.416-.151.648l-1.522,5.544c-.031.115-.067.256-.1.422a1.766,1.766,0,0,0-.057.353.6.6,0,0,0,.081.313.275.275,0,0,0,.258.138,1.058,1.058,0,0,0,.666-.353,12.777,12.777,0,0,0,1.231-1.51l.336.3a14.167,14.167,0,0,1-1.476,1.805,2.64,2.64,0,0,1-1.781.915,1.248,1.248,0,0,1-.744-.261,1.092,1.092,0,0,1-.358-.943,3.248,3.248,0,0,1,.028-.417,2.753,2.753,0,0,1,.075-.381l1.478-5.625a7.454,7.454,0,0,0,.156-.758,3.77,3.77,0,0,0,.04-.423.853.853,0,0,0-.134-.48.523.523,0,0,0-.473-.2q-.879,0-2.215,1.572a19.743,19.743,0,0,0-1.594,2.232,11.346,11.346,0,0,0-.952,1.959q-.35.954-1.106,3.472Z"/>
        <path id="Trazado_21624" data-name="Trazado 21624" d="M1752.658,464.537l-6.908-16.358-3.852,2.3-.575-1.191,6.839-4.09,5.863,13.884,12.529-33.12h1.549l-14.591,38.572Z"/>
        <path id="Trazado_21625" data-name="Trazado 21625" d="M1780.271,446.944a3.111,3.111,0,0,1,1.072,2.116,1.834,1.834,0,0,1-1.866,1.958,1.748,1.748,0,0,1-1.231-.457,1.473,1.473,0,0,1-.5-1.131,2.331,2.331,0,0,1,.327-1.112,2.315,2.315,0,0,0,.328-.774.713.713,0,0,0-.407-.606,2.6,2.6,0,0,0-1.3-.248q-3.2,0-5.548,3.638a13.839,13.839,0,0,0-2.352,7.632,5.748,5.748,0,0,0,.953,3.518,3.343,3.343,0,0,0,2.858,1.272,5.6,5.6,0,0,0,2.968-.883,11.747,11.747,0,0,0,2.651-2.254l.138-.158.575.437a14.493,14.493,0,0,1-2.679,2.719,8.454,8.454,0,0,1-5.062,1.648,5.732,5.732,0,0,1-4.307-1.7,6.372,6.372,0,0,1-1.649-4.636,11.724,11.724,0,0,1,3.673-8.3q3.633-3.771,7.861-3.772A4.754,4.754,0,0,1,1780.271,446.944Z"/>
      </g>
      <g id="Grupo_13950" data-name="Grupo 13950">
        <path id="Trazado_21626" data-name="Trazado 21626" d="M1175.038,427.928h-76.275l1.1-1.9h76.275Z"/>
      </g>
      <g id="Grupo_13951" data-name="Grupo 13951">
        <path id="Trazado_21627" data-name="Trazado 21627" d="M1661.8,427.852h-25.251l1.1-1.9h25.251Z"/>
      </g>
      <g id="Grupo_13952" data-name="Grupo 13952">
        <path id="Trazado_21628" data-name="Trazado 21628" d="M1726.429,427.852h-25.251l1.1-1.9h25.251Z"/>
      </g>
      <g id="Grupo_13953" data-name="Grupo 13953">
        <path id="Trazado_21629" data-name="Trazado 21629" d="M1791.271,427.852H1766.02l1.1-1.9h25.251Z"/>
      </g>
    </g>
    <g id="Grupo_13971" data-name="Grupo 13971">
      <g id="Grupo_13955" data-name="Grupo 13955">
        <path id="Trazado_21630" data-name="Trazado 21630" d="M1070.6,586.573l1.981-7.153q.255-.907.3-1.1a2,2,0,0,0,.041-.413.718.718,0,0,0-.191-.529,1.067,1.067,0,0,0-.746-.192,2.049,2.049,0,0,0-.273.017l-.295.04v-.381c.5-.078.853-.135,1.064-.174s.438-.085.683-.139l2.058-.451a.235.235,0,0,1,.092.1l-1.534,4.976a27.55,27.55,0,0,1,2.377-3.217q1.679-1.863,3.006-1.863a1.863,1.863,0,0,1,.886.2,1.424,1.424,0,0,1,.71,1.377,2.942,2.942,0,0,1-.059.578q-.057.3-.15.648l-1.522,5.544c-.032.116-.067.256-.1.422a1.765,1.765,0,0,0-.057.353.6.6,0,0,0,.081.313.275.275,0,0,0,.257.139,1.06,1.06,0,0,0,.666-.353,12.882,12.882,0,0,0,1.232-1.511l.336.3a14.208,14.208,0,0,1-1.476,1.806,2.642,2.642,0,0,1-1.781.914,1.253,1.253,0,0,1-.744-.26,1.1,1.1,0,0,1-.359-.944,3.252,3.252,0,0,1,.029-.416,2.75,2.75,0,0,1,.075-.382l1.477-5.625a7.444,7.444,0,0,0,.157-.758,3.759,3.759,0,0,0,.04-.422.858.858,0,0,0-.134-.481.525.525,0,0,0-.473-.2q-.88,0-2.216,1.572a19.993,19.993,0,0,0-1.593,2.232,11.3,11.3,0,0,0-.952,1.96q-.349.954-1.106,3.472Z"/>
      </g>
      <g id="Grupo_13956" data-name="Grupo 13956">
        <path id="Trazado_21631" data-name="Trazado 21631" d="M1073.737,621.783l-6.908-16.358-3.851,2.3-.576-1.191,6.839-4.09,5.863,13.884,33.011-89.126h1.548l-35.072,94.578Z"/>
      </g>
      <g id="Grupo_13957" data-name="Grupo 13957">
        <path id="Trazado_21632" data-name="Trazado 21632" d="M1121.042,547.766a2.945,2.945,0,0,1,.723,1.152l.1.278.446-1.5a1.464,1.464,0,0,1,.141-.344.379.379,0,0,1,.283-.108l2.287-.256c.123,0,.193.023.213.07a.458.458,0,0,1-.009.248c-.058.171-.1.307-.128.406s-.072.242-.129.427l-1.964,7.1q-.641,2.322-1.089,4.009a30,30,0,0,0-.734,3.48.507.507,0,0,0,.148.407.542.542,0,0,0,.367.128.846.846,0,0,0,.4-.12,4.489,4.489,0,0,0,.532-.356l.354-.278c.113-.093.238-.2.377-.327s.307-.282.5-.467l1.3-1.271.477.417a21.089,21.089,0,0,1-3.406,3.583,4.2,4.2,0,0,1-2.448.943,1.4,1.4,0,0,1-1.162-.515,2.014,2.014,0,0,1-.407-1.287,11.292,11.292,0,0,1,.269-2.05q.267-1.336.525-2.248-.356.6-1.2,1.739a13.933,13.933,0,0,1-2.072,2.215,9.762,9.762,0,0,1-2.774,1.828,6.06,6.06,0,0,1-1.982.358,4.018,4.018,0,0,1-2.914-1.322,5.094,5.094,0,0,1-1.309-3.746q0-4.173,3.772-8.7,3.894-4.71,8.068-4.71A3.428,3.428,0,0,1,1121.042,547.766Zm-.644.755a2.161,2.161,0,0,0-1.6-.676q-3.27,0-6.077,4.968a15.983,15.983,0,0,0-2.468,7.534,3.293,3.293,0,0,0,.684,2.315,2.229,2.229,0,0,0,1.693.726q2.99,0,5.764-4.83a15.634,15.634,0,0,0,2.671-7.931A2.911,2.911,0,0,0,1120.4,548.521Z"/>
        <path id="Trazado_21633" data-name="Trazado 21633" d="M1202.353,547.766a2.953,2.953,0,0,1,.722,1.152l.1.278.445-1.5a1.51,1.51,0,0,1,.142-.344.378.378,0,0,1,.283-.108l2.287-.256c.122,0,.192.023.213.07a.463.463,0,0,1-.01.248c-.057.171-.1.307-.128.406s-.071.242-.129.427l-1.964,7.1q-.639,2.322-1.088,4.009a29.868,29.868,0,0,0-.735,3.48.508.508,0,0,0,.149.407.539.539,0,0,0,.367.128.84.84,0,0,0,.4-.12,4.41,4.41,0,0,0,.533-.356l.354-.278c.112-.093.237-.2.377-.327s.307-.282.5-.467l1.3-1.271.476.417a21.041,21.041,0,0,1-3.406,3.583,4.194,4.194,0,0,1-2.447.943,1.4,1.4,0,0,1-1.162-.515,2.008,2.008,0,0,1-.407-1.287,11.269,11.269,0,0,1,.268-2.05q.269-1.336.525-2.248-.355.6-1.2,1.739a13.919,13.919,0,0,1-2.071,2.215,9.789,9.789,0,0,1-2.774,1.828,6.061,6.061,0,0,1-1.983.358,4.02,4.02,0,0,1-2.914-1.322,5.1,5.1,0,0,1-1.309-3.746q0-4.173,3.773-8.7,3.894-4.71,8.067-4.71A3.431,3.431,0,0,1,1202.353,547.766Zm-.644.755a2.162,2.162,0,0,0-1.6-.676q-3.27,0-6.078,4.968a15.991,15.991,0,0,0-2.467,7.534,3.294,3.294,0,0,0,.683,2.315,2.231,2.231,0,0,0,1.694.726q2.989,0,5.763-4.83a15.634,15.634,0,0,0,2.671-7.931A2.915,2.915,0,0,0,1201.709,548.521Z"/>
        <path id="Trazado_21634" data-name="Trazado 21634" d="M1229.251,551.024l.787-.011a3.522,3.522,0,0,0,1.238-.341,1.33,1.33,0,0,0,.637-.862l3.231-11.666c.053-.193.094-.357.122-.493a1.941,1.941,0,0,0,.04-.364.555.555,0,0,0-.266-.544,1.922,1.922,0,0,0-.845-.139l-1.134.058V536.3l.3-.046q.324-.059,1.718-.336t1.984-.405l.359-.081.22-.035.138.081c0,.047,0,.093-.006.14a.525.525,0,0,1-.029.138l-3.854,14.178c-.016.062-.029.124-.04.185a.972.972,0,0,0-.018.186.562.562,0,0,0,.417.6,7.259,7.259,0,0,0,1.608.162v.347h-6.607Z"/>
        <path id="Trazado_21635" data-name="Trazado 21635" d="M1245.76,535.84h1.157l-5.972,15.972h-1.157Z"/>
        <path id="Trazado_21636" data-name="Trazado 21636" d="M1246.969,551.418l1.981-7.152q.255-.907.3-1.1a2,2,0,0,0,.041-.412.716.716,0,0,0-.191-.529,1.066,1.066,0,0,0-.746-.193,2.046,2.046,0,0,0-.273.018l-.3.04v-.382q.747-.116,1.064-.174t.683-.138l2.058-.452a.238.238,0,0,1,.092.105l-1.534,4.976a27.476,27.476,0,0,1,2.377-3.217q1.679-1.864,3.006-1.864a1.862,1.862,0,0,1,.886.2,1.423,1.423,0,0,1,.71,1.377,2.958,2.958,0,0,1-.059.578q-.057.3-.15.648l-1.522,5.544c-.032.115-.067.256-.1.422a1.8,1.8,0,0,0-.058.353.6.6,0,0,0,.082.313.275.275,0,0,0,.257.139,1.057,1.057,0,0,0,.666-.354,12.85,12.85,0,0,0,1.232-1.51l.336.3a14.287,14.287,0,0,1-1.476,1.806,2.642,2.642,0,0,1-1.781.914,1.248,1.248,0,0,1-.744-.261,1.091,1.091,0,0,1-.359-.943,3.251,3.251,0,0,1,.029-.416,2.721,2.721,0,0,1,.075-.382l1.477-5.625a7.6,7.6,0,0,0,.157-.758,3.762,3.762,0,0,0,.04-.423.857.857,0,0,0-.134-.48.523.523,0,0,0-.473-.2q-.881,0-2.216,1.572a19.969,19.969,0,0,0-1.593,2.231,11.323,11.323,0,0,0-.952,1.96q-.35.954-1.106,3.472Z"/>
        <path id="Trazado_21637" data-name="Trazado 21637" d="M1302.923,547.766a2.955,2.955,0,0,1,.723,1.152l.1.278.445-1.5a1.5,1.5,0,0,1,.142-.344.38.38,0,0,1,.283-.108l2.287-.256c.122,0,.193.023.213.07a.45.45,0,0,1-.01.248c-.057.171-.1.307-.127.406s-.072.242-.129.427l-1.964,7.1q-.641,2.322-1.089,4.009a30,30,0,0,0-.734,3.48.507.507,0,0,0,.148.407.542.542,0,0,0,.367.128.846.846,0,0,0,.4-.12,4.5,4.5,0,0,0,.532-.356l.354-.278c.113-.093.238-.2.377-.327s.307-.282.5-.467l1.3-1.271.477.417a21.047,21.047,0,0,1-3.407,3.583,4.192,4.192,0,0,1-2.447.943,1.4,1.4,0,0,1-1.162-.515,2.014,2.014,0,0,1-.407-1.287,11.361,11.361,0,0,1,.268-2.05q.268-1.336.526-2.248-.357.6-1.2,1.739a13.933,13.933,0,0,1-2.072,2.215,9.776,9.776,0,0,1-2.774,1.828,6.061,6.061,0,0,1-1.983.358,4.02,4.02,0,0,1-2.914-1.322,5.1,5.1,0,0,1-1.308-3.746q0-4.173,3.772-8.7,3.894-4.71,8.068-4.71A3.428,3.428,0,0,1,1302.923,547.766Zm-.644.755a2.161,2.161,0,0,0-1.605-.676q-3.27,0-6.077,4.968a15.983,15.983,0,0,0-2.468,7.534,3.288,3.288,0,0,0,.684,2.315,2.229,2.229,0,0,0,1.693.726q2.99,0,5.764-4.83a15.631,15.631,0,0,0,2.67-7.931A2.911,2.911,0,0,0,1302.279,548.521Z"/>
        <path id="Trazado_21638" data-name="Trazado 21638" d="M1309.493,551.024l.787-.011a3.535,3.535,0,0,0,1.239-.341,1.333,1.333,0,0,0,.636-.862l3.231-11.666q.079-.289.122-.493a1.94,1.94,0,0,0,.04-.364.555.555,0,0,0-.266-.544,1.92,1.92,0,0,0-.844-.139l-1.135.058V536.3l.3-.046q.322-.059,1.717-.336t1.984-.405l.359-.081.22-.035.138.081c0,.047,0,.093-.005.14a.57.57,0,0,1-.03.138l-3.854,14.178c-.016.062-.029.124-.04.185a.972.972,0,0,0-.018.186.562.562,0,0,0,.417.6,7.28,7.28,0,0,0,1.609.162v.347h-6.608Z"/>
        <path id="Trazado_21639" data-name="Trazado 21639" d="M1326,535.84h1.157l-5.972,15.972h-1.157Z"/>
        <path id="Trazado_21640" data-name="Trazado 21640" d="M1327.212,551.418l1.981-7.152q.255-.907.3-1.1a1.934,1.934,0,0,0,.041-.412.717.717,0,0,0-.191-.529,1.066,1.066,0,0,0-.746-.193,2.048,2.048,0,0,0-.273.018l-.295.04v-.382q.747-.116,1.064-.174t.683-.138l2.058-.452a.237.237,0,0,1,.092.105l-1.534,4.976a27.46,27.46,0,0,1,2.377-3.217q1.679-1.864,3.007-1.864a1.861,1.861,0,0,1,.885.2,1.423,1.423,0,0,1,.71,1.377,3.031,3.031,0,0,1-.058.578c-.038.2-.089.417-.151.648l-1.522,5.544c-.031.115-.067.256-.1.422a1.765,1.765,0,0,0-.057.353.6.6,0,0,0,.081.313.276.276,0,0,0,.258.139,1.06,1.06,0,0,0,.666-.354,12.874,12.874,0,0,0,1.231-1.51l.336.3a14.189,14.189,0,0,1-1.476,1.806,2.642,2.642,0,0,1-1.781.914,1.248,1.248,0,0,1-.744-.261,1.091,1.091,0,0,1-.358-.943,3.221,3.221,0,0,1,.028-.416,2.74,2.74,0,0,1,.075-.382l1.478-5.625a7.51,7.51,0,0,0,.156-.758,3.77,3.77,0,0,0,.04-.423.857.857,0,0,0-.134-.48.523.523,0,0,0-.473-.2q-.879,0-2.215,1.572a19.827,19.827,0,0,0-1.594,2.231,11.4,11.4,0,0,0-.952,1.96q-.349.954-1.106,3.472Z"/>
        <path id="Trazado_21641" data-name="Trazado 21641" d="M1374.616,551.418l1.982-7.152c.17-.6.267-.971.295-1.1a1.991,1.991,0,0,0,.041-.412.717.717,0,0,0-.192-.529,1.066,1.066,0,0,0-.746-.193,2.032,2.032,0,0,0-.272.018l-.3.04v-.382q.747-.116,1.063-.174c.21-.038.439-.084.684-.138l2.057-.452a.23.23,0,0,1,.092.105l-1.534,4.976a27.476,27.476,0,0,1,2.377-3.217q1.679-1.864,3.007-1.864a1.863,1.863,0,0,1,.886.2,1.424,1.424,0,0,1,.71,1.377,3.044,3.044,0,0,1-.059.578c-.038.2-.089.417-.15.648l-1.523,5.544c-.031.115-.066.256-.1.422a1.791,1.791,0,0,0-.058.353.6.6,0,0,0,.081.313.278.278,0,0,0,.258.139,1.06,1.06,0,0,0,.666-.354,12.769,12.769,0,0,0,1.231-1.51l.336.3a14.289,14.289,0,0,1-1.475,1.806,2.642,2.642,0,0,1-1.782.914,1.252,1.252,0,0,1-.744-.261,1.091,1.091,0,0,1-.358-.943,3.406,3.406,0,0,1,.028-.416,2.852,2.852,0,0,1,.075-.382l1.478-5.625a7.51,7.51,0,0,0,.156-.758,3.538,3.538,0,0,0,.04-.423.857.857,0,0,0-.134-.48.521.521,0,0,0-.472-.2q-.881,0-2.216,1.572a19.811,19.811,0,0,0-1.594,2.231,11.387,11.387,0,0,0-.952,1.96q-.348.954-1.1,3.472Z"/>
        <path id="Trazado_21642" data-name="Trazado 21642" d="M1396.938,565.711l-6.909-16.357-3.851,2.3-.575-1.191,6.838-4.09,5.864,13.884,12.528-33.12h1.549l-14.591,38.572Z"/>
        <path id="Trazado_21643" data-name="Trazado 21643" d="M1423.256,547.766a2.955,2.955,0,0,1,.723,1.152l.1.278.445-1.5a1.5,1.5,0,0,1,.142-.344.38.38,0,0,1,.283-.108l2.287-.256c.122,0,.193.023.213.07a.452.452,0,0,1-.01.248c-.057.171-.1.307-.127.406s-.072.242-.129.427l-1.964,7.1q-.641,2.322-1.089,4.009a30,30,0,0,0-.734,3.48.507.507,0,0,0,.148.407.542.542,0,0,0,.367.128.846.846,0,0,0,.4-.12,4.489,4.489,0,0,0,.532-.356l.354-.278c.113-.093.238-.2.377-.327s.307-.282.5-.467l1.3-1.271.477.417a21.042,21.042,0,0,1-3.407,3.583,4.192,4.192,0,0,1-2.447.943,1.4,1.4,0,0,1-1.162-.515,2.014,2.014,0,0,1-.407-1.287,11.361,11.361,0,0,1,.268-2.05q.268-1.336.526-2.248-.357.6-1.2,1.739a13.933,13.933,0,0,1-2.072,2.215,9.776,9.776,0,0,1-2.774,1.828,6.061,6.061,0,0,1-1.983.358,4.02,4.02,0,0,1-2.914-1.322,5.1,5.1,0,0,1-1.308-3.746q0-4.173,3.772-8.7,3.894-4.71,8.068-4.71A3.428,3.428,0,0,1,1423.256,547.766Zm-.644.755a2.161,2.161,0,0,0-1.605-.676q-3.27,0-6.077,4.968a15.983,15.983,0,0,0-2.468,7.534,3.288,3.288,0,0,0,.684,2.315,2.229,2.229,0,0,0,1.693.726q2.99,0,5.764-4.83a15.631,15.631,0,0,0,2.67-7.931A2.911,2.911,0,0,0,1422.612,548.521Z"/>
      </g>
      <g id="Grupo_13958" data-name="Grupo 13958">
        <path id="Trazado_21644" data-name="Trazado 21644" d="M1144.405,529.1h-36.59l1.1-1.9h36.59Z"/>
      </g>
      <g id="Grupo_13959" data-name="Grupo 13959">
        <path id="Trazado_21645" data-name="Trazado 21645" d="M1447.33,529.06h-36.59l1.1-1.9h36.59Z"/>
      </g>
      <g id="Grupo_13960" data-name="Grupo 13960">
        <path id="Trazado_21646" data-name="Trazado 21646" d="M1447.33,581.769h-36.055l.756-1.9h36.395Z"/>
      </g>
      <g id="Grupo_13961" data-name="Grupo 13961">
        <path id="Trazado_21647" data-name="Trazado 21647" d="M1113.147,593.871a6.336,6.336,0,0,0,.168-.784,4.125,4.125,0,0,0,.05-.585,1.09,1.09,0,0,0-.129-.507.941.941,0,0,0-.6-.387,2.567,2.567,0,0,0-.467-.059q-.327-.02-1.419-.079v-.7q.639-.1,1.387-.178t2.026-.278q.14-.02,1.208-.258a8.1,8.1,0,0,1,1.527-.239.288.288,0,0,1,.189.08.3.3,0,0,1,.09.239l-.04.257-4.053,15.008a23.819,23.819,0,0,1,3.02-3.692,6.588,6.588,0,0,1,4.48-2.005,4.493,4.493,0,0,1,3.484,1.438,5.1,5.1,0,0,1,1.312,3.564q0,4.944-4.309,9.251-4.188,4.19-8.673,4.188a7.821,7.821,0,0,1-3.752-.913q-1.709-.893-1.569-1.429Zm6.024,18.779a13.849,13.849,0,0,0,2.75-7.523,3.612,3.612,0,0,0-.812-2.472,2.6,2.6,0,0,0-2.037-.923q-3.144,0-6.012,5.638-2.493,4.905-2.492,8.14a1.621,1.621,0,0,0,.495,1.24,2.212,2.212,0,0,0,1.562.467Q1116.126,617.217,1119.171,612.65Z"/>
        <path id="Trazado_21648" data-name="Trazado 21648" d="M1194.458,593.871a6.544,6.544,0,0,0,.168-.784,4.275,4.275,0,0,0,.05-.585,1.09,1.09,0,0,0-.129-.507.94.94,0,0,0-.606-.387,2.555,2.555,0,0,0-.466-.059c-.218-.013-.692-.04-1.419-.079v-.7q.637-.1,1.386-.178t2.027-.278q.14-.02,1.208-.258a8.1,8.1,0,0,1,1.526-.239.288.288,0,0,1,.19.08.3.3,0,0,1,.089.239l-.04.257-4.052,15.008a23.761,23.761,0,0,1,3.019-3.692,6.59,6.59,0,0,1,4.481-2.005,4.491,4.491,0,0,1,3.483,1.438,5.1,5.1,0,0,1,1.313,3.564q0,4.944-4.309,9.251-4.188,4.19-8.674,4.188a7.826,7.826,0,0,1-3.752-.913q-1.707-.893-1.568-1.429Zm6.023,18.779a13.849,13.849,0,0,0,2.75-7.523,3.611,3.611,0,0,0-.811-2.472,2.6,2.6,0,0,0-2.037-.923q-3.146,0-6.013,5.638-2.492,4.905-2.491,8.14a1.624,1.624,0,0,0,.494,1.24,2.214,2.214,0,0,0,1.563.467Q1197.437,617.217,1200.481,612.65Z"/>
        <path id="Trazado_21649" data-name="Trazado 21649" d="M1296.057,593.871a6.741,6.741,0,0,0,.168-.784,4.254,4.254,0,0,0,.049-.585,1.1,1.1,0,0,0-.128-.507.943.943,0,0,0-.606-.387,2.568,2.568,0,0,0-.467-.059q-.327-.02-1.419-.079v-.7q.639-.1,1.387-.178t2.026-.278q.14-.02,1.208-.258a8.1,8.1,0,0,1,1.527-.239.286.286,0,0,1,.189.08.3.3,0,0,1,.09.239l-.04.257-4.053,15.008a23.812,23.812,0,0,1,3.02-3.692,6.588,6.588,0,0,1,4.48-2.005,4.492,4.492,0,0,1,3.484,1.438,5.1,5.1,0,0,1,1.312,3.564q0,4.944-4.308,9.251-4.188,4.19-8.674,4.188a7.824,7.824,0,0,1-3.752-.913q-1.709-.893-1.569-1.429Zm6.023,18.779a13.849,13.849,0,0,0,2.75-7.523,3.611,3.611,0,0,0-.811-2.472,2.6,2.6,0,0,0-2.038-.923q-3.144,0-6.012,5.638-2.492,4.905-2.491,8.14a1.624,1.624,0,0,0,.494,1.24,2.212,2.212,0,0,0,1.562.467Q1299.035,617.217,1302.08,612.65Z"/>
        <path id="Trazado_21650" data-name="Trazado 21650" d="M1310.521,603.741l.787-.012a3.514,3.514,0,0,0,1.238-.34,1.336,1.336,0,0,0,.637-.863l3.23-11.666q.081-.288.122-.492a1.87,1.87,0,0,0,.04-.364.558.558,0,0,0-.265-.544,1.922,1.922,0,0,0-.845-.139l-1.135.058v-.358l.3-.047c.216-.038.788-.151,1.718-.335s1.59-.321,1.983-.406l.359-.081.22-.035.139.081c0,.047,0,.093-.006.14a.632.632,0,0,1-.029.139l-3.855,14.176c-.015.063-.028.124-.04.186a.961.961,0,0,0-.017.185.562.562,0,0,0,.417.6,7.257,7.257,0,0,0,1.608.162v.347h-6.607Z"/>
        <path id="Trazado_21651" data-name="Trazado 21651" d="M1327.03,588.558h1.158l-5.972,15.97h-1.157Z"/>
        <path id="Trazado_21652" data-name="Trazado 21652" d="M1328.239,604.135l1.982-7.153c.17-.6.267-.97.3-1.1a2,2,0,0,0,.041-.412.719.719,0,0,0-.192-.53,1.067,1.067,0,0,0-.746-.192,2.021,2.021,0,0,0-.272.018c-.089.011-.188.025-.3.04v-.382q.747-.115,1.063-.174c.21-.038.439-.084.684-.139l2.057-.451a.231.231,0,0,1,.092.1l-1.534,4.976a27.606,27.606,0,0,1,2.377-3.218q1.679-1.863,3.007-1.863a1.875,1.875,0,0,1,.886.2,1.425,1.425,0,0,1,.71,1.377,3.019,3.019,0,0,1-.059.578c-.038.2-.089.417-.15.649l-1.523,5.544c-.031.115-.066.256-.1.422a1.8,1.8,0,0,0-.058.353.6.6,0,0,0,.081.313.277.277,0,0,0,.258.138,1.058,1.058,0,0,0,.666-.353,12.783,12.783,0,0,0,1.231-1.51l.336.3a14.38,14.38,0,0,1-1.475,1.806,2.642,2.642,0,0,1-1.782.914,1.253,1.253,0,0,1-.744-.261,1.091,1.091,0,0,1-.358-.943,3.429,3.429,0,0,1,.028-.416,2.869,2.869,0,0,1,.075-.382l1.478-5.625a7.51,7.51,0,0,0,.156-.758,3.519,3.519,0,0,0,.04-.423.852.852,0,0,0-.134-.48.521.521,0,0,0-.472-.2q-.881,0-2.216,1.573a19.973,19.973,0,0,0-1.594,2.231,11.443,11.443,0,0,0-.952,1.96q-.348.954-1.1,3.472Z"/>
        <path id="Trazado_21653" data-name="Trazado 21653" d="M1375.644,604.135l1.981-7.153q.255-.906.3-1.1a2,2,0,0,0,.041-.412.723.723,0,0,0-.191-.53,1.069,1.069,0,0,0-.747-.192,2.034,2.034,0,0,0-.272.018c-.089.011-.188.025-.295.04v-.382q.747-.115,1.064-.174c.209-.038.438-.084.683-.139l2.058-.451a.237.237,0,0,1,.092.1l-1.535,4.976a27.822,27.822,0,0,1,2.377-3.218q1.679-1.863,3.007-1.863a1.875,1.875,0,0,1,.886.2,1.424,1.424,0,0,1,.71,1.377,3.029,3.029,0,0,1-.059.578c-.038.2-.089.417-.15.649l-1.523,5.544c-.031.115-.066.256-.1.422a1.788,1.788,0,0,0-.058.353.614.614,0,0,0,.081.313.277.277,0,0,0,.258.138,1.056,1.056,0,0,0,.666-.353,12.861,12.861,0,0,0,1.232-1.51l.336.3a14.453,14.453,0,0,1-1.476,1.806,2.642,2.642,0,0,1-1.781.914,1.249,1.249,0,0,1-.744-.261,1.089,1.089,0,0,1-.359-.943,3.229,3.229,0,0,1,.029-.416,2.588,2.588,0,0,1,.075-.382l1.477-5.625a7.51,7.51,0,0,0,.156-.758,3.6,3.6,0,0,0,.041-.423.852.852,0,0,0-.134-.48.523.523,0,0,0-.473-.2q-.88,0-2.216,1.573a19.943,19.943,0,0,0-1.593,2.231,11.37,11.37,0,0,0-.953,1.96q-.348.954-1.1,3.472Z"/>
        <path id="Trazado_21654" data-name="Trazado 21654" d="M1397.965,618.428l-6.908-16.358-3.852,2.3-.575-1.191,6.839-4.09,5.863,13.884,12.528-33.12h1.549l-14.591,38.572Z"/>
        <path id="Trazado_21655" data-name="Trazado 21655" d="M1416.389,593.871a6.766,6.766,0,0,0,.168-.784,4.271,4.271,0,0,0,.049-.585,1.1,1.1,0,0,0-.128-.507.944.944,0,0,0-.606-.387,2.565,2.565,0,0,0-.467-.059c-.217-.013-.691-.04-1.419-.079v-.7q.639-.1,1.387-.178t2.026-.278q.139-.02,1.208-.258a8.1,8.1,0,0,1,1.527-.239.286.286,0,0,1,.189.08.3.3,0,0,1,.09.239l-.04.257-4.053,15.008a23.826,23.826,0,0,1,3.02-3.692,6.588,6.588,0,0,1,4.48-2.005,4.492,4.492,0,0,1,3.484,1.438,5.1,5.1,0,0,1,1.312,3.564q0,4.944-4.308,9.251-4.188,4.19-8.674,4.188a7.827,7.827,0,0,1-3.752-.913q-1.708-.893-1.569-1.429Zm6.023,18.779a13.849,13.849,0,0,0,2.75-7.523,3.611,3.611,0,0,0-.811-2.472,2.6,2.6,0,0,0-2.038-.923q-3.144,0-6.012,5.638-2.492,4.905-2.491,8.14a1.624,1.624,0,0,0,.494,1.24,2.212,2.212,0,0,0,1.562.467Q1419.367,617.217,1422.412,612.65Z"/>
      </g>
      <g id="Grupo_13962" data-name="Grupo 13962">
        <rect id="Rectángulo_3380" data-name="Rectángulo 3380" width="38.526" height="1.605" transform="translate(1097.734 575.539)"/>
      </g>
      <g id="Grupo_13963" data-name="Grupo 13963">
        <rect id="Rectángulo_3381" data-name="Rectángulo 3381" width="29.731" height="1.605" transform="translate(1182.075 575.539)"/>
      </g>
      <g id="Grupo_13964" data-name="Grupo 13964">
        <rect id="Rectángulo_3382" data-name="Rectángulo 3382" width="29.731" height="1.605" transform="translate(1289.42 575.539)"/>
      </g>
      <g id="Grupo_13965" data-name="Grupo 13965">
        <rect id="Rectángulo_3383" data-name="Rectángulo 3383" width="77.139" height="1.605" transform="translate(1372.946 575.539)"/>
      </g>
      <g id="Grupo_13966" data-name="Grupo 13966">
        <path id="Trazado_21656" data-name="Trazado 21656" d="M1161,579.442l-.5,2.4h-20.387l.5-2.4Zm1.708-8.04-.5,2.4h-20.387l.5-2.4Z"/>
      </g>
      <g id="Grupo_13967" data-name="Grupo 13967">
        <path id="Trazado_21657" data-name="Trazado 21657" d="M1276.581,579.442l-.5,2.4H1255.7l.5-2.4Zm1.708-8.04-.5,2.4h-20.387l.5-2.4Z"/>
      </g>
      <g id="Grupo_13968" data-name="Grupo 13968">
        <path id="Trazado_21658" data-name="Trazado 21658" d="M1362.476,579.442l-.5,2.4h-20.386l.5-2.4Zm1.708-8.04-.5,2.4H1343.3l.5-2.4Z"/>
      </g>
      <g id="Grupo_13969" data-name="Grupo 13969">
        <path id="Trazado_21659" data-name="Trazado 21659" d="M1207.675,621.314a32.787,32.787,0,0,0,3.156-3.851,26.857,26.857,0,0,0,3.077-6.77,44.581,44.581,0,0,0,1.548-6.491c.331-2.1,3.331-60.808,3.331-62.727a29.25,29.25,0,0,0-.585-6.194,20.553,20.553,0,0,0-1.4-4.387l.754-.239a27.117,27.117,0,0,1,2.967,6.879,28.232,28.232,0,0,1,1.082,7.732c0,2.951-3.278,62.265-4.164,64.554q-2.4,6.234-9.251,12.109Z"/>
      </g>
      <g id="Grupo_13970" data-name="Grupo 13970">
        <path id="Trazado_21660" data-name="Trazado 21660" d="M1186.834,531.271a32.777,32.777,0,0,0-3.156,3.851,26.88,26.88,0,0,0-3.078,6.769,44.718,44.718,0,0,0-1.547,6.491c-.331,2.1-3.331,60.809-3.331,62.728a29.256,29.256,0,0,0,.585,6.194,20.582,20.582,0,0,0,1.4,4.387l-.754.238a27.1,27.1,0,0,1-2.967-6.879,28.223,28.223,0,0,1-1.082-7.732c0-2.951,3.278-62.264,4.164-64.553q2.4-6.234,9.251-12.11Z"/>
      </g>
    </g>
    <g id="Grupo_13977" data-name="Grupo 13977">
      <g id="Grupo_13972" data-name="Grupo 13972">
        <path id="Trazado_21661" data-name="Trazado 21661" d="M1062.83,713.612l1.982-7.152q.253-.909.294-1.1a1.923,1.923,0,0,0,.041-.413.72.72,0,0,0-.191-.529,1.068,1.068,0,0,0-.746-.191,2.024,2.024,0,0,0-.272.016l-.3.041V703.9q.747-.115,1.063-.173c.21-.04.439-.085.684-.139l2.057-.451a.233.233,0,0,1,.092.1l-1.534,4.977a27.474,27.474,0,0,1,2.377-3.217q1.679-1.863,3.007-1.863a1.873,1.873,0,0,1,.885.2,1.426,1.426,0,0,1,.71,1.377,3.043,3.043,0,0,1-.058.579c-.038.2-.089.416-.151.647l-1.522,5.544c-.031.117-.066.257-.105.423a1.763,1.763,0,0,0-.057.353.6.6,0,0,0,.081.312.276.276,0,0,0,.258.139,1.058,1.058,0,0,0,.666-.353,12.853,12.853,0,0,0,1.231-1.51l.336.3a14.223,14.223,0,0,1-1.475,1.806,2.64,2.64,0,0,1-1.782.914,1.247,1.247,0,0,1-.744-.26,1.092,1.092,0,0,1-.358-.943,3.249,3.249,0,0,1,.028-.417,2.971,2.971,0,0,1,.075-.382l1.478-5.624a7.354,7.354,0,0,0,.156-.759,3.726,3.726,0,0,0,.04-.421.854.854,0,0,0-.134-.481.522.522,0,0,0-.472-.2q-.881,0-2.216,1.572a19.653,19.653,0,0,0-1.594,2.232,11.352,11.352,0,0,0-.952,1.96q-.35.953-1.106,3.471Z"/>
        <path id="Trazado_21662" data-name="Trazado 21662" d="M1087.12,728.041l-8.156-19.312-4.547,2.718-.68-1.406,8.075-4.828,6.922,16.391,14.792-39.1h1.828l-17.226,45.539Z"/>
        <path id="Trazado_21663" data-name="Trazado 21663" d="M1110.335,703.393a1.409,1.409,0,0,1,.558,1.257,4.463,4.463,0,0,1-.191,1.091q-.192.7-.69,2.251a25.576,25.576,0,0,1,2.217-2.993q1.685-1.86,2.973-1.86a1.549,1.549,0,0,1,1,.368,1.445,1.445,0,0,1,.452,1.188,8.087,8.087,0,0,1-.219,1.235l-1.822,6.316a.4.4,0,0,0,.035.307.307.307,0,0,0,.3.156.64.64,0,0,0,.365-.1,2.873,2.873,0,0,0,.4-.348q.231-.231.376-.405t.828-1.009l.358.278-.115.162a9.653,9.653,0,0,1-1.679,1.883,2.629,2.629,0,0,1-1.667.7,1.033,1.033,0,0,1-.625-.184,1.191,1.191,0,0,1-.394-1.008,2.589,2.589,0,0,1,.029-.37q.028-.2.087-.441l1.8-6.49c.023-.093.041-.17.053-.231a1.064,1.064,0,0,0,.016-.186.59.59,0,0,0-.146-.429.5.5,0,0,0-.372-.15,2.818,2.818,0,0,0-1.844,1.17,19.118,19.118,0,0,0-1.832,2.376,12.691,12.691,0,0,0-1,2.056q-.289.829-1.058,3.633h-1.8l2.317-8.239c.016-.069.029-.137.041-.2a1.247,1.247,0,0,0,.017-.2.689.689,0,0,0-.123-.435.493.493,0,0,0-.409-.156q-.745,0-1.84,1.217a19.622,19.622,0,0,0-1.793,2.271,13.213,13.213,0,0,0-1.315,2.747q-.367,1.044-.974,3h-1.778l2.231-8.228c.023-.086.043-.168.058-.246a1.3,1.3,0,0,0,.023-.245q0-.457-.313-.55a4.375,4.375,0,0,0-1.2-.059V703.9q1.163-.186,3.768-.763l.091.08-1.312,4.738a29.256,29.256,0,0,1,2.469-3.144,4.334,4.334,0,0,1,2.82-1.674A1.421,1.421,0,0,1,1110.335,703.393Z"/>
        <path id="Trazado_21664" data-name="Trazado 21664" d="M1128.612,727.9l-6.908-16.357-3.851,2.3-.576-1.191,6.839-4.09,5.863,13.884,12.529-33.12h1.549L1129.466,727.9Z"/>
        <path id="Trazado_21665" data-name="Trazado 21665" d="M1154.931,709.96a2.946,2.946,0,0,1,.722,1.152l.1.278.445-1.5a1.5,1.5,0,0,1,.142-.345.379.379,0,0,1,.283-.109l2.287-.255q.183,0,.213.069a.452.452,0,0,1-.01.248c-.057.172-.1.308-.128.407s-.071.241-.129.427l-1.963,7.1q-.641,2.322-1.089,4.008a29.946,29.946,0,0,0-.735,3.482.5.5,0,0,0,.149.4.539.539,0,0,0,.367.129.85.85,0,0,0,.4-.119,4.229,4.229,0,0,0,.533-.358l.354-.278c.112-.092.237-.2.377-.327s.307-.281.5-.467l1.3-1.27.476.417a21,21,0,0,1-3.406,3.583,4.194,4.194,0,0,1-2.447.943,1.4,1.4,0,0,1-1.162-.515,2.006,2.006,0,0,1-.407-1.287,11.27,11.27,0,0,1,.268-2.05q.269-1.336.526-2.248-.357.6-1.2,1.739a13.961,13.961,0,0,1-2.071,2.215,9.809,9.809,0,0,1-2.774,1.828,6.059,6.059,0,0,1-1.983.358,4.022,4.022,0,0,1-2.914-1.321,5.1,5.1,0,0,1-1.308-3.747q0-4.173,3.772-8.705,3.894-4.708,8.067-4.709A3.431,3.431,0,0,1,1154.931,709.96Zm-.644.754a2.164,2.164,0,0,0-1.6-.676q-3.27,0-6.078,4.97a15.984,15.984,0,0,0-2.467,7.533,3.294,3.294,0,0,0,.683,2.315,2.231,2.231,0,0,0,1.694.726q2.989,0,5.763-4.83a15.628,15.628,0,0,0,2.671-7.931A2.915,2.915,0,0,0,1154.287,710.714Z"/>
        <path id="Trazado_21666" data-name="Trazado 21666" d="M1193.8,719.766l-.5,2.4h-20.387l.5-2.4Zm1.708-8.04-.5,2.4h-20.387l.5-2.4Z"/>
        <path id="Trazado_21667" data-name="Trazado 21667" d="M1220.9,700.569a27.237,27.237,0,0,0-3,3.673,26.762,26.762,0,0,0-3.256,6.947,42.6,42.6,0,0,0-1.568,6.741,38.985,38.985,0,0,0-.457,5.33,33.4,33.4,0,0,0,.367,5.469,37.83,37.83,0,0,0,1.559,5.587l-.695.239a28.488,28.488,0,0,1-4.049-14.631,21.514,21.514,0,0,1,1.607-8.575q2.4-5.578,8.974-11.4Z"/>
        <path id="Trazado_21668" data-name="Trazado 21668" d="M1231.394,703.393a1.409,1.409,0,0,1,.557,1.257,4.454,4.454,0,0,1-.19,1.091q-.192.7-.691,2.251a25.691,25.691,0,0,1,2.218-2.993q1.683-1.86,2.973-1.86a1.549,1.549,0,0,1,1,.368,1.445,1.445,0,0,1,.452,1.188,8.017,8.017,0,0,1-.22,1.235l-1.821,6.316a.394.394,0,0,0,.034.307.309.309,0,0,0,.3.156.635.635,0,0,0,.364-.1,2.863,2.863,0,0,0,.4-.348q.231-.231.376-.405c.1-.117.373-.453.828-1.009l.358.278-.115.162a9.685,9.685,0,0,1-1.679,1.883,2.63,2.63,0,0,1-1.668.7,1.037,1.037,0,0,1-.625-.184,1.191,1.191,0,0,1-.393-1.008,2.454,2.454,0,0,1,.029-.37c.018-.132.048-.279.087-.441l1.8-6.49c.023-.093.041-.17.052-.231a1.065,1.065,0,0,0,.017-.186.6.6,0,0,0-.146-.429.5.5,0,0,0-.373-.15,2.818,2.818,0,0,0-1.843,1.17,19.014,19.014,0,0,0-1.832,2.376,12.691,12.691,0,0,0-1,2.056q-.291.829-1.058,3.633h-1.8l2.318-8.239c.015-.069.029-.137.041-.2a1.366,1.366,0,0,0,.016-.2.689.689,0,0,0-.123-.435.492.492,0,0,0-.408-.156q-.745,0-1.841,1.217a19.836,19.836,0,0,0-1.793,2.271,13.222,13.222,0,0,0-1.314,2.747q-.367,1.044-.975,3h-1.777l2.23-8.228c.024-.086.043-.168.059-.246a1.383,1.383,0,0,0,.022-.245c0-.3-.1-.488-.312-.55a4.379,4.379,0,0,0-1.2-.059V703.9q1.163-.186,3.767-.763l.092.08-1.312,4.738a29.4,29.4,0,0,1,2.468-3.144,4.335,4.335,0,0,1,2.821-1.674A1.424,1.424,0,0,1,1231.394,703.393Z"/>
        <path id="Trazado_21669" data-name="Trazado 21669" d="M1249.671,727.9l-6.908-16.357-3.852,2.3-.575-1.191,6.839-4.09,5.863,13.884,12.528-33.12h1.549L1250.524,727.9Z"/>
        <path id="Trazado_21670" data-name="Trazado 21670" d="M1275.988,709.96a2.938,2.938,0,0,1,.723,1.152l.1.278.445-1.5a1.512,1.512,0,0,1,.141-.345.38.38,0,0,1,.284-.109l2.287-.255c.122,0,.192.023.213.069a.472.472,0,0,1-.01.248c-.058.172-.1.308-.128.407s-.071.241-.129.427l-1.964,7.1q-.641,2.322-1.089,4.008a30.045,30.045,0,0,0-.734,3.482.507.507,0,0,0,.148.4.544.544,0,0,0,.368.129.85.85,0,0,0,.4-.119,4.229,4.229,0,0,0,.532-.358l.355-.278c.112-.092.237-.2.377-.327s.306-.281.5-.467l1.3-1.27.476.417a21.039,21.039,0,0,1-3.406,3.583,4.2,4.2,0,0,1-2.447.943,1.4,1.4,0,0,1-1.163-.515,2.012,2.012,0,0,1-.407-1.287,11.281,11.281,0,0,1,.269-2.05q.268-1.336.525-2.248-.355.6-1.2,1.739a14.011,14.011,0,0,1-2.071,2.215,9.8,9.8,0,0,1-2.775,1.828,6.049,6.049,0,0,1-1.982.358,4.022,4.022,0,0,1-2.914-1.321,5.1,5.1,0,0,1-1.309-3.747q0-4.173,3.773-8.705,3.892-4.708,8.067-4.709A3.427,3.427,0,0,1,1275.988,709.96Zm-.643.754a2.168,2.168,0,0,0-1.606-.676q-3.268,0-6.077,4.97a15.987,15.987,0,0,0-2.468,7.533,3.293,3.293,0,0,0,.684,2.315,2.229,2.229,0,0,0,1.693.726q2.989,0,5.764-4.83a15.637,15.637,0,0,0,2.671-7.931A2.919,2.919,0,0,0,1275.345,710.714Z"/>
        <path id="Trazado_21671" data-name="Trazado 21671" d="M1282.068,733.84a32.991,32.991,0,0,0,3.157-3.851,26.9,26.9,0,0,0,3.077-6.769,44.754,44.754,0,0,0,1.548-6.491,38.882,38.882,0,0,0,.5-6.036,29.311,29.311,0,0,0-.585-6.193,20.634,20.634,0,0,0-1.4-4.388l.754-.238a27.119,27.119,0,0,1,2.968,6.879,28.228,28.228,0,0,1,1.082,7.732,21.642,21.642,0,0,1-1.33,7.861q-2.4,6.234-9.251,12.109Z"/>
        <path id="Trazado_21672" data-name="Trazado 21672" d="M1296.1,713.219l.787-.012a3.51,3.51,0,0,0,1.238-.342,1.328,1.328,0,0,0,.637-.862l3.23-11.665c.054-.193.095-.358.122-.492a1.88,1.88,0,0,0,.04-.365.552.552,0,0,0-.265-.543,1.918,1.918,0,0,0-.845-.14l-1.135.058V698.5l.3-.046q.324-.059,1.718-.336t1.983-.4l.36-.081.219-.034.139.081c0,.046,0,.093-.006.138a.627.627,0,0,1-.029.139l-3.855,14.178c-.015.061-.028.123-.04.184a1.074,1.074,0,0,0-.017.186.563.563,0,0,0,.417.6,7.264,7.264,0,0,0,1.608.162v.347H1296.1Z"/>
        <path id="Trazado_21673" data-name="Trazado 21673" d="M1312.606,698.034h1.158l-5.972,15.972h-1.157Z"/>
        <path id="Trazado_21674" data-name="Trazado 21674" d="M1313.815,713.612l1.982-7.152c.17-.606.267-.972.3-1.1a2,2,0,0,0,.041-.413.72.72,0,0,0-.192-.529,1.068,1.068,0,0,0-.746-.191,2.045,2.045,0,0,0-.272.016l-.295.041V703.9q.747-.115,1.063-.173c.21-.04.439-.085.684-.139l2.058-.451a.225.225,0,0,1,.091.1l-1.534,4.977a27.474,27.474,0,0,1,2.377-3.217q1.679-1.863,3.007-1.863a1.875,1.875,0,0,1,.886.2,1.427,1.427,0,0,1,.71,1.377,3.047,3.047,0,0,1-.059.579c-.038.2-.089.416-.15.647l-1.523,5.544c-.031.117-.066.257-.1.423a1.776,1.776,0,0,0-.058.353.605.605,0,0,0,.081.312.276.276,0,0,0,.258.139,1.058,1.058,0,0,0,.666-.353,12.948,12.948,0,0,0,1.232-1.51l.335.3a14.223,14.223,0,0,1-1.475,1.806,2.638,2.638,0,0,1-1.781.914,1.252,1.252,0,0,1-.745-.26,1.092,1.092,0,0,1-.358-.943,3.436,3.436,0,0,1,.028-.417,2.82,2.82,0,0,1,.076-.382l1.477-5.624a7.354,7.354,0,0,0,.156-.759,3.5,3.5,0,0,0,.04-.421.861.861,0,0,0-.133-.481.523.523,0,0,0-.473-.2q-.88,0-2.216,1.572a19.776,19.776,0,0,0-1.594,2.232,11.433,11.433,0,0,0-.952,1.96q-.348.953-1.1,3.471Z"/>
        <path id="Trazado_21675" data-name="Trazado 21675" d="M1354.449,719.766l-.5,2.4h-20.387l.5-2.4Zm1.708-8.04-.5,2.4h-20.387l.5-2.4Z"/>
        <path id="Trazado_21676" data-name="Trazado 21676" d="M1381.547,700.569a27.077,27.077,0,0,0-3,3.673,26.762,26.762,0,0,0-3.256,6.947,42.5,42.5,0,0,0-1.568,6.741,38.985,38.985,0,0,0-.457,5.33,33.4,33.4,0,0,0,.367,5.469,37.806,37.806,0,0,0,1.558,5.587l-.694.239a28.479,28.479,0,0,1-4.05-14.631,21.5,21.5,0,0,1,1.608-8.575q2.4-5.578,8.973-11.4Z"/>
        <path id="Trazado_21677" data-name="Trazado 21677" d="M1397.2,709.96a2.936,2.936,0,0,1,.723,1.152l.1.278.446-1.5a1.457,1.457,0,0,1,.141-.345.379.379,0,0,1,.283-.109l2.288-.255c.122,0,.192.023.212.069a.458.458,0,0,1-.009.248c-.058.172-.1.308-.128.407s-.072.241-.129.427l-1.964,7.1q-.641,2.322-1.089,4.008a30.075,30.075,0,0,0-.734,3.482.507.507,0,0,0,.148.4.543.543,0,0,0,.367.129.857.857,0,0,0,.4-.119,4.31,4.31,0,0,0,.532-.358l.355-.278q.168-.138.376-.327c.14-.126.307-.281.5-.467l1.3-1.27.477.417a21.049,21.049,0,0,1-3.406,3.583,4.2,4.2,0,0,1-2.448.943,1.4,1.4,0,0,1-1.162-.515,2.012,2.012,0,0,1-.407-1.287,11.29,11.29,0,0,1,.269-2.05q.267-1.336.525-2.248-.355.6-1.2,1.739a13.975,13.975,0,0,1-2.072,2.215,9.782,9.782,0,0,1-2.774,1.828,6.053,6.053,0,0,1-1.982.358,4.021,4.021,0,0,1-2.914-1.321,5.1,5.1,0,0,1-1.309-3.747q0-4.173,3.772-8.705,3.894-4.708,8.068-4.709A3.428,3.428,0,0,1,1397.2,709.96Zm-.643.754a2.168,2.168,0,0,0-1.606-.676q-3.27,0-6.077,4.97a15.976,15.976,0,0,0-2.468,7.533,3.294,3.294,0,0,0,.684,2.315,2.229,2.229,0,0,0,1.693.726q2.99,0,5.764-4.83a15.637,15.637,0,0,0,2.671-7.931A2.92,2.92,0,0,0,1396.562,710.714Z"/>
        <path id="Trazado_21678" data-name="Trazado 21678" d="M1403.774,713.219l.788-.012a3.512,3.512,0,0,0,1.238-.342,1.335,1.335,0,0,0,.637-.862l3.23-11.665c.054-.193.095-.358.122-.492a1.96,1.96,0,0,0,.04-.365.553.553,0,0,0-.266-.543,1.91,1.91,0,0,0-.844-.14l-1.135.058V698.5l.3-.046q.324-.059,1.718-.336t1.983-.4l.359-.081.22-.034.139.081c0,.046,0,.093-.006.138a.627.627,0,0,1-.029.139l-3.855,14.178c-.016.061-.028.123-.04.184a.988.988,0,0,0-.018.186.564.564,0,0,0,.417.6,7.283,7.283,0,0,0,1.609.162v.347h-6.608Z"/>
        <path id="Trazado_21679" data-name="Trazado 21679" d="M1420.284,698.034h1.157l-5.971,15.972h-1.157Z"/>
        <path id="Trazado_21680" data-name="Trazado 21680" d="M1430.8,703.393a1.408,1.408,0,0,1,.557,1.257,4.453,4.453,0,0,1-.19,1.091q-.192.7-.691,2.251A25.677,25.677,0,0,1,1432.7,705q1.683-1.86,2.973-1.86a1.549,1.549,0,0,1,1,.368,1.445,1.445,0,0,1,.452,1.188,8.011,8.011,0,0,1-.22,1.235l-1.821,6.316a.4.4,0,0,0,.034.307.31.31,0,0,0,.3.156.635.635,0,0,0,.364-.1,2.815,2.815,0,0,0,.4-.348q.231-.231.376-.405t.828-1.009l.358.278-.115.162a9.685,9.685,0,0,1-1.679,1.883,2.63,2.63,0,0,1-1.668.7,1.037,1.037,0,0,1-.625-.184,1.194,1.194,0,0,1-.393-1.008,2.455,2.455,0,0,1,.029-.37q.029-.2.087-.441l1.8-6.49c.023-.093.041-.17.053-.231a1.167,1.167,0,0,0,.016-.186.6.6,0,0,0-.146-.429.5.5,0,0,0-.372-.15,2.818,2.818,0,0,0-1.844,1.17,19.013,19.013,0,0,0-1.832,2.376,12.691,12.691,0,0,0-1,2.056q-.291.829-1.058,3.633h-1.8l2.318-8.239c.015-.069.029-.137.041-.2a1.247,1.247,0,0,0,.016-.2.688.688,0,0,0-.123-.435.49.49,0,0,0-.408-.156q-.745,0-1.841,1.217a19.852,19.852,0,0,0-1.793,2.271,13.216,13.216,0,0,0-1.314,2.747q-.367,1.044-.975,3h-1.777l2.23-8.228c.024-.086.043-.168.059-.246a1.3,1.3,0,0,0,.022-.245c0-.3-.1-.488-.312-.55a4.376,4.376,0,0,0-1.2-.059V703.9q1.162-.186,3.767-.763l.092.08-1.312,4.738a29.4,29.4,0,0,1,2.468-3.144,4.336,4.336,0,0,1,2.821-1.674A1.421,1.421,0,0,1,1430.8,703.393Z"/>
        <path id="Trazado_21681" data-name="Trazado 21681" d="M1438.838,733.84a32.868,32.868,0,0,0,3.156-3.851,26.861,26.861,0,0,0,3.077-6.769,44.786,44.786,0,0,0,1.548-6.491,38.9,38.9,0,0,0,.5-6.036,29.246,29.246,0,0,0-.585-6.193,20.582,20.582,0,0,0-1.4-4.388l.754-.238a27.119,27.119,0,0,1,2.968,6.879,28.27,28.27,0,0,1,1.082,7.732,21.644,21.644,0,0,1-1.331,7.861q-2.4,6.234-9.25,12.109Z"/>
        <path id="Trazado_21682" data-name="Trazado 21682" d="M1452.866,713.219l.787-.012a3.51,3.51,0,0,0,1.239-.342,1.33,1.33,0,0,0,.636-.862l3.231-11.665c.054-.193.095-.358.122-.492a1.96,1.96,0,0,0,.04-.365.553.553,0,0,0-.266-.543,1.914,1.914,0,0,0-.844-.14l-1.135.058V698.5l.3-.046q.322-.059,1.717-.336t1.984-.4l.359-.081.22-.034.139.081c0,.046,0,.093-.006.138a.579.579,0,0,1-.03.139l-3.854,14.178c-.016.061-.028.123-.04.184a.988.988,0,0,0-.018.186.564.564,0,0,0,.417.6,7.281,7.281,0,0,0,1.609.162v.347h-6.608Z"/>
        <path id="Trazado_21683" data-name="Trazado 21683" d="M1469.376,698.034h1.157l-5.971,15.972H1463.4Z"/>
        <path id="Trazado_21684" data-name="Trazado 21684" d="M1470.585,713.612l1.981-7.152q.255-.909.295-1.1a1.923,1.923,0,0,0,.041-.413.72.72,0,0,0-.191-.529,1.068,1.068,0,0,0-.746-.191,2.048,2.048,0,0,0-.273.016l-.3.041V703.9c.5-.077.853-.134,1.064-.173s.438-.085.684-.139l2.057-.451a.233.233,0,0,1,.092.1l-1.534,4.977a27.474,27.474,0,0,1,2.377-3.217q1.679-1.863,3.007-1.863a1.873,1.873,0,0,1,.885.2,1.426,1.426,0,0,1,.71,1.377,3.043,3.043,0,0,1-.058.579c-.038.2-.089.416-.151.647l-1.522,5.544c-.031.117-.067.257-.105.423a1.763,1.763,0,0,0-.057.353.6.6,0,0,0,.081.312.274.274,0,0,0,.258.139,1.058,1.058,0,0,0,.666-.353,12.866,12.866,0,0,0,1.231-1.51l.336.3a14.125,14.125,0,0,1-1.476,1.806,2.636,2.636,0,0,1-1.781.914,1.247,1.247,0,0,1-.744-.26,1.092,1.092,0,0,1-.358-.943,3.249,3.249,0,0,1,.028-.417,2.793,2.793,0,0,1,.075-.382l1.478-5.624a7.354,7.354,0,0,0,.156-.759,3.726,3.726,0,0,0,.04-.421.854.854,0,0,0-.134-.481.523.523,0,0,0-.473-.2q-.879,0-2.215,1.572a19.653,19.653,0,0,0-1.594,2.232,11.352,11.352,0,0,0-.952,1.96q-.35.953-1.106,3.471Z"/>
        <path id="Trazado_21685" data-name="Trazado 21685" d="M1515.457,719.766l-.5,2.4h-20.387l.5-2.4Zm1.708-8.04-.5,2.4h-20.387l.5-2.4Z"/>
        <path id="Trazado_21686" data-name="Trazado 21686" d="M1544.674,709.96a2.935,2.935,0,0,1,.722,1.152l.1.278.445-1.5a1.49,1.49,0,0,1,.142-.345.379.379,0,0,1,.283-.109l2.287-.255q.183,0,.213.069a.452.452,0,0,1-.01.248c-.057.172-.1.308-.128.407s-.071.241-.128.427l-1.964,7.1q-.641,2.322-1.089,4.008a30.2,30.2,0,0,0-.735,3.482.5.5,0,0,0,.149.4.543.543,0,0,0,.367.129.857.857,0,0,0,.4-.119,4.31,4.31,0,0,0,.532-.358l.354-.278c.113-.092.238-.2.377-.327s.307-.281.5-.467l1.3-1.27.477.417a21.006,21.006,0,0,1-3.407,3.583,4.192,4.192,0,0,1-2.447.943,1.4,1.4,0,0,1-1.162-.515,2.012,2.012,0,0,1-.407-1.287,11.359,11.359,0,0,1,.268-2.05q.268-1.336.526-2.248-.357.6-1.2,1.739a13.969,13.969,0,0,1-2.072,2.215,9.8,9.8,0,0,1-2.774,1.828,6.059,6.059,0,0,1-1.983.358,4.023,4.023,0,0,1-2.914-1.321,5.1,5.1,0,0,1-1.308-3.747q0-4.173,3.772-8.705,3.894-4.708,8.068-4.709A3.428,3.428,0,0,1,1544.674,709.96Zm-.644.754a2.165,2.165,0,0,0-1.6-.676q-3.27,0-6.077,4.97a15.976,15.976,0,0,0-2.468,7.533,3.294,3.294,0,0,0,.683,2.315,2.233,2.233,0,0,0,1.694.726q2.99,0,5.764-4.83a15.635,15.635,0,0,0,2.67-7.931A2.916,2.916,0,0,0,1544.03,710.714Z"/>
        <path id="Trazado_21687" data-name="Trazado 21687" d="M1551.244,713.219l.787-.012a3.511,3.511,0,0,0,1.239-.342,1.33,1.33,0,0,0,.636-.862l3.231-11.665c.053-.193.094-.358.122-.492a1.959,1.959,0,0,0,.04-.365.553.553,0,0,0-.266-.543,1.918,1.918,0,0,0-.845-.14l-1.134.058V698.5l.3-.046q.324-.059,1.718-.336t1.984-.4l.359-.081.22-.034.138.081c0,.046,0,.093-.005.138a.573.573,0,0,1-.03.139l-3.854,14.178c-.016.061-.029.123-.04.184a.988.988,0,0,0-.018.186.564.564,0,0,0,.417.6,7.281,7.281,0,0,0,1.609.162v.347h-6.608Z"/>
        <path id="Trazado_21688" data-name="Trazado 21688" d="M1567.753,698.034h1.157l-5.972,15.972h-1.157Z"/>
        <path id="Trazado_21689" data-name="Trazado 21689" d="M1568.962,713.612l1.981-7.152q.255-.909.3-1.1a1.931,1.931,0,0,0,.041-.413.72.72,0,0,0-.191-.529,1.067,1.067,0,0,0-.746-.191,2.05,2.05,0,0,0-.273.016l-.295.041V703.9q.747-.115,1.064-.173c.21-.04.438-.085.683-.139l2.058-.451a.233.233,0,0,1,.092.1l-1.534,4.977a27.458,27.458,0,0,1,2.377-3.217q1.679-1.863,3.007-1.863a1.873,1.873,0,0,1,.885.2,1.426,1.426,0,0,1,.71,1.377,3.033,3.033,0,0,1-.058.579c-.038.2-.089.416-.151.647l-1.522,5.544c-.031.117-.067.257-.1.423a1.754,1.754,0,0,0-.057.353.6.6,0,0,0,.081.312.274.274,0,0,0,.258.139,1.058,1.058,0,0,0,.666-.353,12.973,12.973,0,0,0,1.231-1.51l.336.3a14.124,14.124,0,0,1-1.476,1.806,2.638,2.638,0,0,1-1.781.914,1.247,1.247,0,0,1-.744-.26,1.093,1.093,0,0,1-.358-.943,3.248,3.248,0,0,1,.028-.417,2.831,2.831,0,0,1,.075-.382l1.478-5.624a7.354,7.354,0,0,0,.156-.759,3.726,3.726,0,0,0,.04-.421.854.854,0,0,0-.134-.481.523.523,0,0,0-.473-.2q-.879,0-2.215,1.572a19.668,19.668,0,0,0-1.594,2.232,11.37,11.37,0,0,0-.952,1.96q-.349.953-1.106,3.471Z"/>
        <path id="Trazado_21690" data-name="Trazado 21690" d="M1596.05,703.393a1.409,1.409,0,0,1,.557,1.257,4.454,4.454,0,0,1-.19,1.091q-.192.7-.69,2.251a25.578,25.578,0,0,1,2.217-2.993q1.683-1.86,2.973-1.86a1.549,1.549,0,0,1,1,.368,1.444,1.444,0,0,1,.452,1.188,8.011,8.011,0,0,1-.22,1.235l-1.821,6.316a.4.4,0,0,0,.034.307.31.31,0,0,0,.3.156.635.635,0,0,0,.364-.1,2.808,2.808,0,0,0,.4-.348q.231-.231.376-.405c.1-.117.373-.453.828-1.009l.358.278-.115.162a9.685,9.685,0,0,1-1.679,1.883,2.63,2.63,0,0,1-1.668.7,1.037,1.037,0,0,1-.625-.184,1.194,1.194,0,0,1-.393-1.008,2.588,2.588,0,0,1,.029-.37q.029-.2.087-.441l1.8-6.49c.023-.093.041-.17.053-.231a1.167,1.167,0,0,0,.016-.186.6.6,0,0,0-.146-.429.5.5,0,0,0-.372-.15,2.818,2.818,0,0,0-1.844,1.17,19.014,19.014,0,0,0-1.832,2.376,12.691,12.691,0,0,0-1,2.056q-.289.829-1.058,3.633h-1.8l2.318-8.239c.015-.069.029-.137.041-.2a1.247,1.247,0,0,0,.016-.2.689.689,0,0,0-.123-.435.49.49,0,0,0-.408-.156q-.745,0-1.841,1.217a19.836,19.836,0,0,0-1.793,2.271,13.222,13.222,0,0,0-1.314,2.747q-.367,1.044-.975,3h-1.777l2.23-8.228c.024-.086.043-.168.059-.246a1.3,1.3,0,0,0,.023-.245q0-.457-.313-.55a4.376,4.376,0,0,0-1.2-.059V703.9q1.163-.186,3.767-.763l.092.08-1.312,4.738a29.272,29.272,0,0,1,2.469-3.144,4.331,4.331,0,0,1,2.82-1.674A1.422,1.422,0,0,1,1596.05,703.393Z"/>
        <path id="Trazado_21691" data-name="Trazado 21691" d="M1632.639,719.766l-.5,2.4h-20.387l.5-2.4Zm1.708-8.04-.5,2.4h-20.387l.5-2.4Z"/>
        <path id="Trazado_21692" data-name="Trazado 21692" d="M1647.38,713.612l1.981-7.152q.255-.909.3-1.1a1.931,1.931,0,0,0,.041-.413.719.719,0,0,0-.191-.529,1.067,1.067,0,0,0-.746-.191,2.048,2.048,0,0,0-.273.016l-.3.041V703.9q.747-.115,1.064-.173c.21-.04.438-.085.683-.139l2.058-.451a.233.233,0,0,1,.092.1l-1.534,4.977a27.474,27.474,0,0,1,2.377-3.217q1.679-1.863,3.006-1.863a1.874,1.874,0,0,1,.886.2,1.426,1.426,0,0,1,.71,1.377,3.034,3.034,0,0,1-.058.579c-.038.2-.089.416-.151.647l-1.522,5.544c-.032.117-.067.257-.1.423a1.763,1.763,0,0,0-.057.353.6.6,0,0,0,.081.312.273.273,0,0,0,.257.139,1.057,1.057,0,0,0,.667-.353,12.973,12.973,0,0,0,1.231-1.51l.336.3a14.136,14.136,0,0,1-1.476,1.806,2.638,2.638,0,0,1-1.781.914,1.247,1.247,0,0,1-.744-.26,1.092,1.092,0,0,1-.358-.943,3.27,3.27,0,0,1,.028-.417,2.811,2.811,0,0,1,.075-.382l1.478-5.624a7.654,7.654,0,0,0,.156-.759,3.726,3.726,0,0,0,.04-.421.853.853,0,0,0-.134-.481.523.523,0,0,0-.473-.2q-.879,0-2.215,1.572a19.684,19.684,0,0,0-1.594,2.232,11.37,11.37,0,0,0-.952,1.96q-.349.953-1.106,3.471Z"/>
        <path id="Trazado_21693" data-name="Trazado 21693" d="M1661.73,713.5a1.293,1.293,0,0,1-.381-.936,1.26,1.26,0,0,1,.387-.929,1.323,1.323,0,0,1,1.864,0,1.259,1.259,0,0,1,.387.929,1.285,1.285,0,0,1-.382.936,1.322,1.322,0,0,1-1.875,0Z"/>
        <path id="Trazado_21694" data-name="Trazado 21694" d="M1674.467,703.393a1.409,1.409,0,0,1,.557,1.257,4.448,4.448,0,0,1-.19,1.091q-.192.7-.69,2.251a25.578,25.578,0,0,1,2.217-2.993q1.683-1.86,2.973-1.86a1.549,1.549,0,0,1,1,.368,1.445,1.445,0,0,1,.452,1.188,8,8,0,0,1-.22,1.235l-1.821,6.316a.4.4,0,0,0,.034.307.31.31,0,0,0,.3.156.635.635,0,0,0,.364-.1,2.808,2.808,0,0,0,.4-.348q.231-.231.376-.405c.1-.117.373-.453.828-1.009l.358.278-.115.162a9.685,9.685,0,0,1-1.679,1.883,2.63,2.63,0,0,1-1.668.7,1.037,1.037,0,0,1-.625-.184,1.194,1.194,0,0,1-.393-1.008,2.606,2.606,0,0,1,.029-.37q.029-.2.087-.441l1.8-6.49c.023-.093.041-.17.053-.231a1.167,1.167,0,0,0,.016-.186.6.6,0,0,0-.146-.429.5.5,0,0,0-.372-.15,2.818,2.818,0,0,0-1.844,1.17,19.014,19.014,0,0,0-1.832,2.376,12.691,12.691,0,0,0-1,2.056q-.289.829-1.058,3.633h-1.8l2.318-8.239c.015-.069.029-.137.041-.2a1.247,1.247,0,0,0,.016-.2.689.689,0,0,0-.123-.435.49.49,0,0,0-.408-.156q-.745,0-1.841,1.217a19.836,19.836,0,0,0-1.793,2.271,13.222,13.222,0,0,0-1.314,2.747q-.367,1.044-.975,3H1665l2.23-8.228c.024-.086.043-.168.059-.246a1.3,1.3,0,0,0,.023-.245q0-.457-.313-.55a4.376,4.376,0,0,0-1.2-.059V703.9q1.163-.186,3.767-.763l.092.08-1.312,4.738a29.272,29.272,0,0,1,2.469-3.144,4.331,4.331,0,0,1,2.82-1.674A1.422,1.422,0,0,1,1674.467,703.393Z"/>
        <path id="Trazado_21695" data-name="Trazado 21695" d="M1692.744,727.9l-6.908-16.357-3.852,2.3-.575-1.191,6.839-4.09,5.863,13.884,12.529-33.12h1.548L1693.6,727.9Z"/>
        <path id="Trazado_21696" data-name="Trazado 21696" d="M1719.062,709.96a2.947,2.947,0,0,1,.722,1.152l.1.278.445-1.5a1.5,1.5,0,0,1,.142-.345.377.377,0,0,1,.283-.109l2.287-.255c.122,0,.192.023.213.069a.472.472,0,0,1-.01.248c-.057.172-.1.308-.128.407s-.071.241-.129.427l-1.964,7.1q-.639,2.322-1.088,4.008a29.931,29.931,0,0,0-.735,3.482.5.5,0,0,0,.149.4.539.539,0,0,0,.367.129.85.85,0,0,0,.4-.119,4.159,4.159,0,0,0,.532-.358l.355-.278c.112-.092.237-.2.377-.327s.307-.281.5-.467l1.3-1.27.476.417a21,21,0,0,1-3.406,3.583,4.194,4.194,0,0,1-2.447.943,1.4,1.4,0,0,1-1.162-.515,2.007,2.007,0,0,1-.408-1.287,11.281,11.281,0,0,1,.269-2.05q.268-1.336.525-2.248-.355.6-1.2,1.739a13.966,13.966,0,0,1-2.071,2.215,9.811,9.811,0,0,1-2.774,1.828,6.059,6.059,0,0,1-1.983.358,4.022,4.022,0,0,1-2.914-1.321,5.1,5.1,0,0,1-1.309-3.747q0-4.173,3.773-8.705,3.894-4.708,8.067-4.709A3.431,3.431,0,0,1,1719.062,709.96Zm-.644.754a2.166,2.166,0,0,0-1.6-.676q-3.27,0-6.078,4.97a15.984,15.984,0,0,0-2.467,7.533,3.293,3.293,0,0,0,.683,2.315,2.231,2.231,0,0,0,1.694.726q2.989,0,5.763-4.83a15.637,15.637,0,0,0,2.671-7.931A2.919,2.919,0,0,0,1718.418,710.714Z"/>
      </g>
      <g id="Grupo_13973" data-name="Grupo 13973">
        <path id="Trazado_21697" data-name="Trazado 21697" d="M1182.471,684.45h-79.109l1.1-1.9h79.109Z"/>
      </g>
      <g id="Grupo_13974" data-name="Grupo 13974">
        <path id="Trazado_21698" data-name="Trazado 21698" d="M1178.555,691.231h-36.59l1.1-1.9h36.59Z"/>
      </g>
      <g id="Grupo_13975" data-name="Grupo 13975">
        <path id="Trazado_21699" data-name="Trazado 21699" d="M1285.31,691.231h-22.417l1.1-1.9h22.416Z"/>
      </g>
      <g id="Grupo_13976" data-name="Grupo 13976">
        <path id="Trazado_21700" data-name="Trazado 21700" d="M1728.724,691.231h-22.416l1.1-1.9h22.416Z"/>
      </g>
    </g>
  </g>
</svg>
